<?xml version="1.0" encoding="UTF-8"?>
<svg id="Layer_1" data-name="Layer 1" xmlns="http://www.w3.org/2000/svg" version="1.1" viewBox="0 0 566.2 100.6">
  <defs>
    <style>
      .cls-1 {
        fill: #fff;
        stroke-width: 0px;
      }
    </style>
  </defs>
  <g>
    <g>
      <path class="cls-1" d="M270.9,10.3h9.7v2.7h-6.3v4.9h6v2.7h-6v5.5h6.6v2.7h-10V10.3h0Z"/>
      <path class="cls-1" d="M283.4,17.3c0-.5,0-.9,0-1.3,0-.4,0-.7,0-.9h3.3c0,.4,0,.7,0,1.1,0,.4,0,.7,0,1.1h0c.1-.3.3-.5.5-.8s.4-.5.7-.8c.3-.2.6-.4,1-.6.4-.1.8-.2,1.3-.2s1.1,0,1.5.2c.4.2.7.4,1,.6.3.2.5.5.6.7s.3.5.4.6c.2-.2.3-.5.6-.7s.5-.5.8-.7c.3-.2.6-.4,1-.5.4-.1.8-.2,1.3-.2.7,0,1.4.1,1.9.4.5.3.9.6,1.2,1.1.3.5.5,1,.6,1.7.1.7.2,1.4.2,2.2v8.4h-3.3v-8.6c0-.9-.1-1.5-.4-1.9-.3-.4-.7-.6-1.3-.6s-.7,0-1,.2c-.3.2-.5.4-.7.6-.2.3-.3.6-.4.9-.1.4-.1.7-.1,1.1v8.3h-3.3v-8.6c0-.9-.1-1.5-.4-1.9-.3-.4-.7-.6-1.3-.6s-.7,0-1,.2c-.3.2-.5.4-.7.6-.2.3-.3.6-.4.9-.1.4-.1.7-.1,1.1v8.3h-3.3v-11.4h0Z"/>
      <path class="cls-1" d="M303.4,21.9c0-1.4.2-2.5.5-3.5.4-.9.8-1.6,1.4-2.1.6-.5,1.2-.9,2-1.1s1.4-.3,2.1-.3,1.4.1,2.1.3c.7.2,1.4.6,1.9,1.1.6.5,1,1.2,1.4,2.1s.5,2,.5,3.5-.2,2.6-.5,3.5c-.4.9-.8,1.6-1.4,2.2-.6.5-1.2.9-1.9,1.1-.7.2-1.4.3-2.1.3s-1.4-.1-2.1-.3-1.4-.6-2-1.1-1.1-1.2-1.4-2.2c-.4-.9-.5-2.1-.5-3.5ZM306.8,21.9c0,.6,0,1.1.1,1.7,0,.6.2,1.1.4,1.5s.5.8.8,1.1c.3.3.8.4,1.3.4s1-.1,1.3-.4c.3-.3.6-.6.8-1.1s.3-1,.4-1.5c0-.6.1-1.1.1-1.7s0-1.1-.1-1.7c0-.6-.2-1.1-.4-1.5-.2-.4-.5-.8-.8-1.1-.3-.3-.8-.4-1.3-.4s-1,.1-1.3.4-.6.6-.8,1.1-.3,1-.4,1.5c0,.6-.1,1.1-.1,1.7Z"/>
      <path class="cls-1" d="M317.8,17.4c0-.4,0-.8,0-1.2s0-.7,0-1h3c0,.4,0,.8,0,1.2,0,.4,0,.8,0,1.2h0c.1-.3.2-.6.4-.9.2-.3.4-.6.7-.9.3-.3.6-.5,1-.7s.8-.3,1.4-.3.2,0,.3,0,.2,0,.3,0v3.1c-.3,0-.6-.1-.9-.1s-.7,0-1,.2-.6.3-.9.6c-.3.3-.5.6-.7,1s-.2,1-.2,1.6v7.5h-3.3v-11.4h0Z"/>
      <path class="cls-1" d="M332.5,25.4h0l2.6-10.3h3.2l-4.2,13.8-.8,2.5c-.1.5-.3.9-.5,1.3s-.5.7-.8,1c-.3.3-.7.5-1.1.7s-.9.2-1.5.2-.8,0-1.2-.1-.6-.2-.9-.2l.2-2.5c.2,0,.4.1.6.2.2,0,.4,0,.7,0,.5,0,.9-.1,1.1-.5s.5-.8.7-1.5l.2-1.2-4.5-13.8h3.4l2.8,10.3Z"/>
      <path class="cls-1" d="M358.7,28.4c-.4.2-.9.4-1.6.5-.7.1-1.5.2-2.4.2-1.4,0-2.6-.2-3.7-.7s-1.9-1.1-2.6-2-1.2-1.9-1.6-3c-.4-1.2-.5-2.4-.5-3.8s.2-2.6.5-3.8c.4-1.2.9-2.2,1.6-3,.7-.9,1.6-1.5,2.6-2s2.3-.7,3.6-.7,1.8,0,2.5.3,1.2.4,1.6.5l-.2,3.1c-.4-.2-.8-.4-1.4-.6-.6-.2-1.3-.4-2.1-.4s-1.4.1-2,.4-1.2.6-1.7,1.2-.9,1.2-1.1,2.1c-.3.9-.4,1.9-.4,3.1s.1,2.2.4,3.1c.3.9.7,1.5,1.1,2.1.5.5,1,.9,1.7,1.2s1.3.4,2,.4,1.5,0,2.1-.3,1-.4,1.4-.7l.2,3.1Z"/>
      <path class="cls-1" d="M370.8,28.1c-.4.1-.9.3-1.6.5s-1.5.3-2.5.3-2-.2-2.8-.6c-.8-.4-1.5-.9-2-1.5-.5-.6-.9-1.3-1.1-2.2s-.4-1.7-.4-2.6.1-2,.4-2.9.6-1.6,1.1-2.3c.5-.6,1.1-1.2,1.8-1.5s1.5-.6,2.4-.6,1.4.1,2.1.4,1.2.6,1.7,1.2c.5.6.9,1.3,1.2,2.2s.4,2.1.4,3.5v.6h-7.9c0,1.2.3,2.1.8,2.7s1.4,1,2.7,1,1.8-.1,2.3-.4,1-.5,1.3-.7v2.6ZM368.3,20.8c0-2.4-.8-3.6-2.3-3.6s-.8.1-1.1.3-.6.5-.8.8c-.2.3-.4.7-.4,1.2,0,.4-.1.9-.1,1.3h4.7Z"/>
      <path class="cls-1" d="M373.8,17.4c0-.4,0-.8,0-1.2s0-.7,0-1h3.1c0,.4,0,.7,0,1.1,0,.3,0,.7,0,1h0c.1-.2.3-.5.5-.7.2-.3.4-.5.7-.8s.6-.4,1-.6c.4-.2.9-.2,1.4-.2s1.4.1,1.9.4.9.6,1.2,1.1c.3.5.5,1,.7,1.6s.2,1.3.2,2v8.8h-3.3v-8.2c0-1.1-.1-1.8-.4-2.3-.3-.5-.8-.7-1.4-.7s-.8,0-1.1.2-.5.4-.7.7-.3.6-.4,1c0,.4-.1.8-.1,1.2v7.9h-3.3v-11.4h0Z"/>
      <path class="cls-1" d="M388.5,12.3l3.3-1v3.8h2.7v2.4h-2.7v7.1c0,.7.1,1.2.4,1.5.3.3.6.4,1.1.4s.5,0,.8,0c.2,0,.4-.1.5-.2v2.3c-.2.1-.5.2-.9.3-.4,0-.8.1-1.3.1-1.2,0-2.2-.3-2.8-.9s-1-1.6-1-3.1v-7.5h-2.2v-2.4h2.2v-2.8h0Z"/>
      <path class="cls-1" d="M406.5,28.1c-.4.1-.9.3-1.6.5s-1.5.3-2.5.3-2-.2-2.8-.6c-.8-.4-1.5-.9-2-1.5-.5-.6-.9-1.3-1.1-2.2s-.4-1.7-.4-2.6.1-2,.4-2.9.6-1.6,1.1-2.3c.5-.6,1.1-1.2,1.8-1.5s1.5-.6,2.4-.6,1.4.1,2.1.4,1.2.6,1.7,1.2c.5.6.9,1.3,1.2,2.2s.4,2.1.4,3.5v.6h-7.9c0,1.2.3,2.1.8,2.7s1.4,1,2.7,1,1.8-.1,2.3-.4,1-.5,1.3-.7v2.6ZM404,20.8c0-2.4-.8-3.6-2.3-3.6s-.8.1-1.1.3-.6.5-.8.8c-.2.3-.4.7-.4,1.2,0,.4-.1.9-.1,1.3h4.7Z"/>
      <path class="cls-1" d="M409.6,17.4c0-.4,0-.8,0-1.2s0-.7,0-1h3c0,.4,0,.8,0,1.2,0,.4,0,.8,0,1.2h0c.1-.3.2-.6.4-.9.2-.3.4-.6.7-.9.3-.3.6-.5,1-.7.4-.2.8-.3,1.4-.3s.2,0,.3,0c0,0,.2,0,.3,0v3.1c-.3,0-.6-.1-.9-.1s-.7,0-1,.2c-.3.1-.6.3-.9.6s-.5.6-.7,1-.2,1-.2,1.6v7.5h-3.3v-11.4h0Z"/>
      <path class="cls-1" d="M425.9,17.5h-2.3v-2.4h2.3v-2.8c0-.5,0-1,.2-1.4.1-.4.3-.9.6-1.2.3-.3.7-.6,1.2-.8s1.1-.3,1.9-.3.9,0,1.3.1c.4,0,.8.1,1.1.2v2.4c-.3,0-.5-.1-.7-.1-.2,0-.4,0-.7,0-.5,0-.9.1-1.1.5-.3.3-.4.7-.4,1.2v2.4h2.5v2.4h-2.5v11.2h-3.3v-11.2h0Z"/>
      <path class="cls-1" d="M432.9,21.9c0-1.4.2-2.5.5-3.5.4-.9.8-1.6,1.4-2.1.6-.5,1.2-.9,2-1.1s1.4-.3,2.1-.3,1.4.1,2.1.3,1.4.6,1.9,1.1c.6.5,1,1.2,1.4,2.1s.5,2,.5,3.5-.2,2.6-.5,3.5c-.4.9-.8,1.6-1.4,2.2s-1.2.9-1.9,1.1-1.4.3-2.1.3-1.4-.1-2.1-.3c-.7-.2-1.4-.6-2-1.1s-1.1-1.2-1.4-2.2-.5-2.1-.5-3.5ZM436.3,21.9c0,.6,0,1.1.1,1.7,0,.6.2,1.1.4,1.5s.5.8.8,1.1c.3.3.8.4,1.3.4s1-.1,1.3-.4.6-.6.8-1.1.3-1,.4-1.5c0-.6.1-1.1.1-1.7s0-1.1-.1-1.7c0-.6-.2-1.1-.4-1.5-.2-.4-.5-.8-.8-1.1s-.8-.4-1.3-.4-1,.1-1.3.4-.6.6-.8,1.1-.3,1-.4,1.5c0,.6-.1,1.1-.1,1.7Z"/>
      <path class="cls-1" d="M447.3,17.4c0-.4,0-.8,0-1.2s0-.7,0-1h3c0,.4,0,.8,0,1.2,0,.4,0,.8,0,1.2h0c.1-.3.2-.6.4-.9.2-.3.4-.6.7-.9.3-.3.6-.5,1-.7.4-.2.8-.3,1.4-.3s.2,0,.3,0c0,0,.2,0,.3,0v3.1c-.3,0-.6-.1-.9-.1s-.7,0-1,.2c-.3.1-.6.3-.9.6s-.5.6-.7,1-.2,1-.2,1.6v7.5h-3.3v-11.4h0Z"/>
      <path class="cls-1" d="M270.8,38.8h4.8c2.9,0,5.1.8,6.6,2.3s2.2,3.9,2.2,6.9-.2,2.9-.7,4.1-1.1,2.1-1.8,2.9c-.8.8-1.7,1.3-2.8,1.7s-2.3.6-3.5.6h-4.8v-18.5ZM274.2,54.7h1.1c1,0,1.8-.2,2.5-.5.7-.3,1.3-.8,1.7-1.3s.8-1.3,1-2.1.3-1.7.3-2.7-.1-1.9-.3-2.7c-.2-.8-.6-1.5-1-2.1-.5-.6-1-1-1.7-1.3s-1.5-.5-2.5-.5h-1.1v13.3Z"/>
      <path class="cls-1" d="M287,37.8h3.4v3.2h-3.4v-3.2ZM287.1,43.6h3.3v13.7h-3.3v-13.7Z"/>
      <path class="cls-1" d="M293.9,59.4c.4.2.9.5,1.7.7.7.3,1.5.4,2.4.4s1.4-.1,1.9-.4.8-.6,1.1-1,.4-.9.5-1.4.1-1,.1-1.6v-1.3h0c-.1.3-.3.5-.5.8-.2.3-.4.5-.7.7s-.6.4-1,.5-.9.2-1.4.2-1,0-1.5-.3-1.1-.5-1.5-1c-.5-.5-.9-1.2-1.2-2.1-.3-.9-.5-2-.5-3.4s0-1.8.3-2.7c.2-.9.5-1.6.9-2.2s.9-1.2,1.5-1.5c.6-.4,1.4-.6,2.3-.6s.9,0,1.3.2.7.3,1,.5c.3.2.5.5.7.7.2.3.4.6.6.9h.1c0-.3,0-.7,0-1.1s0-.7,0-1.1h3c0,.3,0,.7,0,1.1s0,.7,0,1.1v10.1c0,1.1,0,2-.3,2.9-.2.9-.5,1.7-1,2.3-.5.6-1.1,1.2-1.9,1.5-.8.4-1.9.5-3.1.5s-2-.1-2.9-.3-1.4-.4-1.8-.5l.2-2.9ZM296.5,50.3c0,.8,0,1.5.2,2,.1.6.3,1,.5,1.4s.4.6.7.8.5.3.8.3c1,0,1.8-.4,2.2-1.1.4-.8.7-1.9.7-3.5s-.2-2.5-.7-3.3c-.5-.8-1.1-1.1-1.9-1.1-.9,0-1.5.4-1.8,1.2-.4.8-.6,1.9-.6,3.2Z"/>
      <path class="cls-1" d="M308,37.8h3.4v3.2h-3.4v-3.2ZM308.1,43.6h3.3v13.7h-3.3v-13.7Z"/>
      <path class="cls-1" d="M315.9,40.8l3.3-1v3.8h2.7v2.4h-2.7v7.1c0,.7.1,1.2.4,1.5s.6.4,1.1.4.5,0,.8,0,.4-.1.5-.2v2.3c-.2.1-.5.2-.9.3s-.8.1-1.3.1c-1.2,0-2.2-.3-2.8-.9s-1-1.6-1-3.1v-7.5h-2.2v-2.4h2.2v-2.8Z"/>
      <path class="cls-1" d="M325.3,44.4c.5-.2,1-.4,1.7-.7s1.5-.3,2.6-.3,1.9.1,2.6.4,1.2.6,1.6,1.1.6,1.1.8,1.7.2,1.4.2,2.3v6c0,.5,0,1,0,1.4,0,.4,0,.8.1,1h-3c0-.3-.1-.6-.2-.9s0-.6,0-1h0c-.4.6-.9,1-1.5,1.5s-1.4.6-2.3.6-1,0-1.5-.3c-.5-.2-.9-.4-1.3-.8s-.7-.8-.9-1.3c-.2-.5-.3-1.1-.3-1.7,0-.9.2-1.7.5-2.3s.9-1.1,1.5-1.4,1.4-.6,2.3-.7c.9-.1,1.8-.2,2.9-.2h.7v-.5c0-.3,0-.7-.1-1s-.2-.6-.4-.8-.5-.4-.8-.6-.7-.2-1.2-.2-.8,0-1.2.1-.7.2-1.1.3-.6.3-.9.4c-.3.2-.5.3-.6.4l-.2-2.7ZM331.8,50.6h-.3c-1.4,0-2.5.2-3.3.5-.8.4-1.2,1-1.2,2s.2,1.1.6,1.5.9.6,1.5.6c1,0,1.7-.3,2.1-1s.6-1.6.6-2.9v-.8Z"/>
      <path class="cls-1" d="M338.1,37.4h3.3v19.9h-3.3v-19.9Z"/>
      <path class="cls-1" d="M352.7,53.7c.3.2.9.5,1.5.7s1.5.4,2.4.4.7,0,1.1-.2.6-.3.9-.5c.3-.2.5-.5.6-.8.1-.3.2-.7.2-1.2s0-.6-.1-.9-.2-.5-.5-.7-.5-.4-.8-.6c-.3-.2-.6-.4-1.1-.6l-1.7-1c-.9-.5-1.6-1.2-2.2-1.9-.5-.8-.8-1.7-.8-2.9s.2-1.6.5-2.2.7-1.2,1.3-1.6c.5-.4,1.1-.7,1.9-1s1.5-.3,2.2-.3,1.8,0,2.5.3c.7.2,1.1.3,1.4.4l-.2,2.8c-.4-.2-.9-.3-1.4-.5s-1.2-.3-2-.3-1.5.2-1.9.6c-.4.4-.6.9-.6,1.6s0,.7.2.9c.1.2.2.5.4.7s.4.3.6.5c.2.2.5.3.7.4l2,1.1c.5.3,1,.6,1.4.9.4.3.7.7,1,1,.3.4.5.8.6,1.3.1.5.2,1.1.2,1.7,0,.9-.2,1.8-.5,2.5s-.8,1.3-1.3,1.7c-.6.5-1.2.8-2,1s-1.6.3-2.5.3c-1.9,0-3.3-.3-4.2-.8l.2-3Z"/>
      <path class="cls-1" d="M374.4,56.9c-.4.1-.9.3-1.4.4-.5.1-1.2.2-1.8.2-1.1,0-2.1-.2-2.9-.6s-1.5-.9-2-1.5c-.5-.6-.9-1.4-1.1-2.2-.2-.8-.4-1.8-.4-2.7s.1-1.9.4-2.7c.3-.9.6-1.6,1.2-2.2s1.2-1.1,2-1.5,1.8-.6,3-.6,1,0,1.6.2c.5.1,1,.2,1.3.4l-.2,2.6c-.3-.1-.6-.3-1-.4-.4-.2-.8-.2-1.3-.2-1.2,0-2.2.4-2.7,1.2-.6.8-.9,1.9-.9,3.4s0,1.2.2,1.8c.1.5.4,1,.7,1.4s.7.7,1.2,1,1,.3,1.7.3.8,0,1.3-.2c.5-.2.8-.3,1-.4l.2,2.6Z"/>
      <path class="cls-1" d="M376.9,37.4h3.3v8h0c.1-.2.3-.4.5-.7s.4-.4.7-.6.6-.3.9-.5c.4-.1.8-.2,1.3-.2.8,0,1.4.1,1.9.4.5.3.9.6,1.2,1.1.3.5.5,1,.7,1.6s.2,1.3.2,2v8.8h-3.3v-8.2c0-1.1-.1-1.8-.4-2.3s-.8-.7-1.4-.7-.8,0-1.1.2-.5.4-.7.7c-.2.3-.3.6-.4,1s-.1.8-.1,1.2v8h-3.3v-19.9h0Z"/>
      <path class="cls-1" d="M390,50.4c0-1.4.2-2.5.5-3.5s.8-1.6,1.4-2.2,1.2-.9,2-1.1,1.4-.3,2.1-.3,1.4.1,2.1.3,1.4.6,1.9,1.1,1,1.2,1.4,2.2.5,2,.5,3.5-.2,2.6-.5,3.5c-.4.9-.8,1.6-1.4,2.2s-1.2.9-1.9,1.1-1.4.3-2.1.3-1.4,0-2.1-.3c-.7-.2-1.4-.6-2-1.1-.6-.5-1.1-1.2-1.4-2.2-.4-.9-.5-2.1-.5-3.5ZM393.4,50.4c0,.6,0,1.1.1,1.7,0,.6.2,1.1.4,1.5s.5.8.8,1.1c.3.3.8.4,1.3.4s1-.1,1.3-.4.6-.6.8-1.1.3-1,.4-1.5.1-1.1.1-1.7,0-1.1-.1-1.7-.2-1.1-.4-1.5c-.2-.4-.5-.8-.8-1.1-.3-.3-.8-.4-1.3-.4s-1,.1-1.3.4-.6.6-.8,1.1-.3,1-.4,1.5c0,.6-.1,1.1-.1,1.7Z"/>
      <path class="cls-1" d="M404.5,37.4h3.3v19.9h-3.3v-19.9Z"/>
      <path class="cls-1" d="M411.8,44.4c.5-.2,1-.4,1.7-.7s1.5-.3,2.6-.3,1.9.1,2.6.4,1.2.6,1.6,1.1.6,1.1.8,1.7.2,1.4.2,2.3v6c0,.5,0,1,0,1.4,0,.4,0,.8.1,1h-3c0-.3-.1-.6-.2-.9s0-.6,0-1h0c-.4.6-.9,1-1.5,1.5s-1.4.6-2.3.6-1,0-1.5-.3-.9-.4-1.3-.8-.7-.8-.9-1.3c-.2-.5-.3-1.1-.3-1.7,0-.9.2-1.7.5-2.3s.9-1.1,1.5-1.4,1.4-.6,2.3-.7c.9-.1,1.8-.2,2.9-.2h.7v-.5c0-.3,0-.7-.1-1s-.2-.6-.4-.8-.5-.4-.8-.6-.7-.2-1.2-.2-.8,0-1.2.1-.7.2-1.1.3-.6.3-.9.4c-.3.2-.5.3-.6.4l-.2-2.7ZM418.2,50.6h-.3c-1.4,0-2.5.2-3.3.5s-1.2,1-1.2,2,.2,1.1.6,1.5.9.6,1.5.6c1,0,1.7-.3,2.1-1s.6-1.6.6-2.9v-.8Z"/>
      <path class="cls-1" d="M424.4,45.9c0-.4,0-.8,0-1.2s0-.7,0-1h3c0,.4,0,.8,0,1.2s0,.8,0,1.2h0c.1-.3.2-.6.4-.9.2-.3.4-.6.7-.9.3-.3.6-.5,1-.7s.8-.3,1.4-.3.2,0,.3,0,.2,0,.3,0v3.1c-.3,0-.6-.1-.9-.1s-.7,0-1,.2c-.3.1-.6.3-.9.6-.3.3-.5.6-.7,1s-.2,1-.2,1.6v7.5h-3.3v-11.4h0Z"/>
      <path class="cls-1" d="M433.1,54.1c.1,0,.3.1.5.2s.5.2.8.3c.3.1.6.2,1,.3.4,0,.7.1,1.1.1.6,0,1.1,0,1.5-.3s.6-.5.6-1.1,0-.5-.3-.8-.6-.6-1.2-.9l-1.4-.8c-.4-.2-.7-.4-1-.7s-.6-.5-.9-.8c-.3-.3-.5-.6-.7-1-.2-.4-.2-.9-.2-1.4s.1-.9.3-1.4c.2-.5.5-.9.9-1.2s.9-.7,1.5-.9c.6-.2,1.2-.3,2-.3s1.6,0,2.2.2,1,.3,1.2.3l-.2,2.5c-.4-.2-.8-.3-1.3-.4s-1-.2-1.6-.2-1.1.1-1.4.4-.4.6-.4,1,.1.7.4.9.6.5,1.1.8l1.6,1c.4.3.8.5,1.1.8.3.2.6.5.8.8.2.3.4.5.5.9.1.3.2.7.2,1,0,.6-.1,1.2-.4,1.7-.3.5-.6.9-1.1,1.3-.5.3-1,.6-1.6.8-.6.2-1.3.3-2,.3s-1.6,0-2.3-.2c-.7-.2-1.2-.3-1.5-.4l.2-2.8Z"/>
      <path class="cls-1" d="M444.1,37.4h3.3v8h0c.1-.2.3-.4.5-.7s.4-.4.7-.6.6-.3.9-.5c.4-.1.8-.2,1.3-.2.8,0,1.4.1,1.9.4.5.3.9.6,1.2,1.1.3.5.5,1,.7,1.6s.2,1.3.2,2v8.8h-3.3v-8.2c0-1.1-.1-1.8-.4-2.3s-.8-.7-1.4-.7-.8,0-1.1.2-.5.4-.7.7c-.2.3-.3.6-.4,1s-.1.8-.1,1.2v8h-3.3v-19.9h0Z"/>
      <path class="cls-1" d="M457.9,37.8h3.4v3.2h-3.4v-3.2ZM458,43.6h3.3v13.7h-3.3v-13.7Z"/>
      <path class="cls-1" d="M464.5,45.9c0-.5,0-1,0-1.3s0-.7,0-1h3.1c0,.2,0,.5,0,.9s0,.8,0,1.3h0c.1-.3.3-.6.5-.8.2-.3.5-.5.7-.8s.6-.4,1-.5.9-.2,1.4-.2c.9,0,1.6.2,2.2.6.6.4,1.1.9,1.5,1.5.4.6.7,1.4.9,2.2s.3,1.8.3,2.7c0,2.2-.4,4-1.2,5.2s-2,1.8-3.5,1.8-.9,0-1.3-.2-.7-.3-1-.5-.5-.5-.7-.7c-.2-.3-.4-.5-.5-.8h0v7.7h-3.3v-17h0ZM467.7,50.5c0,.7,0,1.3.1,1.8.1.6.2,1,.5,1.4s.5.7.8,1,.7.3,1.2.3c.9,0,1.6-.4,1.9-1.2.4-.8.5-1.9.5-3.3s-.2-2.8-.5-3.6-1-1.2-1.9-1.2-.9.1-1.2.4-.6.6-.8,1-.4.9-.4,1.5c0,.6-.1,1.2-.1,1.8Z"/>
    </g>
    <g>
      <polygon class="cls-1" points="248.7 96.6 248.7 7.4 249.7 7.4 249.7 96.6 248.7 96.6"/>
      <g>
        <path class="cls-1" d="M89.4,54.5c0,2.8,1.8,4,4.1,4s4-2.1,4-4.2v-5.6c0-1.7-1.6-1-1.6-1.7s.1-.2.2-.2c.7,0,1.3,0,2,0s.6,0,.9,0,.2,0,.2.2c0,.5-1,0-1,1.7v5.3c0,.8.2,5.1-4.8,5.1s-5.4-2.5-5.4-5.2v-5.8c0-1-1.4-.6-1.4-1.1s.3-.2.4-.2c.4,0,.9,0,1.3,0s1.1,0,1.6,0,.6,0,.6.2c0,.5-1.2,0-1.2,1.2v6.2h0Z"/>
        <path class="cls-1" d="M105.7,50.3c0-3.6-2.1-2.6-2.1-3.2s.2-.2.3-.2c.3,0,.5,0,.8,0s.5,0,.8,0,.3.3.4.4l8.2,9.1c0,.1.2.2.2.2s0,0,0-.2v-7.2c0-2.2-1.9-1.6-1.9-2.2s0-.2.2-.2c.5,0,1,0,1.6,0s1.3,0,1.7,0,.2,0,.2.2c0,.5-1,.1-1,1.4v10c0,.5,0,.7-.2.7s-.3,0-.7-.5l-7.4-8.3s-.2-.3-.4-.3-.1,0-.1.4v7c0,1.5,1.5,1,1.5,1.4s0,.2-.2.2c-.4,0-.9,0-1.7,0s-1.5,0-1.6,0c-.2,0-.2-.1-.2-.2,0-.6,1.5.2,1.5-2.2v-6.3h0Z"/>
        <path class="cls-1" d="M123.1,48.4c0-1.2-1.4-.9-1.4-1.3s0-.2.2-.2c.6,0,1.2,0,1.9,0s1.1,0,1.6,0,.3,0,.3.2c0,.4-1.2,0-1.2,1.3v9.2c0,1.2,1.5.8,1.5,1.3s0,.2-.3.2-1.1,0-1.9,0c-1.1,0-1.4,0-1.7,0s-.4,0-.4-.3c0-.5,1.3,0,1.3-1.6v-8.8h0Z"/>
        <path class="cls-1" d="M131.4,48.3c-.4-1-1.3-.7-1.3-1.1s0-.2.2-.2c.5,0,1.1,0,1.6,0s1.1,0,1.4,0,.2,0,.2.2c0,.2-.7.3-.7.9s0,.5.1.7l3,7.1c.4.9.5,1.3.7,1.3s.2-.3.3-.5l3-7.4c.1-.3.3-.8.2-1.2,0-.8-1.1-.5-1.1-.9s0-.2.3-.2c.4,0,.8,0,1.1,0,.8,0,1.1,0,1.3,0s.3,0,.3.2c0,.4-.5,0-1,1.1l-4.3,10.1c-.2.4-.3,1-.6,1s-.5-.7-.6-1.1l-4.2-10Z"/>
        <path class="cls-1" d="M162.4,48.1c0-.7.4-.6,1-.6,1.7,0,3.3.7,3.3,2.8s-1.7,2.4-2.4,2.4-1.9,0-1.9-.2v-4.4h0ZM165.8,52.9c1.2-.5,2.2-1.6,2.2-3,0-3.3-3.8-3-4.1-3-.9,0-1.9,0-2.9,0s-.8,0-1.1,0-.3,0-.3.2c0,.6,1.5-.1,1.5,1.5v8.7c0,1.3-1.2,1.1-1.2,1.5s0,.2.2.2c.6,0,1.3,0,2,0,1.4,0,1.8,0,2,0s.3,0,.3-.1c0-.6-1.8,0-1.8-1.5v-3.6c0-.2-.1-.5.4-.5,1.9,0,1.7,0,2.3.9l1.9,3c.6,1,1.3,1.9,2.6,1.9s1.1,0,1.1-.2c0-.4-.8.2-2.1-1.7l-2.9-4.3Z"/>
        <path class="cls-1" d="M174.1,56c0-.3,0-.5.2-.5.2,0,.2.2.3.6.2.8,1.2,2.6,3.6,2.6s3.2-.9,3.2-2.7c0-3.3-7-1.5-7-5.9s1.8-3.2,3.8-3.2,2.7.6,2.9.6.2-.2.4-.2.2,0,.2.2l.2,2.3c0,.1,0,.3-.2.3s-.3-.4-.4-.5c-.5-1.5-1.8-2.2-3.3-2.2s-2.8.7-2.8,2.2c0,3.2,7,1.3,7,6.1s-1,3.6-4.9,3.6-2.8-.6-2.9-1l-.4-2.2Z"/>
        <path class="cls-1" d="M188.9,48.4c0-1.2-1.4-.9-1.4-1.3s0-.2.2-.2c.6,0,1.2,0,1.9,0s1.1,0,1.6,0,.3,0,.3.2c0,.4-1.2,0-1.2,1.3v9.2c0,1.2,1.5.8,1.5,1.3s0,.2-.3.2-1.1,0-1.9,0c-1.1,0-1.4,0-1.6,0s-.4,0-.4-.3c0-.5,1.3,0,1.3-1.6v-8.8h0Z"/>
        <path class="cls-1" d="M200.7,48.7c0-.1,0-.8-.2-.8h-2.8c-1.1,0-1.1.2-1.4,1.2,0,.2,0,.4-.3.4s-.2-.1-.2-.2l.2-1.7c0-.2,0-.7.3-.7,1.3,0,2.7,0,4.9,0s4.7,0,5,0,.5,0,.5.5v1.4c.1.2.1.4-.1.4-.6,0,.3-1.3-1.5-1.3h-2.5c-.8,0-.7,0-.7.8v8.8c0,1.4,1.4.9,1.4,1.4s0,.2-.2.2c-.4,0-.9,0-1.4,0-1.9,0-2.2,0-2.4,0-.2,0-.2,0-.2-.2,0-.4,1.4-.2,1.4-1.3v-8.9h0Z"/>
        <path class="cls-1" d="M211.4,48c-.4-.7-1.3-.5-1.3-.8s.1-.3.2-.3c.5,0,.8,0,2,0s1,0,1.2,0,.3,0,.3.2c0,.3-.8.3-.8.8s.2.5.3.7l2.1,3.3c.1.2.2.3.3.3s.2-.1.3-.3l1.8-2.9c.1-.2.4-.5.4-.9,0-.8-1.3-.5-1.3-.9s.2-.3.4-.3c.4,0,.8,0,1.2,0s1,0,1.5,0,.2.1.2.2c0,.2-.3.3-.4.3-.5.3-.7.8-1,1.2l-2.4,3.7c-.3.4-.4.5-.4.8v4.2c0,1.5,1.4,1,1.4,1.5s-.1.2-.4.2-1.2,0-1.9,0-1.4,0-1.5,0-.3,0-.3-.2c0-.5,1.3,0,1.3-1.2v-4.2c0-.3-.3-.7-.4-.9l-2.9-4.6Z"/>
        <path class="cls-1" d="M148.7,51.8c0,.6,0,.6.6.6h1.9c1.8,0,1.3-1.4,1.7-1.4s.2.2.2.3c0,.6,0,1.2,0,1.7s0,.9,0,1.3,0,.2-.2.2c-.5,0,0-1.5-1.4-1.5h-2.5c-.4,0-.3.3-.3.5v3.2c0,1-.1,1.4,1.3,1.4,3.9,0,4.5-1.8,4.8-1.8s.1.2.1.2c0,.6-.4,1.2-.9,1.7-.6.6-.9.6-1.7.6-1.3,0-2.6,0-3.9,0-.7,0-1.4,0-2.1,0s-.3,0-.3-.2c0-.2.2-.2.8-.4.4-.2.5-.7.5-1.5v-7.8c0-.8,0-1.6-.9-1.8-.1,0-.5,0-.5-.3s.1-.2.6-.2c3.2,0,4.1,0,4.9,0s1.9,0,2.4,0,.2.2.2.4c0,1.9-.2,2-.3,2-.4,0-.1-.8-.4-1.2-.4-.6-2.2-.5-2.9-.5-1.6,0-1.6,0-1.6,1.1v3.2h0Z"/>
      </g>
      <g>
        <path class="cls-1" d="M158.5,10.6c8.1,0,13.2,7.3,13.2,14.9s-4.9,12.5-10.9,12.5-13.2-7.4-13.2-15.1c0-6.5,4-12.3,10.9-12.3ZM159,39.2c9.2,0,15.6-6,15.6-15.3s-6.5-14.7-14.9-14.7-15.2,6.3-15.2,14.9c0,8.7,5.5,15.1,14.5,15.1Z"/>
        <path class="cls-1" d="M183,12.5c0-1.6.8-1.5,2.3-1.5,3.9,0,7.7,1.6,7.7,6.6s-3.9,5.7-5.6,5.7-4.4.2-4.4-.6v-10.2h0ZM190.9,23.5c2.8-1.1,5.1-3.8,5.1-7,0-7.8-8.9-7-9.6-7-2.1,0-4.4.2-6.7.2s-1.9-.2-2.6-.2-.8.2-.8.5c0,1.4,3.4-.3,3.4,3.6v20.4c0,3.1-2.9,2.5-2.9,3.5s.2.4.4.4c1.5,0,3.1-.2,4.6-.2,3.3,0,4.3.2,4.6.2s.7,0,.7-.3c0-1.4-4.2-.1-4.2-3.6v-8.5c0-.4-.2-1.1,1-1.1,4.5,0,3.9-.1,5.4,2.1l4.5,7c1.5,2.3,3.1,4.3,6,4.3s3.6,0,3.6-.5c0-1-2.9.5-5.8-3.9l-6.7-10.2Z"/>
        <path class="cls-1" d="M202.7,12.2c-1-1.7-3-1.2-3-1.9s.2-.6.5-.6c1.1,0,1.8.2,4.6.2s2.4-.2,2.8-.2.8,0,.8.4c0,.7-1.9.7-1.9,1.9s.5,1.3.7,1.6l4.9,7.8c.3.5.6.7.8.7s.4-.3.8-.8l4.1-6.7c.3-.4.9-1.1.9-2.2,0-2-3-1.1-3-2.1s.4-.6.8-.6c1,0,2,.2,2.9.2s2.3-.2,3.5-.2.4.3.4.5c0,.4-.7.6-1,.8-1.1.6-1.6,1.8-2.2,2.8l-5.6,8.8c-.6,1-1,1.2-1,1.8v9.9c0,3.5,3.3,2.4,3.3,3.6s-.4.4-.9.4-2.9-.2-4.4-.2-3.2.2-3.6.2-.6,0-.6-.5c0-1.1,3.1,0,3.1-2.9v-9.7c0-.8-.6-1.6-.9-2l-6.7-10.7Z"/>
        <path class="cls-1" d="M140,34.4c.2,3.4,3.2,1.9,3.2,3.3s-.5.4-1,.4c-.8,0-2.2-.2-3.8-.2s-2.5.2-3.5.2-.4-.2-.4-.4c0-1.2,2.5-.3,2.5-3.3l-1.1-15.6c0-1-.2-1.6-.4-1.6s-.6.4-1.1,1.2l-8.3,16.9c-.2.4-.8,2-1.2,2s-.7-.9-.8-1.2l-8.6-17.9c-.1-.3-.3-.4-.5-.4s-.2.2-.3.6l-1.2,14.1c-.2,5.3,3.6,3.6,3.6,5s-.4.4-1,.4-2.3-.2-3.5-.2c-2.1,0-2.8.2-3.6.2s-.4-.2-.4-.5c0-1.4,2.6.3,2.8-3.9.5-6.6,1-10.8,1-15.1,0-9.4-3.1-7.2-3.1-8.6s.3-.4.7-.4c.7,0,1.4.2,2.2.2s1.4-.2,2.1-.2.6.7.8,1.1l9.6,20.4c.4.8.6,1.2.9,1.2s.6-.8,1.2-2.2l9.6-19.2c.2-.4.6-1.4,1-1.4.4,0,1.7.2,1.9.2.9,0,1.3-.2,1.9-.2s.4.2.4.5c0,1.3-3.2-.4-3.1,4.3l1.2,20Z"/>
        <path class="cls-1" d="M91.1,21.4c0,1.4,0,1.4,1.5,1.4h4.3c4.2,0,3.1-3.2,4-3.2s.4.4.4.8c0,1.4,0,2.8,0,4.1s0,2.1,0,3.2-.2.5-.4.5c-1.2,0,.1-3.5-3.2-3.5h-5.9c-.8,0-.7.7-.7,1.3v7.4c0,2.4-.3,3.3,3.1,3.3,9.2,0,10.6-4.1,11.1-4.1s.3.4.3.5c0,1.5-1,2.9-2,3.9-1.3,1.5-2.2,1.4-3.9,1.4-3.1,0-6.1-.2-9.1-.2-1.6,0-3.3.2-4.9.2s-.6,0-.6-.4c0-.5.5-.4,1.8-1.1,1-.5,1.1-1.6,1.1-3.5V14.8c0-1.8,0-3.8-2.2-4.1-.3,0-1.2-.2-1.2-.6s.2-.5,1.4-.5c7.6,0,9.7.2,11.3.2s4.5-.2,5.7-.2.4.4.4.9c0,4.5-.6,4.8-.8,4.8-1,0-.3-1.9-1-2.9-1-1.4-5.2-1.1-6.8-1.1-3.8,0-3.8-.2-3.8,2.5v7.5Z"/>
      </g>
      <g>
        <path class="cls-1" d="M32.7,61.6C6.3,49.4,9.4,22.2,9.4,9.4h46.7c0,12.8,2.9,40.1-23.5,52.2ZM9.4,7.3l-2,2.1c0,1.5,0,3.4,0,4.4-.2,15,.8,38.2,25.2,49.5,12.9-6,22.6-16.2,25.2-32.1,1.5-9.2.6-18,.6-23.9H9.4Z"/>
        <g>
          <path class="cls-1" d="M22.7,40.8c-1.9,2-3.7,4-4.3,4.6-.1.2-.2.3,0,.4.1.1.3.3.4.3.1,0,.2,0,.4-.1,0,0,2.1-2.1,4.6-4.4,0,0-.2-.1-.5-.3-.2-.2-.5-.5-.5-.5Z"/>
          <path class="cls-1" d="M23.9,40.3c.5.5,1.2.9,1.2.9l-.4.4c-.2.2-.8,0-1.4-.6-.6-.5-.9-1.1-.8-1.3l.5-.4s.3.5.8,1Z"/>
          <g>
            <path class="cls-1" d="M45.3,45.4c.4-.4.4-.7.4-.7l.4.2c.1.1,0,.6-.4,1-.4.4-.9.5-1,.4l-.2-.5s.4,0,.8-.4Z"/>
            <path class="cls-1" d="M44.6,44.7c.2-.2.3-.5.3-.5l.3.2c0,0,0,.4-.3.7-.3.3-.7.4-.8.3l-.2-.3s.3,0,.6-.3Z"/>
          </g>
        </g>
        <path class="cls-1" d="M45.9,23.4l-.5.4c-.7.3-2.2-.9-3.4-2-.8-.7-2.4-2.5-2-3.2l.2-.2c-.2,0-.3-.2-.4-.2s-.3-.1-.5-.1c-.2,0-.3.1-.4.3,0,.3.2.8.4,1.3s1.3,2,3.3,3.6c.9.7,2,1.2,2.8,1.5.1,0,.6.1.8,0,.2-.2,0-.6-.2-1,0-.1,0-.2-.2-.3Z"/>
        <path class="cls-1" d="M44.9,18.7"/>
        <path class="cls-1" d="M43.9,18.3"/>
        <path class="cls-1" d="M24.8,15.8v.5c0,.5.5,4.6,2.8,7.5,2,2.5,8.2,9.9,9.2,11.1.9,1.1,7,8.2,7.7,9.1,0,0,0,0,0,0,0,0,0,.2-.3.3-.2.2-.4.2-.4.2,0,0-.2-.2-.2-.2-.2-.3-10.7-10.7-11.7-11.7-1-1-6.4-6.2-8.6-7.6-1.9-1.2-2.8-1.9-4.9-2.1,0,0-1.5,0-1.6-.1,0,0,0,0,0,0,.9-.4,3-1.6,4.6-3.1,2.2-2.1,3-3.6,3.1-3.9,0,0,.2,0,.2,0ZM26.2,24.7c-2.2-2.2-3-2.7-4-3.1-.5-.2-1-.4-1.2-.3-.4.2-1.1.4-1.5.8-.3.3-.3.4-.1.5s1.3.3,2.3.9c1.8.9,5.1,3.2,12.3,10.7,3.7,3.8,9.4,9.6,9.4,9.6h.2c0-.1-8.4-9.5-14.9-16.5-.9-1-1.8-1.8-2.5-2.6Z"/>
        <path class="cls-1" d="M45.8,23.3"/>
        <path class="cls-1" d="M19.8,20.2c-1,.8-2.1,1.5-3.2,2-.7.3-1.6,0-.9-1.3.2-.4.5-.9.9-1.4,1.3-1.7,3.5-3.7,5.7-4.9.7-.4,1.3-.6,1.5-.6.5,0,.6.5.5.9-.2.9-1.8,3.1-4.5,5.3ZM20.4,19c.2-.2,1.1-1.1,1.8-2,.8-.9,1.2-1.7,1.2-1.7,0,0,.1-.2.1-.4,0-.1-.2-.2-.2-.2,0,0-2,.8-2.8,1.6-.1,0-.3.5-.4.8,0,.2.5.9.1,1.9,0,.2,0,.2.1.1Z"/>
        <path class="cls-1" d="M24.7,16.1"/>
        <g>
          <path class="cls-1" d="M31.9,33.3c-.4.4-7.2,6.9-7.2,6.9.1,0,.4.3.4.3,0,0,6.2-6,6.7-6.4.1-.1.4-.4.5-.5l-.4-.4Z"/>
          <path class="cls-1" d="M44.7,25.3c0,0,.2,0,.3,0,0,0,.2,0,.3,0,0,0,0-.1,0-.1-.3,0-.9-.2-1.5-.5-.4.1-1.1.3-1.8.6-1,.4-3.1,1.7-7.5,5.8l.3.4c1.5-1.4,3.6-3.2,4.7-3.9,2-1.3,3.4-1.9,4.3-2.1.3,0,.7-.1,1-.1Z"/>
        </g>
        <g>
          <path class="cls-1" d="M40.4,22.1c-1.2-1.2-1.6-2.2-1.8-2.8,0,0,0,0,0,0,0,0,0,0,0,0,0,0,0,0,0,0-.1,1.3,0,1.8-.5,3.2-.5,1.1-1.3,2.5-2.4,3.8-.6.8-1.7,2-2.7,3.1l.7.8c0,0,.3-.3.5-.6,3.3-3.6,6.3-5.8,7.3-6.6-.4-.3-.7-.7-1-1Z"/>
          <path class="cls-1" d="M30.5,32c-1.4,1.6-2.8,3.2-3.2,3.6-.4.4-3.4,3.7-3.4,3.7,0,0,0,.1.2.2,0,.1.3.2.3.2,0,0,6.5-6.7,7-7.2l-.7-.7Z"/>
        </g>
        <path class="cls-1" d="M41.6,17.7s0,0,0-.1c-.3,0-.6,0-.7,0-.4.5.5,2,2.1,3.5,1.6,1.5,3.2,2.3,3.6,1.8.2-.2.1-.5-.1-1-2.3.3-4.9-2.8-4.9-4.2Z"/>
        <path class="cls-1" d="M48.7,18.3c-.2.3-.6.9-.8,1.1.2-.2.4-.8.1-2.1-.2-1-.3-1.3-.4-1.6,0-.2-.2-.1-.3,0-.1.1-.4.7-.4.7,0,.1,0,0-.5-1.4-.3-.9-.4-1.5-.4-1.9,0-.2,0-.3,0-.5,0-.1,0-.1-.3,0-.2,0-1.4.9-1.9,2.2-.3.7-.3,1.3-.4,1,0-.7,0-.7-.2-.7-.4.1-1.8.8-1.8,2.7s3,5,5.5,4.3c0,0,1.9-.4,1.9-2,0-1.7-.2-1.6-.2-1.6ZM48.1,20.4c0,.2-.4.6-1,.8-.6.3-1.4.3-1.8.2-1.8-.6-2.9-2.4-2.9-2.4-1.4-2.3.5-3.3.7-3.4,0,0-.2.8,0,1.3.1.5.4.8.5,1.1.2.5,0,.9-.2,1,0,0,0,0,.1,0,0,0,0,0,.1,0,.3-.2.5-.5.4-.8-.2-.7-.7-1.2,0-2.6.4-.9,1.2-1.8,1.3-1.8.1,0,.2-.2.2-.1,0,.1.2.8.2,1.2,0,.4.6,1.3.5,2.5-.1,1.2-2.1,2.5-2.4,2.6,0,0-.2.1-.3.1,0,0,0,0,0,0,0,0,1-.2,1.6-.7.6-.4,1.1-1,1.3-1.4.3-.6.5-1.6.5-1.6,0-.1.1-.1.1,0,0,0,.2.6.2.9,0,.1.1.6.1,1,0,.9-.3,1.3-.8,1.8-.3.2-.6.3-1,.4h-.1s0,0,0,.1c0,0,0,0,.1,0,.3.1.9.1,1.3-.1.2-.1.4-.3.8-.6.1-.1.3-.4.3-.3,0,.1,0,.5,0,.9Z"/>
      </g>
    </g>
  </g>
  <g>
    <path class="cls-1" d="M269.8,81.4c0-1.2.1-2.3.5-3.2.3-.9.7-1.7,1.2-2.2s1.1-1,1.8-1.3,1.4-.4,2.1-.4,1.4.1,2.1.4c.7.3,1.3.7,1.8,1.3s.9,1.3,1.2,2.2.5,2,.5,3.2-.1,2.3-.5,3.2c-.3.9-.7,1.7-1.2,2.2s-1.1,1-1.8,1.3-1.4.4-2.1.4-1.4-.1-2.1-.4c-.7-.3-1.3-.7-1.8-1.3s-.9-1.3-1.2-2.2c-.3-.9-.5-2-.5-3.2ZM272.4,81.4c0,1,0,1.8.2,2.4.1.7.4,1.2.6,1.6s.6.7.9.9.7.3,1.1.3.8,0,1.1-.3c.4-.2.7-.5.9-.9.3-.4.5-.9.6-1.6s.2-1.5.2-2.4,0-1.8-.2-2.4c-.1-.7-.4-1.2-.6-1.6s-.6-.7-.9-.9-.7-.3-1.1-.3-.8,0-1.1.3c-.4.2-.7.5-.9.9s-.5.9-.6,1.6c-.2.7-.2,1.5-.2,2.4Z"/>
    <path class="cls-1" d="M284,79.9h-1.7v-1.8h1.7v-2.1c0-.4,0-.7.1-1.1,0-.3.3-.6.5-.9s.5-.5.9-.6.9-.2,1.4-.2.6,0,1,0,.6.1.8.2v1.8c-.2,0-.4,0-.6-.1s-.3,0-.5,0c-.4,0-.6.1-.9.3-.2.2-.3.5-.3.9v1.8h1.9v1.8h-1.9v8.5h-2.5v-8.5h0Z"/>
    <path class="cls-1" d="M309.7,88.2c-.3.1-.6.2-1.1.3-.4,0-.9.1-1.4.1-.9,0-1.6-.1-2.2-.4-.6-.3-1.1-.7-1.5-1.1s-.7-1-.9-1.7-.3-1.3-.3-2.1.1-1.4.3-2.1.5-1.2.9-1.7.9-.9,1.5-1.1c.6-.3,1.4-.4,2.2-.4s.8,0,1.2.1.7.2,1,.3v2c-.4-.1-.6-.2-.9-.3s-.6-.2-1-.2c-1,0-1.6.3-2.1.9s-.6,1.4-.6,2.6,0,.9.2,1.3c.1.4.3.8.5,1.1s.5.6.9.7.8.3,1.2.3.6,0,1-.2.6-.2.8-.3v2Z"/>
    <path class="cls-1" d="M318.6,87.9c-.3.1-.7.2-1.2.4-.5.2-1.1.2-1.9.2s-1.5-.1-2.1-.4-1.1-.7-1.5-1.1-.7-1-.9-1.6c-.2-.6-.3-1.3-.3-2s.1-1.5.3-2.2.5-1.2.8-1.7c.4-.5.8-.9,1.3-1.2.5-.3,1.1-.4,1.8-.4s1.1,0,1.6.3.9.5,1.3.9.7,1,.9,1.7c.2.7.3,1.6.3,2.6v.5h-6c0,.9.2,1.6.6,2.1.4.5,1.1.8,2,.8s1.3,0,1.8-.3.7-.4,1-.5v2ZM316.7,82.4c0-1.8-.6-2.7-1.7-2.7s-.6,0-.8.2c-.2.2-.4.4-.6.6s-.3.6-.3.9c0,.3-.1.7-.1,1h3.6Z"/>
    <path class="cls-1" d="M324.7,83.3c0-1.1.1-1.9.4-2.6s.6-1.2,1.1-1.6.9-.7,1.5-.8c.5-.2,1.1-.2,1.6-.2s1,0,1.6.2c.5.2,1,.4,1.5.8.4.4.8.9,1.1,1.6s.4,1.6.4,2.6-.1,2-.4,2.7-.6,1.2-1.1,1.6c-.4.4-.9.7-1.5.8-.5.2-1.1.2-1.6.2s-1,0-1.6-.2-1-.4-1.5-.8-.8-.9-1.1-1.6c-.3-.7-.4-1.6-.4-2.7ZM327.2,83.3c0,.4,0,.8,0,1.3s.2.8.3,1.2.4.6.6.8.6.3,1,.3.7,0,1-.3.5-.5.6-.8.2-.7.3-1.2,0-.8,0-1.3,0-.8,0-1.3-.1-.8-.3-1.1-.4-.6-.6-.8-.6-.3-1-.3-.7,0-1,.3-.5.5-.6.8c-.1.3-.3.7-.3,1.1s0,.8,0,1.3Z"/>
    <path class="cls-1" d="M336.3,79.9h-1.7v-1.8h1.7v-2.1c0-.4,0-.7.1-1.1,0-.3.3-.6.5-.9s.5-.5.9-.6.9-.2,1.4-.2.6,0,1,0,.6.1.8.2v1.8c-.2,0-.4,0-.6-.1s-.3,0-.5,0c-.4,0-.6.1-.9.3-.2.2-.3.5-.3.9v1.8h1.9v1.8h-1.9v8.5h-2.5v-8.5h0Z"/>
    <path class="cls-1" d="M347.4,74.5h2.6v14h-2.6v-14Z"/>
    <path class="cls-1" d="M352.4,79.8c0-.3,0-.6,0-.9,0-.3,0-.6,0-.8h2.3c0,.3,0,.5,0,.8s0,.5,0,.8h0c0-.2.2-.3.4-.5.1-.2.3-.4.5-.6s.5-.3.8-.4c.3-.1.7-.2,1.1-.2s1.1,0,1.5.3c.4.2.7.5.9.8.2.3.4.8.5,1.2s.1.9.1,1.5v6.6h-2.5v-6.2c0-.8-.1-1.4-.3-1.7s-.6-.5-1.1-.5-.6,0-.8.2c-.2.1-.4.3-.5.5-.1.2-.2.5-.3.8,0,.3,0,.6,0,.9v6h-2.5v-8.6Z"/>
    <path class="cls-1" d="M363.7,79.9h-1.7v-1.8h1.7v-2.1c0-.4,0-.7.1-1.1,0-.3.3-.6.5-.9s.5-.5.9-.6.9-.2,1.4-.2.6,0,1,0,.6.1.8.2v1.8c-.2,0-.4,0-.6-.1s-.3,0-.5,0c-.4,0-.6.1-.9.3-.2.2-.3.5-.3.9v1.8h1.9v1.8h-1.9v8.5h-2.5v-8.5h0Z"/>
    <path class="cls-1" d="M369.1,83.3c0-1.1.1-1.9.4-2.6s.6-1.2,1.1-1.6.9-.7,1.5-.8c.5-.2,1.1-.2,1.6-.2s1,0,1.6.2c.5.2,1,.4,1.5.8.4.4.8.9,1.1,1.6s.4,1.6.4,2.6-.1,2-.4,2.7-.6,1.2-1.1,1.6c-.4.4-.9.7-1.5.8s-1.1.2-1.6.2-1,0-1.6-.2-1-.4-1.5-.8-.8-.9-1.1-1.6-.4-1.6-.4-2.7ZM371.7,83.3c0,.4,0,.8,0,1.3s.2.8.3,1.2.4.6.6.8.6.3,1,.3.7,0,1-.3.5-.5.6-.8.2-.7.3-1.2,0-.8,0-1.3,0-.8,0-1.3-.1-.8-.3-1.1-.4-.6-.6-.8-.6-.3-1-.3-.7,0-1,.3-.5.5-.6.8c-.1.3-.3.7-.3,1.1s0,.8,0,1.3Z"/>
    <path class="cls-1" d="M379.9,79.8c0-.3,0-.6,0-.9,0-.3,0-.6,0-.8h2.2c0,.3,0,.6,0,.9s0,.6,0,.9h0c0-.2.2-.4.3-.7.1-.2.3-.5.5-.7.2-.2.5-.4.8-.5s.6-.2,1-.2.1,0,.2,0c0,0,.1,0,.2,0v2.3c-.2,0-.5,0-.7,0s-.5,0-.8.1-.5.2-.7.4c-.2.2-.4.4-.5.8s-.2.7-.2,1.2v5.6h-2.5v-8.6h0Z"/>
    <path class="cls-1" d="M386.9,79.8c0-.4,0-.7,0-1,0-.3,0-.5,0-.7h2.5c0,.3,0,.5,0,.8s0,.5,0,.8h0c0-.2.2-.4.4-.6s.3-.4.5-.6c.2-.2.5-.3.7-.4s.6-.2,1-.2.8,0,1.1.2.5.3.7.4c.2.2.4.3.5.5.1.2.2.4.3.5.1-.2.3-.4.4-.6s.4-.4.6-.5c.2-.2.5-.3.8-.4s.6-.2,1-.2c.6,0,1,0,1.4.3s.7.5.9.8.4.8.5,1.3c.1.5.1,1.1.1,1.7v6.4h-2.5v-6.5c0-.6-.1-1.1-.3-1.4s-.5-.5-1-.5-.5,0-.7.2c-.2.1-.4.3-.5.5-.1.2-.2.4-.3.7s-.1.5-.1.8v6.2h-2.5v-6.5c0-.6-.1-1.1-.3-1.4s-.5-.5-1-.5-.5,0-.7.2c-.2.1-.4.3-.5.5-.1.2-.2.4-.3.7s-.1.5-.1.8v6.2h-2.5v-8.6h0Z"/>
    <path class="cls-1" d="M403,78.7c.4-.2.8-.3,1.3-.5s1.2-.3,2-.3,1.5,0,2,.3.9.5,1.2.8.5.8.6,1.3c.1.5.2,1.1.2,1.7v4.5c0,.4,0,.7,0,1s0,.6,0,.8h-2.2c0-.2-.1-.4-.1-.7,0-.2,0-.5,0-.7h0c-.3.4-.7.8-1.1,1.1s-1,.5-1.8.5-.8,0-1.2-.2-.7-.3-1-.6c-.3-.3-.5-.6-.7-.9-.2-.4-.3-.8-.3-1.3,0-.7.1-1.3.4-1.7.3-.4.6-.8,1.1-1.1.5-.3,1-.4,1.7-.6.7,0,1.4-.2,2.2-.2h.5v-.4c0-.2,0-.5-.1-.7s-.2-.4-.3-.6-.4-.3-.6-.4-.5-.2-.9-.2-.6,0-.9,0-.5.2-.8.2-.5.2-.7.3-.4.2-.5.3v-2ZM407.9,83.4h-.2c-1.1,0-1.9.1-2.5.4-.6.3-.9.8-.9,1.5s.1.8.4,1.1c.3.3.7.4,1.1.4.8,0,1.3-.3,1.6-.8.3-.5.5-1.2.5-2.2v-.6Z"/>
    <path class="cls-1" d="M413.2,76l2.5-.8v2.9h2.1v1.8h-2.1v5.3c0,.6.1.9.3,1.1s.5.3.8.3.4,0,.6,0,.3,0,.4-.2v1.8c-.2,0-.4.2-.7.2s-.6,0-1,0c-.9,0-1.6-.2-2.1-.7s-.8-1.2-.8-2.3v-5.6h-1.6v-1.8h1.6v-2.1Z"/>
    <path class="cls-1" d="M419.6,73.8h2.6v2.4h-2.6v-2.4ZM419.7,78.1h2.5v10.3h-2.5v-10.3Z"/>
    <path class="cls-1" d="M424,83.3c0-1.1.1-1.9.4-2.6s.6-1.2,1.1-1.6.9-.7,1.5-.8c.5-.2,1.1-.2,1.6-.2s1,0,1.6.2c.5.2,1,.4,1.5.8.4.4.8.9,1.1,1.6s.4,1.6.4,2.6-.1,2-.4,2.7-.6,1.2-1.1,1.6c-.4.4-.9.7-1.5.8s-1.1.2-1.6.2-1,0-1.6-.2-1-.4-1.5-.8-.8-.9-1.1-1.6c-.3-.7-.4-1.6-.4-2.7ZM426.5,83.3c0,.4,0,.8,0,1.3s.2.8.3,1.2.4.6.6.8.6.3,1,.3.7,0,1-.3.5-.5.6-.8.2-.7.3-1.2,0-.8,0-1.3,0-.8,0-1.3-.1-.8-.3-1.1-.4-.6-.6-.8-.6-.3-1-.3-.7,0-1,.3-.5.5-.6.8c-.1.3-.3.7-.3,1.1s0,.8,0,1.3Z"/>
    <path class="cls-1" d="M434.8,79.8c0-.3,0-.6,0-.9,0-.3,0-.6,0-.8h2.3c0,.3,0,.5,0,.8s0,.5,0,.8h0c0-.2.2-.3.4-.5.1-.2.3-.4.5-.6s.5-.3.8-.4c.3-.1.7-.2,1.1-.2s1.1,0,1.5.3c.4.2.7.5.9.8.2.3.4.8.5,1.2s.1.9.1,1.5v6.6h-2.5v-6.2c0-.8-.1-1.4-.3-1.7s-.6-.5-1.1-.5-.6,0-.8.2c-.2.1-.4.3-.5.5-.1.2-.2.5-.3.8,0,.3,0,.6,0,.9v6h-2.5v-8.6Z"/>
    <path class="cls-1" d="M451.8,76.5h-3.1v-2h8.8v2h-3.1v11.9h-2.6v-11.9Z"/>
    <path class="cls-1" d="M465.1,87.9c-.3.1-.7.2-1.2.4-.5.2-1.1.2-1.9.2s-1.5-.1-2.1-.4-1.1-.7-1.5-1.1-.7-1-.9-1.6-.3-1.3-.3-2,.1-1.5.3-2.2.5-1.2.8-1.7c.4-.5.8-.9,1.3-1.2.5-.3,1.1-.4,1.8-.4s1.1,0,1.6.3.9.5,1.3.9.7,1,.9,1.7c.2.7.3,1.6.3,2.6v.5h-6c0,.9.2,1.6.6,2.1.4.5,1.1.8,2,.8s1.3,0,1.8-.3.7-.4,1-.5v2ZM463.3,82.4c0-1.8-.6-2.7-1.7-2.7s-.6,0-.8.2-.4.4-.6.6-.3.6-.3.9c0,.3-.1.7-.1,1h3.6Z"/>
    <path class="cls-1" d="M474.5,88.2c-.3.1-.6.2-1.1.3s-.9.1-1.4.1c-.9,0-1.6-.1-2.2-.4-.6-.3-1.1-.7-1.5-1.1-.4-.5-.7-1-.9-1.7s-.3-1.3-.3-2.1.1-1.4.3-2.1.5-1.2.9-1.7.9-.9,1.5-1.1c.6-.3,1.4-.4,2.2-.4s.8,0,1.2.1.7.2,1,.3v2c-.4-.1-.6-.2-.9-.3s-.6-.2-1-.2c-1,0-1.6.3-2.1.9s-.6,1.4-.6,2.6,0,.9.2,1.3c.1.4.3.8.5,1.1s.5.6.9.7.8.3,1.2.3.6,0,1-.2.6-.2.8-.3v2Z"/>
    <path class="cls-1" d="M476.9,73.4h2.5v6h0c.1-.2.2-.3.4-.5.1-.2.3-.3.5-.5s.4-.3.7-.4c.3,0,.6-.1,1-.1.6,0,1.1,0,1.5.3.4.2.7.5.9.8.2.3.4.8.5,1.2s.1.9.1,1.5v6.6h-2.5v-6.2c0-.8-.1-1.4-.3-1.7s-.6-.5-1.1-.5-.6,0-.8.2c-.2.1-.4.3-.5.5-.1.2-.2.5-.3.8,0,.3,0,.6,0,.9v6h-2.5v-15Z"/>
    <path class="cls-1" d="M487.4,79.8c0-.3,0-.6,0-.9,0-.3,0-.6,0-.8h2.3c0,.3,0,.5,0,.8s0,.5,0,.8h0c0-.2.2-.3.4-.5.1-.2.3-.4.5-.6s.5-.3.8-.4c.3-.1.7-.2,1.1-.2s1.1,0,1.5.3c.4.2.7.5.9.8.2.3.4.8.5,1.2s.1.9.1,1.5v6.6h-2.5v-6.2c0-.8-.1-1.4-.3-1.7s-.6-.5-1.1-.5-.6,0-.8.2c-.2.1-.4.3-.5.5-.1.2-.2.5-.3.8,0,.3,0,.6,0,.9v6h-2.5v-8.6Z"/>
    <path class="cls-1" d="M497.3,83.3c0-1.1.1-1.9.4-2.6s.6-1.2,1.1-1.6.9-.7,1.5-.8c.5-.2,1.1-.2,1.6-.2s1,0,1.6.2c.5.2,1,.4,1.5.8.4.4.8.9,1.1,1.6s.4,1.6.4,2.6-.1,2-.4,2.7-.6,1.2-1.1,1.6c-.4.4-.9.7-1.5.8s-1.1.2-1.6.2-1,0-1.6-.2-1-.4-1.5-.8-.8-.9-1.1-1.6-.4-1.6-.4-2.7ZM499.9,83.3c0,.4,0,.8,0,1.3s.2.8.3,1.2.4.6.6.8.6.3,1,.3.7,0,1-.3.5-.5.6-.8.2-.7.3-1.2,0-.8,0-1.3,0-.8,0-1.3-.1-.8-.3-1.1-.4-.6-.6-.8-.6-.3-1-.3-.7,0-1,.3-.5.5-.6.8c-.1.3-.3.7-.3,1.1,0,.4,0,.8,0,1.3Z"/>
    <path class="cls-1" d="M508.4,73.4h2.5v15h-2.5v-15Z"/>
    <path class="cls-1" d="M512.8,83.3c0-1.1.1-1.9.4-2.6s.6-1.2,1.1-1.6.9-.7,1.5-.8c.5-.2,1.1-.2,1.6-.2s1,0,1.6.2c.5.2,1,.4,1.5.8.4.4.8.9,1.1,1.6s.4,1.6.4,2.6-.1,2-.4,2.7c-.3.7-.6,1.2-1.1,1.6-.4.4-.9.7-1.5.8s-1.1.2-1.6.2-1,0-1.6-.2-1-.4-1.5-.8c-.4-.4-.8-.9-1.1-1.6-.3-.7-.4-1.6-.4-2.7ZM515.3,83.3c0,.4,0,.8,0,1.3s.2.8.3,1.2.4.6.6.8.6.3,1,.3.7,0,1-.3.5-.5.6-.8.2-.7.3-1.2,0-.8,0-1.3,0-.8,0-1.3-.2-.8-.3-1.1c-.2-.3-.3-.6-.6-.8s-.6-.3-1-.3-.7,0-1,.3-.5.5-.6.8c-.2.3-.3.7-.3,1.1s0,.8,0,1.3Z"/>
    <path class="cls-1" d="M524,90c.3.2.7.3,1.2.6s1.1.3,1.8.3,1.1,0,1.4-.3.6-.4.8-.7.3-.7.4-1,0-.8,0-1.2v-1h0c-.1.2-.2.4-.4.6s-.3.4-.5.6-.5.3-.8.4c-.3.1-.7.2-1,.2s-.8,0-1.2-.2-.8-.4-1.2-.8-.7-.9-.9-1.6-.4-1.5-.4-2.6,0-1.4.2-2,.3-1.2.7-1.7c.3-.5.7-.9,1.2-1.2s1-.4,1.7-.4.7,0,1,.2.5.2.7.4c.2.2.4.3.6.6s.3.4.4.7h0c0-.3,0-.5,0-.8,0-.3,0-.5,0-.8h2.2c0,.3,0,.5,0,.8s0,.5,0,.8v7.6c0,.8,0,1.5-.2,2.2s-.4,1.3-.8,1.8-.8.9-1.5,1.1-1.4.4-2.3.4-1.5,0-2.2-.2c-.6-.2-1.1-.3-1.4-.4v-2.2ZM526,83.2c0,.6,0,1.1.1,1.6s.2.8.4,1.1.3.5.5.6.4.2.6.2c.8,0,1.3-.3,1.7-.8s.5-1.4.5-2.6-.2-1.9-.5-2.5-.8-.8-1.5-.8c-.7,0-1.1.3-1.4.9s-.4,1.4-.4,2.4Z"/>
    <path class="cls-1" d="M538.4,85.9h0l2-7.8h2.4l-3.2,10.4-.6,1.9c-.1.4-.2.7-.4,1-.2.3-.4.6-.6.8s-.5.4-.8.5-.7.2-1.1.2-.6,0-.9,0-.5-.1-.7-.2v-1.9c.3,0,.4,0,.6.1s.3,0,.5,0c.4,0,.7,0,.8-.3s.4-.6.5-1.2l.2-.9-3.4-10.4h2.6l2.1,7.8Z"/>
    <path class="cls-1" d="M291.4,79.9h-1.7v-1.8h1.7v-2.1c0-.4,0-.7.1-1.1,0-.3.3-.6.5-.9s.5-.5.9-.6c.4-.2.9-.2,1.4-.2s.6,0,1,0,.6.1.8.2v1.8c-.2,0-.4,0-.6-.1s-.3,0-.5,0c-.4,0-.6.1-.9.3-.2.2-.3.5-.3.9v1.8h1.9v1.8h-1.9v8.5h-2.5v-8.5h0Z"/>
    <path class="cls-1" d="M297.9,73.8h2.6v2.4h-2.6v-2.4ZM297.9,78.1h2.5v10.3h-2.5v-10.3Z"/>
  </g>
</svg>