<?xml version="1.0" encoding="utf-8"?>
<!-- Generator: Adobe Illustrator 26.3.1, SVG Export Plug-In . SVG Version: 6.00 Build 0)  -->
<svg version="1.1" id="Layer_1" xmlns="http://www.w3.org/2000/svg" xmlns:xlink="http://www.w3.org/1999/xlink" x="0px" y="0px"
	 viewBox="0 0 566.2 100.62" style="enable-background:new 0 0 566.2 100.62;" xml:space="preserve">
<g>
	<g>
		<path d="M270.92,10.26h9.73v2.7h-6.33v4.93h5.99v2.7h-5.99v5.46h6.6v2.7h-9.99V10.26z"/>
		<path d="M283.43,17.33c0-0.49-0.01-0.93-0.03-1.3c-0.02-0.37-0.04-0.68-0.08-0.93h3.29c0.02,0.35,0.04,0.71,0.07,1.07
			c0.03,0.36,0.04,0.72,0.04,1.07h0.05c0.12-0.27,0.29-0.54,0.49-0.82s0.44-0.53,0.72-0.76c0.27-0.22,0.6-0.41,0.97-0.56
			c0.37-0.15,0.79-0.23,1.27-0.23c0.58,0,1.07,0.08,1.46,0.24c0.39,0.16,0.72,0.35,0.98,0.57c0.27,0.22,0.47,0.46,0.62,0.72
			c0.15,0.26,0.28,0.47,0.38,0.65c0.16-0.23,0.34-0.47,0.56-0.73s0.46-0.49,0.76-0.7c0.29-0.21,0.63-0.39,1.01-0.53
			c0.38-0.14,0.83-0.21,1.34-0.21c0.74,0,1.37,0.13,1.87,0.38c0.5,0.26,0.91,0.62,1.21,1.09c0.3,0.47,0.52,1.04,0.65,1.71
			c0.13,0.67,0.2,1.42,0.2,2.25v8.43h-3.29v-8.61c0-0.85-0.14-1.48-0.41-1.91c-0.27-0.42-0.72-0.64-1.34-0.64
			c-0.37,0-0.69,0.08-0.97,0.24c-0.27,0.16-0.5,0.37-0.69,0.64c-0.19,0.27-0.33,0.57-0.42,0.93c-0.1,0.35-0.15,0.72-0.15,1.09v8.27
			h-3.29v-8.61c0-0.85-0.14-1.48-0.41-1.91c-0.27-0.42-0.72-0.64-1.34-0.64c-0.37,0-0.69,0.08-0.97,0.24
			c-0.27,0.16-0.5,0.37-0.69,0.64c-0.19,0.27-0.33,0.57-0.42,0.93c-0.1,0.35-0.15,0.72-0.15,1.09v8.27h-3.29V17.33z"/>
		<path d="M303.36,21.92c0-1.4,0.18-2.54,0.54-3.45c0.36-0.9,0.83-1.62,1.42-2.15c0.58-0.53,1.23-0.9,1.95-1.11s1.42-0.32,2.11-0.32
			c0.69,0,1.39,0.11,2.11,0.32c0.71,0.21,1.36,0.58,1.93,1.11c0.57,0.53,1.04,1.25,1.4,2.15c0.36,0.9,0.54,2.05,0.54,3.45
			c0,1.43-0.18,2.6-0.54,3.51c-0.36,0.91-0.83,1.63-1.4,2.16c-0.58,0.53-1.22,0.89-1.93,1.09c-0.72,0.19-1.42,0.29-2.11,0.29
			c-0.69,0-1.39-0.1-2.11-0.29s-1.36-0.56-1.95-1.09s-1.06-1.25-1.42-2.16C303.54,24.52,303.36,23.35,303.36,21.92z M306.76,21.92
			c0,0.57,0.04,1.13,0.11,1.7c0.07,0.57,0.21,1.07,0.41,1.52c0.2,0.45,0.47,0.81,0.81,1.09c0.33,0.27,0.77,0.41,1.3,0.41
			c0.53,0,0.96-0.14,1.3-0.41c0.33-0.27,0.6-0.64,0.79-1.09c0.19-0.45,0.33-0.96,0.4-1.52c0.07-0.56,0.11-1.13,0.11-1.7
			s-0.04-1.13-0.11-1.7c-0.07-0.56-0.2-1.07-0.4-1.51c-0.19-0.44-0.46-0.8-0.79-1.07c-0.34-0.27-0.77-0.41-1.3-0.41
			c-0.53,0-0.96,0.14-1.3,0.41c-0.34,0.27-0.61,0.63-0.81,1.07c-0.2,0.44-0.34,0.95-0.41,1.51
			C306.79,20.79,306.76,21.35,306.76,21.92z"/>
		<path d="M317.81,17.36c0-0.42-0.01-0.83-0.03-1.22s-0.04-0.73-0.08-1.03h2.97c0.02,0.41,0.04,0.82,0.07,1.25
			c0.03,0.42,0.04,0.84,0.04,1.25h0.05c0.11-0.26,0.25-0.56,0.42-0.87c0.18-0.32,0.41-0.61,0.69-0.87c0.28-0.27,0.62-0.49,1.01-0.68
			s0.84-0.28,1.35-0.28c0.11,0,0.2,0.01,0.29,0.03s0.18,0.04,0.27,0.05v3.07c-0.32-0.09-0.63-0.13-0.93-0.13
			c-0.34,0-0.67,0.06-1.01,0.17c-0.34,0.11-0.64,0.3-0.92,0.56c-0.27,0.26-0.49,0.6-0.66,1.03c-0.17,0.43-0.25,0.97-0.25,1.6v7.47
			h-3.29V17.36z"/>
		<path d="M332.49,25.42h0.05l2.62-10.31h3.18l-4.21,13.78l-0.77,2.46c-0.14,0.48-0.32,0.91-0.54,1.31s-0.49,0.74-0.79,1.03
			c-0.31,0.29-0.68,0.52-1.1,0.69c-0.42,0.17-0.91,0.25-1.46,0.25c-0.44,0-0.84-0.04-1.19-0.11c-0.35-0.07-0.65-0.15-0.9-0.24
			l0.19-2.52c0.19,0.07,0.39,0.13,0.58,0.19c0.19,0.05,0.42,0.08,0.66,0.08c0.49,0.02,0.87-0.13,1.13-0.45s0.49-0.83,0.7-1.54
			l0.24-1.17l-4.53-13.78h3.39L332.49,25.42z"/>
		<path d="M358.74,28.36c-0.35,0.19-0.9,0.35-1.63,0.48c-0.73,0.12-1.52,0.19-2.37,0.19c-1.41,0-2.65-0.24-3.71-0.73
			c-1.06-0.49-1.94-1.15-2.65-2c-0.71-0.85-1.24-1.85-1.6-3.01c-0.36-1.16-0.54-2.42-0.54-3.78c0-1.34,0.18-2.6,0.54-3.76
			c0.36-1.17,0.89-2.17,1.59-3.02c0.7-0.85,1.57-1.51,2.62-2s2.27-0.73,3.64-0.73c0.95,0,1.79,0.09,2.5,0.28
			c0.71,0.19,1.25,0.35,1.6,0.49l-0.19,3.05c-0.35-0.18-0.81-0.39-1.36-0.64c-0.56-0.25-1.27-0.37-2.13-0.37
			c-0.71,0-1.37,0.12-2,0.37c-0.63,0.25-1.18,0.64-1.66,1.18c-0.48,0.54-0.86,1.23-1.14,2.08c-0.28,0.85-0.42,1.87-0.42,3.07
			c0,1.2,0.14,2.23,0.42,3.07c0.28,0.85,0.66,1.54,1.14,2.08c0.48,0.54,1.03,0.93,1.66,1.18c0.63,0.25,1.29,0.37,2,0.37
			c0.83,0,1.52-0.09,2.08-0.27c0.56-0.18,1.03-0.41,1.42-0.69L358.74,28.36z"/>
		<path d="M370.82,28.09c-0.35,0.14-0.87,0.32-1.56,0.54s-1.53,0.33-2.52,0.33c-1.1,0-2.04-0.19-2.83-0.56
			c-0.8-0.37-1.45-0.87-1.96-1.48c-0.51-0.62-0.89-1.34-1.14-2.17c-0.25-0.83-0.37-1.7-0.37-2.62c0-1.02,0.13-1.97,0.38-2.85
			s0.63-1.64,1.11-2.29c0.49-0.65,1.08-1.17,1.78-1.54c0.7-0.37,1.48-0.56,2.35-0.56c0.74,0,1.44,0.12,2.09,0.36
			c0.65,0.24,1.23,0.64,1.74,1.21c0.5,0.57,0.9,1.31,1.19,2.24c0.29,0.93,0.44,2.09,0.44,3.48v0.64h-7.9c0,1.17,0.26,2.08,0.78,2.74
			c0.52,0.66,1.42,0.99,2.69,0.99c1.01,0,1.78-0.12,2.32-0.36c0.54-0.24,0.96-0.47,1.26-0.7L370.82,28.09z M368.33,20.75
			c0-2.42-0.76-3.63-2.28-3.63c-0.42,0-0.79,0.11-1.1,0.32c-0.31,0.21-0.57,0.49-0.77,0.82c-0.2,0.34-0.35,0.72-0.44,1.17
			c-0.09,0.44-0.13,0.88-0.13,1.33H368.33z"/>
		<path d="M373.76,17.36c0-0.42-0.01-0.83-0.03-1.22s-0.04-0.73-0.08-1.03h3.07c0.02,0.35,0.04,0.7,0.07,1.05
			c0.03,0.34,0.04,0.69,0.04,1.05h0.05c0.12-0.21,0.28-0.45,0.46-0.72c0.18-0.27,0.42-0.52,0.7-0.76c0.28-0.24,0.62-0.44,1.02-0.6
			c0.4-0.16,0.88-0.24,1.44-0.24c0.78,0,1.42,0.13,1.93,0.4s0.92,0.63,1.23,1.1c0.31,0.47,0.53,1.01,0.66,1.62
			c0.13,0.61,0.2,1.26,0.2,1.95v8.8h-3.29v-8.19c0-1.06-0.15-1.82-0.44-2.28c-0.29-0.46-0.77-0.69-1.44-0.69
			c-0.42,0-0.79,0.08-1.09,0.25c-0.3,0.17-0.54,0.4-0.73,0.69s-0.32,0.63-0.4,1.02c-0.08,0.39-0.12,0.8-0.12,1.25v7.95h-3.29V17.36z
			"/>
		<path d="M388.53,12.3l3.29-1.01v3.82h2.73v2.41h-2.73v7.08c0,0.74,0.13,1.24,0.38,1.5c0.26,0.26,0.62,0.38,1.1,0.38
			c0.3,0,0.55-0.03,0.76-0.09c0.2-0.06,0.37-0.13,0.49-0.2v2.33c-0.25,0.12-0.55,0.23-0.91,0.32c-0.36,0.09-0.79,0.13-1.29,0.13
			c-1.22,0-2.16-0.3-2.82-0.91c-0.66-0.61-0.99-1.63-0.99-3.06v-7.47h-2.17v-2.41h2.17V12.3z"/>
		<path d="M406.51,28.09c-0.35,0.14-0.87,0.32-1.56,0.54s-1.53,0.33-2.52,0.33c-1.1,0-2.04-0.19-2.83-0.56
			c-0.8-0.37-1.45-0.87-1.96-1.48c-0.51-0.62-0.89-1.34-1.14-2.17c-0.25-0.83-0.37-1.7-0.37-2.62c0-1.02,0.13-1.97,0.38-2.85
			s0.63-1.64,1.11-2.29c0.49-0.65,1.08-1.17,1.78-1.54c0.7-0.37,1.48-0.56,2.35-0.56c0.74,0,1.44,0.12,2.09,0.36
			c0.65,0.24,1.23,0.64,1.74,1.21c0.5,0.57,0.9,1.31,1.19,2.24c0.29,0.93,0.44,2.09,0.44,3.48v0.64h-7.9c0,1.17,0.26,2.08,0.78,2.74
			c0.52,0.66,1.42,0.99,2.69,0.99c1.01,0,1.78-0.12,2.32-0.36c0.54-0.24,0.96-0.47,1.26-0.7L406.51,28.09z M404.02,20.75
			c0-2.42-0.76-3.63-2.28-3.63c-0.42,0-0.79,0.11-1.1,0.32c-0.31,0.21-0.57,0.49-0.77,0.82c-0.2,0.34-0.35,0.72-0.44,1.17
			c-0.09,0.44-0.13,0.88-0.13,1.33H404.02z"/>
		<path d="M409.63,17.36c0-0.42-0.01-0.83-0.03-1.22s-0.04-0.73-0.08-1.03h2.97c0.02,0.41,0.04,0.82,0.07,1.25
			c0.03,0.42,0.04,0.84,0.04,1.25h0.05c0.11-0.26,0.25-0.56,0.42-0.87c0.18-0.32,0.41-0.61,0.69-0.87c0.28-0.27,0.62-0.49,1.01-0.68
			c0.39-0.19,0.84-0.28,1.35-0.28c0.11,0,0.2,0.01,0.29,0.03c0.09,0.02,0.18,0.04,0.26,0.05v3.07c-0.32-0.09-0.63-0.13-0.93-0.13
			c-0.34,0-0.67,0.06-1.01,0.17c-0.33,0.11-0.64,0.3-0.91,0.56c-0.27,0.26-0.49,0.6-0.66,1.03c-0.17,0.43-0.25,0.97-0.25,1.6v7.47
			h-3.29V17.36z"/>
		<path d="M425.91,17.52h-2.28v-2.41h2.28v-2.78c0-0.49,0.06-0.97,0.19-1.42c0.12-0.45,0.34-0.85,0.65-1.19
			c0.31-0.34,0.72-0.62,1.22-0.83c0.5-0.21,1.13-0.32,1.87-0.32c0.44,0,0.87,0.04,1.27,0.11c0.41,0.07,0.77,0.14,1.09,0.21
			l-0.13,2.38c-0.2-0.05-0.4-0.1-0.61-0.15c-0.21-0.04-0.44-0.07-0.69-0.07c-0.48,0-0.86,0.15-1.14,0.46
			c-0.28,0.31-0.42,0.72-0.42,1.23v2.36h2.49v2.41h-2.49v11.24h-3.29V17.52z"/>
		<path d="M432.94,21.92c0-1.4,0.18-2.54,0.54-3.45c0.36-0.9,0.83-1.62,1.42-2.15c0.58-0.53,1.23-0.9,1.95-1.11
			c0.72-0.21,1.42-0.32,2.11-0.32c0.69,0,1.39,0.11,2.11,0.32s1.36,0.58,1.93,1.11c0.57,0.53,1.04,1.25,1.4,2.15
			c0.36,0.9,0.54,2.05,0.54,3.45c0,1.43-0.18,2.6-0.54,3.51c-0.36,0.91-0.83,1.63-1.4,2.16c-0.57,0.53-1.22,0.89-1.93,1.09
			s-1.42,0.29-2.11,0.29c-0.69,0-1.39-0.1-2.11-0.29c-0.71-0.19-1.36-0.56-1.95-1.09s-1.06-1.25-1.42-2.16
			C433.12,24.52,432.94,23.35,432.94,21.92z M436.33,21.92c0,0.57,0.04,1.13,0.11,1.7c0.07,0.57,0.21,1.07,0.41,1.52
			c0.2,0.45,0.47,0.81,0.81,1.09c0.33,0.27,0.77,0.41,1.3,0.41c0.53,0,0.96-0.14,1.3-0.41s0.6-0.64,0.79-1.09
			c0.19-0.45,0.33-0.96,0.4-1.52c0.07-0.56,0.11-1.13,0.11-1.7s-0.04-1.13-0.11-1.7c-0.07-0.56-0.2-1.07-0.4-1.51
			c-0.19-0.44-0.46-0.8-0.79-1.07s-0.77-0.41-1.3-0.41c-0.53,0-0.96,0.14-1.3,0.41c-0.34,0.27-0.61,0.63-0.81,1.07
			c-0.2,0.44-0.34,0.95-0.41,1.51C436.36,20.79,436.33,21.35,436.33,21.92z"/>
		<path d="M447.28,17.36c0-0.42-0.01-0.83-0.03-1.22s-0.04-0.73-0.08-1.03h2.97c0.02,0.41,0.04,0.82,0.07,1.25
			c0.03,0.42,0.04,0.84,0.04,1.25h0.05c0.11-0.26,0.25-0.56,0.42-0.87c0.18-0.32,0.41-0.61,0.69-0.87c0.28-0.27,0.62-0.49,1.01-0.68
			c0.39-0.19,0.84-0.28,1.35-0.28c0.11,0,0.2,0.01,0.29,0.03c0.09,0.02,0.18,0.04,0.26,0.05v3.07c-0.32-0.09-0.63-0.13-0.93-0.13
			c-0.34,0-0.67,0.06-1.01,0.17c-0.33,0.11-0.64,0.3-0.91,0.56c-0.27,0.26-0.49,0.6-0.66,1.03c-0.17,0.43-0.25,0.97-0.25,1.6v7.47
			h-3.29V17.36z"/>
		<path d="M270.76,38.76h4.82c2.92,0,5.12,0.77,6.61,2.32s2.24,3.86,2.24,6.93c0,1.55-0.22,2.91-0.66,4.07
			c-0.44,1.16-1.06,2.12-1.84,2.89c-0.79,0.77-1.72,1.34-2.8,1.72c-1.08,0.38-2.26,0.57-3.55,0.57h-4.82V38.76z M274.16,54.66h1.14
			c0.95,0,1.78-0.15,2.48-0.46c0.7-0.31,1.27-0.76,1.72-1.34c0.45-0.58,0.79-1.29,1.01-2.11s0.33-1.74,0.33-2.74
			s-0.11-1.92-0.33-2.74c-0.22-0.82-0.56-1.52-1.01-2.11c-0.45-0.58-1.02-1.03-1.72-1.34c-0.7-0.31-1.52-0.46-2.48-0.46h-1.14V54.66
			z"/>
		<path d="M287.04,37.8h3.39v3.23h-3.39V37.8z M287.09,43.61h3.29v13.65h-3.29V43.61z"/>
		<path d="M293.94,59.37c0.39,0.21,0.94,0.46,1.66,0.74c0.72,0.28,1.51,0.42,2.37,0.42c0.78,0,1.4-0.12,1.87-0.37
			c0.47-0.25,0.83-0.57,1.09-0.97s0.43-0.86,0.52-1.38c0.09-0.52,0.13-1.05,0.13-1.58v-1.3h-0.05c-0.14,0.26-0.3,0.53-0.49,0.81
			c-0.19,0.27-0.42,0.52-0.7,0.74c-0.28,0.22-0.62,0.4-1.02,0.54s-0.86,0.21-1.39,0.21c-0.48,0-0.99-0.09-1.55-0.28
			s-1.07-0.53-1.55-1.03c-0.48-0.5-0.88-1.2-1.19-2.08c-0.32-0.88-0.48-2.01-0.48-3.39c0-0.94,0.09-1.83,0.26-2.69
			c0.18-0.86,0.46-1.61,0.86-2.25c0.4-0.64,0.91-1.16,1.52-1.55c0.62-0.39,1.38-0.58,2.28-0.58c0.5,0,0.93,0.07,1.3,0.2
			s0.7,0.3,0.98,0.52c0.28,0.21,0.53,0.46,0.74,0.74c0.21,0.28,0.41,0.57,0.58,0.88h0.11c0-0.35,0.01-0.71,0.04-1.06
			s0.05-0.71,0.07-1.06h2.97c-0.04,0.35-0.06,0.71-0.08,1.07c-0.02,0.36-0.03,0.72-0.03,1.07v10.07c0,1.06-0.09,2.04-0.28,2.94
			c-0.19,0.9-0.52,1.67-0.99,2.32c-0.48,0.64-1.12,1.15-1.93,1.51c-0.81,0.36-1.85,0.54-3.1,0.54c-1.1,0-2.05-0.11-2.86-0.32
			s-1.42-0.39-1.83-0.53L293.94,59.37z M296.54,50.28c0,0.79,0.06,1.48,0.17,2.05c0.11,0.57,0.27,1.05,0.48,1.42
			s0.43,0.64,0.69,0.82c0.26,0.18,0.53,0.26,0.81,0.26c1.04,0,1.78-0.38,2.23-1.13c0.44-0.75,0.66-1.9,0.66-3.46
			c0-1.43-0.24-2.52-0.73-3.27c-0.49-0.75-1.13-1.12-1.92-1.1c-0.87,0.02-1.48,0.41-1.84,1.17
			C296.72,47.81,296.54,48.89,296.54,50.28z"/>
		<path d="M308.05,37.8h3.39v3.23h-3.39V37.8z M308.1,43.61h3.29v13.65h-3.29V43.61z"/>
		<path d="M315.9,40.8l3.29-1.01v3.82h2.73v2.41h-2.73v7.08c0,0.74,0.13,1.24,0.38,1.5s0.62,0.38,1.1,0.38
			c0.3,0,0.55-0.03,0.75-0.09c0.2-0.06,0.37-0.13,0.49-0.2v2.33c-0.25,0.12-0.55,0.23-0.91,0.32s-0.79,0.13-1.29,0.13
			c-1.22,0-2.16-0.3-2.82-0.91c-0.66-0.61-0.99-1.63-0.99-3.06v-7.47h-2.17v-2.41h2.17V40.8z"/>
		<path d="M325.31,44.4c0.46-0.21,1.03-0.43,1.72-0.66c0.69-0.23,1.55-0.34,2.6-0.34c1.06,0,1.93,0.12,2.61,0.37
			c0.68,0.25,1.21,0.61,1.59,1.09c0.38,0.48,0.65,1.06,0.8,1.74c0.15,0.68,0.22,1.44,0.22,2.29v5.96c0,0.5,0.02,0.95,0.07,1.38
			c0.04,0.42,0.08,0.77,0.12,1.03h-2.97c-0.09-0.27-0.14-0.56-0.16-0.88c-0.02-0.32-0.03-0.64-0.03-0.98h-0.05
			c-0.41,0.57-0.9,1.05-1.48,1.46s-1.36,0.61-2.33,0.61c-0.53,0-1.04-0.09-1.54-0.27c-0.49-0.18-0.93-0.44-1.3-0.78
			c-0.37-0.34-0.67-0.76-0.9-1.26c-0.23-0.49-0.34-1.06-0.34-1.7c0-0.92,0.18-1.68,0.54-2.28s0.86-1.08,1.5-1.43
			c0.64-0.35,1.39-0.6,2.27-0.73c0.87-0.13,1.83-0.2,2.88-0.2h0.66v-0.5c0-0.34-0.04-0.66-0.13-0.98c-0.09-0.32-0.23-0.6-0.44-0.83
			s-0.46-0.43-0.78-0.57c-0.32-0.14-0.72-0.21-1.19-0.21c-0.41,0-0.8,0.04-1.18,0.13c-0.38,0.09-0.73,0.2-1.06,0.33
			c-0.33,0.13-0.62,0.28-0.87,0.44c-0.26,0.16-0.46,0.3-0.62,0.42L325.31,44.4z M331.78,50.58h-0.29c-1.41,0-2.51,0.18-3.3,0.54
			c-0.79,0.36-1.18,1.04-1.18,2.03c0,0.62,0.19,1.12,0.57,1.51c0.38,0.39,0.89,0.58,1.52,0.58c0.99,0,1.68-0.34,2.08-1.03
			c0.4-0.69,0.6-1.64,0.6-2.86V50.58z"/>
		<path d="M338.11,37.38h3.29v19.88h-3.29V37.38z"/>
		<path d="M352.73,53.68c0.33,0.21,0.85,0.46,1.54,0.73c0.69,0.27,1.48,0.41,2.38,0.41c0.37,0,0.72-0.05,1.06-0.16
			c0.34-0.11,0.64-0.27,0.9-0.49c0.26-0.22,0.47-0.5,0.62-0.83c0.15-0.34,0.22-0.73,0.22-1.19c0-0.34-0.05-0.63-0.15-0.88
			c-0.1-0.25-0.25-0.48-0.45-0.69c-0.2-0.21-0.46-0.41-0.76-0.61c-0.3-0.19-0.65-0.41-1.06-0.64l-1.72-0.95
			c-0.92-0.51-1.65-1.15-2.2-1.91c-0.55-0.76-0.82-1.74-0.82-2.94c0-0.83,0.16-1.56,0.48-2.19s0.74-1.15,1.27-1.58
			c0.53-0.42,1.15-0.74,1.85-0.95s1.45-0.32,2.23-0.32c0.99,0,1.81,0.09,2.48,0.27c0.66,0.18,1.13,0.31,1.39,0.4l-0.16,2.83
			c-0.41-0.16-0.89-0.33-1.44-0.52s-1.23-0.28-2.03-0.28c-0.85,0-1.49,0.2-1.92,0.61c-0.43,0.41-0.65,0.93-0.65,1.56
			c0,0.35,0.05,0.65,0.16,0.9c0.11,0.25,0.25,0.46,0.44,0.65s0.39,0.35,0.62,0.5c0.23,0.15,0.48,0.3,0.74,0.44l1.99,1.11
			c0.55,0.3,1.02,0.61,1.42,0.93c0.4,0.32,0.73,0.67,0.99,1.05c0.27,0.38,0.46,0.81,0.6,1.3c0.13,0.49,0.2,1.06,0.2,1.71
			c0,0.94-0.16,1.75-0.48,2.45c-0.32,0.7-0.75,1.28-1.31,1.74c-0.56,0.46-1.21,0.8-1.96,1.03c-0.75,0.23-1.57,0.34-2.45,0.34
			c-1.89,0-3.3-0.27-4.21-0.82L352.73,53.68z"/>
		<path d="M374.43,56.91c-0.39,0.14-0.86,0.27-1.4,0.38c-0.55,0.12-1.16,0.17-1.83,0.17c-1.13,0-2.1-0.19-2.9-0.56
			s-1.47-0.88-1.99-1.51c-0.52-0.64-0.91-1.38-1.15-2.23c-0.25-0.85-0.37-1.76-0.37-2.73s0.13-1.89,0.38-2.74
			c0.26-0.86,0.65-1.6,1.19-2.24s1.22-1.14,2.05-1.51c0.83-0.37,1.82-0.56,2.97-0.56c0.51,0,1.04,0.06,1.59,0.19
			c0.55,0.12,0.97,0.25,1.27,0.37l-0.19,2.6c-0.3-0.14-0.64-0.29-1.03-0.44c-0.39-0.15-0.81-0.23-1.27-0.23
			c-1.25,0-2.16,0.4-2.73,1.19c-0.57,0.79-0.85,1.93-0.85,3.39c0,0.64,0.08,1.23,0.23,1.78c0.15,0.55,0.38,1.02,0.69,1.43
			c0.31,0.41,0.7,0.72,1.17,0.95c0.47,0.23,1.02,0.34,1.66,0.34c0.41,0,0.84-0.08,1.3-0.23c0.46-0.15,0.8-0.29,1.03-0.44
			L374.43,56.91z"/>
		<path d="M376.94,37.38h3.29v7.98h0.08c0.14-0.21,0.3-0.43,0.49-0.66c0.19-0.23,0.41-0.44,0.66-0.64s0.57-0.35,0.93-0.48
			c0.36-0.12,0.8-0.19,1.31-0.19c0.78,0,1.42,0.13,1.93,0.4c0.51,0.26,0.92,0.63,1.23,1.1c0.31,0.47,0.53,1.01,0.66,1.62
			c0.13,0.61,0.2,1.26,0.2,1.95v8.8h-3.29v-8.19c0-1.06-0.15-1.82-0.44-2.28c-0.29-0.46-0.77-0.69-1.44-0.69
			c-0.42,0-0.79,0.08-1.09,0.25c-0.3,0.17-0.54,0.4-0.73,0.69c-0.19,0.29-0.32,0.63-0.4,1.02c-0.08,0.39-0.12,0.8-0.12,1.25v7.95
			h-3.29V37.38z"/>
		<path d="M390.04,50.42c0-1.4,0.18-2.54,0.54-3.45s0.83-1.62,1.42-2.15s1.23-0.9,1.95-1.11c0.72-0.21,1.42-0.32,2.11-0.32
			c0.69,0,1.39,0.11,2.11,0.32s1.36,0.58,1.93,1.11c0.57,0.53,1.04,1.25,1.4,2.15s0.54,2.05,0.54,3.45c0,1.43-0.18,2.6-0.54,3.51
			c-0.36,0.91-0.83,1.63-1.4,2.16c-0.57,0.53-1.22,0.89-1.93,1.09s-1.42,0.29-2.11,0.29c-0.69,0-1.39-0.1-2.11-0.29
			c-0.71-0.19-1.36-0.56-1.95-1.09c-0.58-0.53-1.06-1.25-1.42-2.16C390.22,53.02,390.04,51.85,390.04,50.42z M393.43,50.42
			c0,0.57,0.04,1.13,0.11,1.7c0.07,0.57,0.21,1.07,0.41,1.52c0.2,0.45,0.47,0.81,0.81,1.09c0.33,0.27,0.77,0.41,1.3,0.41
			c0.53,0,0.96-0.14,1.3-0.41c0.34-0.27,0.6-0.64,0.79-1.09c0.19-0.45,0.33-0.96,0.4-1.52c0.07-0.56,0.11-1.13,0.11-1.7
			s-0.04-1.13-0.11-1.7s-0.2-1.07-0.4-1.51c-0.19-0.44-0.46-0.8-0.79-1.07c-0.34-0.27-0.77-0.41-1.3-0.41
			c-0.53,0-0.96,0.14-1.3,0.41c-0.34,0.27-0.61,0.63-0.81,1.07c-0.2,0.44-0.34,0.95-0.41,1.51
			C393.47,49.29,393.43,49.85,393.43,50.42z"/>
		<path d="M404.52,37.38h3.29v19.88h-3.29V37.38z"/>
		<path d="M411.78,44.4c0.46-0.21,1.03-0.43,1.72-0.66c0.69-0.23,1.55-0.34,2.6-0.34c1.06,0,1.93,0.12,2.61,0.37
			c0.68,0.25,1.21,0.61,1.59,1.09c0.38,0.48,0.64,1.06,0.79,1.74c0.15,0.68,0.23,1.44,0.23,2.29v5.96c0,0.5,0.02,0.95,0.07,1.38
			c0.04,0.42,0.08,0.77,0.12,1.03h-2.97c-0.09-0.27-0.14-0.56-0.16-0.88c-0.02-0.32-0.03-0.64-0.03-0.98h-0.05
			c-0.41,0.57-0.9,1.05-1.48,1.46s-1.36,0.61-2.33,0.61c-0.53,0-1.04-0.09-1.54-0.27c-0.5-0.18-0.93-0.44-1.3-0.78
			s-0.67-0.76-0.9-1.26c-0.23-0.49-0.34-1.06-0.34-1.7c0-0.92,0.18-1.68,0.54-2.28s0.86-1.08,1.5-1.43c0.64-0.35,1.39-0.6,2.27-0.73
			c0.87-0.13,1.83-0.2,2.88-0.2h0.66v-0.5c0-0.34-0.04-0.66-0.13-0.98c-0.09-0.32-0.23-0.6-0.44-0.83s-0.46-0.43-0.78-0.57
			c-0.32-0.14-0.71-0.21-1.19-0.21c-0.41,0-0.8,0.04-1.18,0.13c-0.38,0.09-0.73,0.2-1.06,0.33c-0.33,0.13-0.62,0.28-0.87,0.44
			c-0.26,0.16-0.46,0.3-0.62,0.42L411.78,44.4z M418.25,50.58h-0.29c-1.41,0-2.51,0.18-3.3,0.54s-1.18,1.04-1.18,2.03
			c0,0.62,0.19,1.12,0.57,1.51c0.38,0.39,0.89,0.58,1.52,0.58c0.99,0,1.68-0.34,2.08-1.03c0.4-0.69,0.6-1.64,0.6-2.86V50.58z"/>
		<path d="M424.36,45.86c0-0.42-0.01-0.83-0.03-1.22s-0.04-0.73-0.08-1.03h2.97c0.02,0.41,0.04,0.82,0.07,1.25s0.04,0.84,0.04,1.25
			h0.05c0.11-0.26,0.25-0.56,0.42-0.87c0.18-0.32,0.41-0.61,0.69-0.87c0.28-0.27,0.62-0.49,1.01-0.68c0.39-0.19,0.84-0.28,1.35-0.28
			c0.11,0,0.2,0.01,0.29,0.03c0.09,0.02,0.18,0.04,0.26,0.05v3.07c-0.32-0.09-0.63-0.13-0.93-0.13c-0.34,0-0.67,0.06-1.01,0.17
			c-0.33,0.11-0.64,0.3-0.91,0.56c-0.27,0.26-0.49,0.6-0.66,1.03s-0.25,0.97-0.25,1.6v7.47h-3.29V45.86z"/>
		<path d="M433.12,54.07c0.12,0.05,0.3,0.13,0.53,0.23c0.23,0.1,0.5,0.2,0.8,0.3c0.3,0.11,0.63,0.19,0.98,0.27
			c0.35,0.07,0.72,0.11,1.11,0.11c0.6,0,1.1-0.09,1.51-0.28s0.61-0.54,0.61-1.07c0-0.26-0.09-0.53-0.28-0.79s-0.58-0.57-1.18-0.93
			l-1.35-0.79c-0.35-0.21-0.7-0.43-1.03-0.65c-0.33-0.22-0.64-0.48-0.93-0.77c-0.28-0.29-0.51-0.64-0.68-1.03
			c-0.17-0.4-0.25-0.86-0.25-1.39c0-0.48,0.11-0.94,0.33-1.4c0.22-0.46,0.53-0.87,0.94-1.23c0.41-0.36,0.9-0.66,1.48-0.89
			c0.58-0.23,1.24-0.34,1.96-0.34c0.88,0,1.63,0.08,2.25,0.24c0.62,0.16,1.01,0.26,1.17,0.32l-0.19,2.54
			c-0.41-0.16-0.84-0.3-1.3-0.42c-0.46-0.12-0.99-0.19-1.59-0.19c-0.67,0-1.15,0.12-1.44,0.36c-0.29,0.24-0.44,0.56-0.44,0.97
			c0,0.37,0.14,0.68,0.41,0.93c0.27,0.25,0.65,0.52,1.13,0.82l1.62,1.03c0.42,0.27,0.79,0.52,1.11,0.77
			c0.32,0.25,0.58,0.5,0.79,0.77c0.21,0.27,0.37,0.55,0.48,0.86c0.11,0.31,0.16,0.66,0.16,1.05c0,0.64-0.13,1.2-0.38,1.7
			c-0.26,0.5-0.61,0.91-1.06,1.26c-0.45,0.34-0.99,0.61-1.6,0.79c-0.62,0.19-1.3,0.28-2.04,0.28c-0.85,0-1.6-0.08-2.27-0.23
			c-0.66-0.15-1.17-0.3-1.52-0.44L433.12,54.07z"/>
		<path d="M444.15,37.38h3.29v7.98h0.08c0.14-0.21,0.3-0.43,0.49-0.66c0.19-0.23,0.41-0.44,0.66-0.64s0.57-0.35,0.93-0.48
			c0.36-0.12,0.8-0.19,1.31-0.19c0.78,0,1.42,0.13,1.93,0.4c0.51,0.26,0.92,0.63,1.23,1.1c0.31,0.47,0.53,1.01,0.66,1.62
			c0.13,0.61,0.2,1.26,0.2,1.95v8.8h-3.29v-8.19c0-1.06-0.15-1.82-0.44-2.28c-0.29-0.46-0.77-0.69-1.44-0.69
			c-0.42,0-0.79,0.08-1.09,0.25c-0.3,0.17-0.54,0.4-0.73,0.69c-0.19,0.29-0.32,0.63-0.4,1.02c-0.08,0.39-0.12,0.8-0.12,1.25v7.95
			h-3.29V37.38z"/>
		<path d="M457.85,37.8h3.39v3.23h-3.39V37.8z M458.05,43.61h3.29v13.65h-3.29V43.61z"/>
		<path d="M464.45,45.94c0-0.5-0.01-0.95-0.03-1.35s-0.04-0.73-0.08-0.98h3.07c0.04,0.19,0.06,0.48,0.08,0.86
			c0.02,0.38,0.03,0.8,0.03,1.26h0.08c0.12-0.28,0.29-0.57,0.49-0.85c0.2-0.28,0.45-0.53,0.73-0.75s0.62-0.4,1.02-0.53
			s0.86-0.2,1.39-0.2c0.85,0,1.58,0.19,2.19,0.57c0.61,0.38,1.1,0.89,1.48,1.52c0.38,0.64,0.66,1.38,0.85,2.23
			c0.19,0.85,0.28,1.75,0.28,2.7c0,2.24-0.42,3.98-1.25,5.21c-0.83,1.23-1.99,1.84-3.47,1.84c-0.5,0-0.93-0.06-1.31-0.19
			s-0.72-0.29-1.01-0.5c-0.29-0.21-0.54-0.45-0.73-0.7c-0.19-0.26-0.35-0.52-0.48-0.78h-0.05v7.68h-3.29V45.94z M467.73,50.47
			c0,0.67,0.05,1.29,0.15,1.84c0.1,0.56,0.25,1.04,0.45,1.44s0.46,0.72,0.78,0.95c0.32,0.23,0.71,0.34,1.17,0.34
			c0.92,0,1.56-0.41,1.92-1.23c0.36-0.82,0.54-1.91,0.54-3.27c0-1.59-0.16-2.78-0.49-3.56s-0.97-1.18-1.92-1.18
			c-0.48,0-0.88,0.12-1.22,0.37c-0.34,0.25-0.61,0.58-0.81,1.01s-0.35,0.92-0.44,1.48C467.78,49.23,467.73,49.83,467.73,50.47z"/>
	</g>
	<g>
		<polygon points="248.68,96.58 248.68,7.4 249.73,7.4 249.73,96.58 248.68,96.58 		"/>
		<g>
			<g>
				<g>
					<g>
						<path d="M89.39,54.5c0,2.75,1.78,4,4.1,4c3.23,0,3.96-2.13,3.96-4.16v-5.56c0-1.74-1.59-1.03-1.59-1.68
							c0-0.08,0.12-0.17,0.17-0.17c0.67,0,1.34,0.06,2.01,0.06c0.33,0,0.63-0.06,0.95-0.06c0.09,0,0.22,0.08,0.22,0.19
							c0,0.47-1.02,0.1-1.02,1.67v5.32c0,0.84,0.21,5.08-4.78,5.08c-4.51,0-5.36-2.52-5.36-5.17v-5.79c0-1.01-1.39-0.6-1.39-1.14
							c0-0.12,0.29-0.17,0.38-0.17c0.45,0,0.88,0.06,1.34,0.06c0.55,0,1.1-0.06,1.63-0.06c0.09,0,0.55-0.04,0.55,0.17
							c0,0.47-1.15,0-1.15,1.23V54.5z"/>
						<path d="M105.71,50.33c0-3.57-2.08-2.57-2.08-3.21c0-0.1,0.17-0.17,0.26-0.17c0.27,0,0.53,0.06,0.81,0.06
							c0.26,0,0.53-0.06,0.79-0.06c0.19,0,0.34,0.27,0.44,0.39l8.2,9.12c0.1,0.12,0.17,0.19,0.2,0.19c0.04,0,0.05-0.05,0.05-0.19
							v-7.18c0-2.25-1.91-1.6-1.91-2.17c0-0.12,0.09-0.17,0.19-0.17c0.52,0,1.01,0.06,1.57,0.06c0.58,0,1.32-0.06,1.73-0.06
							c0.1,0,0.17,0.05,0.17,0.15c0,0.45-1.01,0.14-1.01,1.39v9.95c0,0.5-0.02,0.74-0.16,0.74c-0.12,0-0.29-0.09-0.65-0.48
							l-7.4-8.32c-0.03-0.04-0.24-0.33-0.36-0.33c-0.07,0-0.12,0.05-0.12,0.4v7.02c0,1.54,1.51,0.95,1.51,1.41
							c0,0.08-0.02,0.22-0.19,0.22c-0.41,0-0.89-0.06-1.73-0.06c-0.6,0-1.49,0.06-1.61,0.06c-0.21,0-0.22-0.11-0.22-0.19
							c0-0.6,1.51,0.16,1.51-2.25V50.33z"/>
						<path d="M123.1,48.42c-0.01-1.25-1.39-0.91-1.39-1.29c0-0.16,0.03-0.19,0.17-0.19c0.64,0,1.25,0.06,1.89,0.06
							c0.53,0,1.06-0.06,1.6-0.06c0.28,0,0.33,0.03,0.33,0.17c0,0.41-1.24,0.02-1.24,1.31v9.21c0,1.17,1.53,0.77,1.53,1.29
							c0,0.12-0.05,0.17-0.34,0.17c-0.4,0-1.14-0.06-1.87-0.06c-1.05,0-1.41,0.06-1.65,0.06c-0.31,0-0.36-0.09-0.36-0.26
							c0-0.5,1.34,0.07,1.34-1.63V48.42z"/>
						<path d="M131.36,48.28c-0.43-1.03-1.33-0.71-1.33-1.09c0-0.16,0.09-0.24,0.24-0.24c0.53,0,1.07,0.05,1.58,0.05
							c0.47,0,1.11-0.05,1.36-0.05c0.1,0,0.24,0.07,0.24,0.17c0.02,0.24-0.71,0.26-0.71,0.88c0,0.24,0.09,0.51,0.15,0.67l3.01,7.08
							c0.37,0.91,0.5,1.3,0.69,1.3c0.17,0,0.22-0.27,0.31-0.48l2.99-7.37c0.1-0.26,0.31-0.81,0.24-1.17c0-0.79-1.1-0.46-1.1-0.86
							c0-0.17,0.09-0.22,0.26-0.22c0.38,0,0.76,0.05,1.13,0.05c0.83,0,1.08-0.05,1.32-0.05c0.19,0,0.29,0.07,0.29,0.22
							c0,0.38-0.48-0.05-0.96,1.1l-4.27,10.12c-0.19,0.43-0.31,1-0.57,1c-0.27,0-0.48-0.72-0.63-1.08L131.36,48.28z"/>
						<path d="M162.41,48.14c0-0.67,0.37-0.64,0.98-0.64c1.69,0,3.29,0.71,3.29,2.8c0,2.13-1.66,2.44-2.4,2.44
							c-0.81,0-1.88,0.08-1.88-0.24V48.14z M165.8,52.88c1.21-0.48,2.17-1.63,2.17-2.97c0-3.31-3.8-2.96-4.07-2.96
							c-0.9,0-1.88,0.06-2.87,0.06c-0.88,0-0.79-0.06-1.1-0.06c-0.21,0-0.34,0.1-0.34,0.2c0,0.58,1.48-0.12,1.48,1.53v8.73
							c0,1.31-1.25,1.06-1.25,1.5c0,0.1,0.07,0.19,0.17,0.19c0.65,0,1.31-0.06,1.96-0.06c1.43,0,1.82,0.06,1.97,0.06
							c0.14,0,0.29,0.03,0.29-0.14c0-0.59-1.79-0.05-1.79-1.53v-3.62c0-0.18-0.1-0.48,0.45-0.48c1.93,0,1.67-0.05,2.29,0.91l1.91,3
							c0.65,0.98,1.32,1.86,2.58,1.86c0.15,0,1.12,0,1.12-0.21c0-0.42-0.84,0.22-2.08-1.67L165.8,52.88z"/>
						<path d="M174.07,56.04c-0.07-0.34,0.02-0.54,0.19-0.54c0.25,0,0.25,0.21,0.34,0.57c0.2,0.79,1.23,2.58,3.6,2.58
							c1.65,0,3.25-0.91,3.25-2.71c0-3.31-7-1.46-7-5.94c0-2.18,1.83-3.24,3.82-3.24c2.09,0,2.66,0.62,2.9,0.62
							c0.16,0,0.19-0.19,0.36-0.19c0.1,0,0.19,0.05,0.21,0.24l0.25,2.33c0.02,0.14-0.02,0.26-0.19,0.26c-0.19,0-0.31-0.36-0.36-0.52
							c-0.52-1.47-1.78-2.23-3.3-2.23c-1.37,0-2.82,0.65-2.82,2.23c0,3.23,7,1.34,7,6.08c0,1.44-1,3.61-4.93,3.61
							c-1.28,0-2.84-0.64-2.91-0.95L174.07,56.04z"/>
						<path d="M188.89,48.42c-0.02-1.25-1.39-0.91-1.39-1.29c0-0.16,0.04-0.19,0.17-0.19c0.63,0,1.25,0.06,1.88,0.06
							c0.53,0,1.07-0.06,1.6-0.06c0.28,0,0.33,0.03,0.33,0.17c0,0.41-1.24,0.02-1.24,1.31v9.21c0,1.17,1.53,0.77,1.53,1.29
							c0,0.12-0.05,0.17-0.34,0.17c-0.4,0-1.13-0.06-1.87-0.06c-1.05,0-1.41,0.06-1.64,0.06c-0.31,0-0.36-0.09-0.36-0.26
							c0-0.5,1.34,0.07,1.34-1.63V48.42z"/>
						<path d="M200.74,48.68c0-0.12,0.07-0.77-0.17-0.79h-2.8c-1.07,0-1.1,0.25-1.41,1.2c-0.05,0.17-0.06,0.39-0.29,0.39
							c-0.1,0-0.18-0.12-0.18-0.21l0.19-1.66c0.02-0.21,0-0.67,0.31-0.67c1.34,0,2.67,0.06,4.88,0.06c3.11,0,4.69-0.06,5.03-0.06
							c0.4,0,0.49,0.1,0.51,0.49l0.08,1.37c0.02,0.17,0.04,0.38-0.19,0.38c-0.64,0,0.3-1.3-1.46-1.3h-2.46
							c-0.77,0-0.68-0.07-0.68,0.84v8.75c0,1.44,1.39,0.88,1.39,1.41c0,0.05,0.02,0.21-0.16,0.21c-0.41,0-0.89-0.06-1.39-0.06
							c-1.92,0-2.25,0.06-2.35,0.06c-0.16,0-0.21-0.05-0.21-0.22c0-0.41,1.36-0.24,1.36-1.27V48.68z"/>
						<path d="M211.37,48.03c-0.45-0.74-1.29-0.53-1.29-0.82c0-0.12,0.1-0.26,0.22-0.26c0.46,0,0.79,0.05,1.96,0.05
							c0.57,0,1.03-0.05,1.21-0.05c0.12,0,0.32,0.02,0.32,0.17c0,0.29-0.8,0.31-0.8,0.81c0,0.27,0.2,0.55,0.3,0.7l2.08,3.31
							c0.14,0.21,0.24,0.31,0.34,0.31c0.09,0,0.19-0.12,0.32-0.35l1.77-2.86c0.12-0.19,0.36-0.48,0.36-0.94
							c0-0.84-1.29-0.48-1.29-0.89c0-0.22,0.17-0.26,0.37-0.26c0.41,0,0.84,0.05,1.25,0.05c0.5,0,0.99-0.05,1.49-0.05
							c0.1,0,0.19,0.12,0.19,0.2c0,0.19-0.29,0.26-0.41,0.33c-0.46,0.27-0.69,0.75-0.96,1.18l-2.4,3.74
							c-0.28,0.43-0.42,0.52-0.42,0.77v4.2c0,1.49,1.41,1.01,1.41,1.54c0,0.16-0.15,0.17-0.39,0.17c-0.26,0-1.25-0.06-1.89-0.06
							c-0.78,0-1.39,0.06-1.54,0.06c-0.16,0-0.26-0.02-0.26-0.21c0-0.48,1.32-0.03,1.32-1.25v-4.15c0-0.33-0.26-0.67-0.4-0.87
							L211.37,48.03z"/>
						<path d="M148.73,51.85c0,0.59-0.04,0.59,0.65,0.59h1.85c1.78,0,1.32-1.38,1.73-1.38c0.13,0,0.18,0.19,0.18,0.33
							c0,0.6-0.03,1.19-0.03,1.74c0,0.45,0.03,0.89,0.03,1.35c0,0.15-0.07,0.22-0.18,0.22c-0.52,0,0.05-1.51-1.38-1.51h-2.54
							c-0.36,0-0.31,0.29-0.31,0.55v3.15c0,1.01-0.14,1.42,1.3,1.42c3.95,0,4.53-1.77,4.76-1.77c0.12,0,0.14,0.17,0.14,0.21
							c0,0.61-0.45,1.21-0.86,1.66c-0.55,0.61-0.93,0.58-1.67,0.58c-1.3,0-2.6-0.1-3.91-0.06c-0.69,0.02-1.41,0.06-2.1,0.06
							c-0.15,0-0.26-0.03-0.26-0.17c0.03-0.2,0.21-0.17,0.75-0.44c0.45-0.2,0.48-0.69,0.48-1.49v-7.84c0-0.78,0-1.61-0.93-1.75
							c-0.14-0.03-0.52-0.07-0.52-0.26c0-0.14,0.1-0.21,0.61-0.21c3.23,0,4.13,0.05,4.85,0.05c0.35,0,1.91-0.05,2.44-0.05
							c0.14,0,0.17,0.17,0.17,0.38c0,1.91-0.24,2.05-0.34,2.05c-0.41,0-0.14-0.82-0.41-1.22c-0.44-0.59-2.22-0.48-2.9-0.48
							c-1.65,0-1.61-0.07-1.61,1.08V51.85z"/>
					</g>
				</g>
			</g>
		</g>
		<g>
			<path d="M158.48,10.6c8.08,0,13.17,7.33,13.17,14.86c0,7.66-4.85,12.5-10.9,12.5c-8.2,0-13.21-7.41-13.21-15.07
				C147.55,16.35,151.52,10.6,158.48,10.6z M159.02,39.22c9.23,0,15.64-6.01,15.64-15.33c0-8.57-6.49-14.66-14.94-14.66
				c-8.49,0-15.19,6.26-15.19,14.87C144.54,32.83,150.03,39.22,159.02,39.22z"/>
			<path d="M183.02,12.46c0-1.57,0.84-1.49,2.29-1.49c3.95,0,7.69,1.65,7.69,6.55c0,4.98-3.86,5.71-5.59,5.71
				c-1.89,0-4.38,0.2-4.38-0.56V12.46z M190.95,23.55c2.83-1.12,5.08-3.81,5.08-6.95c0-7.76-8.9-6.96-9.55-6.96
				c-2.1,0-4.38,0.16-6.69,0.16c-2.05,0-1.85-0.16-2.57-0.16c-0.48,0-0.8,0.24-0.8,0.48c0,1.37,3.45-0.28,3.45,3.58v20.45
				c0,3.06-2.94,2.49-2.94,3.51c0,0.24,0.17,0.44,0.4,0.44c1.53,0,3.05-0.16,4.57-0.16c3.34,0,4.26,0.16,4.62,0.16
				c0.32,0,0.68,0.08,0.68-0.32c0-1.37-4.18-0.12-4.18-3.59V25.7c0-0.4-0.24-1.13,1.04-1.13c4.51,0,3.91-0.12,5.36,2.13l4.47,7.05
				c1.53,2.29,3.1,4.35,6.03,4.35c0.37,0,3.55,0,3.55-0.48c0-0.97-2.9,0.52-5.8-3.91L190.95,23.55z"/>
			<path d="M202.69,12.17c-1.04-1.73-3.01-1.25-3.01-1.93c0-0.28,0.24-0.61,0.53-0.61c1.08,0,1.84,0.17,4.58,0.17
				c1.32,0,2.41-0.17,2.81-0.17c0.28,0,0.76,0.04,0.76,0.4c0,0.68-1.88,0.72-1.88,1.89c0,0.64,0.48,1.29,0.72,1.65l4.85,7.77
				c0.32,0.48,0.56,0.72,0.8,0.72c0.19,0,0.43-0.28,0.75-0.8l4.14-6.72c0.28-0.44,0.85-1.13,0.85-2.21c0-1.97-3.01-1.13-3.01-2.09
				c0-0.52,0.39-0.61,0.84-0.61c0.96,0,1.97,0.17,2.93,0.17c1.16,0,2.33-0.17,3.49-0.17c0.24,0,0.45,0.29,0.45,0.48
				c0,0.45-0.68,0.6-0.96,0.77c-1.08,0.64-1.6,1.77-2.25,2.78l-5.62,8.77c-0.64,1-0.96,1.21-0.96,1.81v9.85c0,3.5,3.3,2.37,3.3,3.62
				c0,0.36-0.37,0.4-0.92,0.4c-0.61,0-2.94-0.18-4.41-0.18c-1.8,0-3.25,0.18-3.61,0.18c-0.36,0-0.6-0.04-0.6-0.48
				c0-1.13,3.09-0.08,3.09-2.94v-9.73c0-0.76-0.6-1.57-0.92-2.05L202.69,12.17z"/>
			<path d="M139.96,34.39c0.2,3.37,3.17,1.89,3.17,3.29c0,0.4-0.53,0.4-0.96,0.4c-0.77,0-2.17-0.18-3.77-0.18
				c-1.24,0-2.53,0.18-3.48,0.18c-0.36,0-0.44-0.2-0.44-0.36c0-1.21,2.53-0.32,2.49-3.29l-1.09-15.58c0-1.01-0.2-1.57-0.44-1.57
				c-0.29,0-0.65,0.36-1.05,1.21l-8.32,16.94c-0.2,0.36-0.84,2.01-1.25,2.01c-0.4,0-0.68-0.88-0.8-1.17l-8.56-17.91
				c-0.13-0.32-0.33-0.44-0.49-0.44c-0.12,0-0.24,0.2-0.27,0.6l-1.18,14.09c-0.2,5.34,3.61,3.57,3.61,5.02
				c0,0.4-0.44,0.44-1.01,0.44c-0.52,0-2.33-0.18-3.51-0.18c-2.09,0-2.77,0.18-3.55,0.18c-0.29,0-0.4-0.2-0.4-0.48
				c0-1.37,2.57,0.28,2.85-3.9c0.49-6.56,0.97-10.82,0.97-15.08c0-9.45-3.11-7.2-3.11-8.57c0-0.36,0.32-0.44,0.68-0.44
				c0.72,0,1.44,0.18,2.21,0.18c0.72,0,1.44-0.18,2.14-0.18c0.57,0,0.64,0.68,0.85,1.13l9.59,20.43c0.45,0.84,0.6,1.21,0.89,1.21
				c0.2,0,0.6-0.84,1.25-2.17l9.59-19.23c0.23-0.44,0.55-1.41,1.03-1.37c0.4,0,1.68,0.18,1.88,0.18c0.93,0,1.29-0.18,1.93-0.18
				c0.24,0,0.4,0.24,0.4,0.48c0,1.29-3.22-0.44-3.05,4.35L139.96,34.39z"/>
			<path d="M91.11,21.36c0,1.37-0.08,1.37,1.52,1.37h4.33c4.16,0,3.09-3.22,4.04-3.22c0.32,0,0.44,0.44,0.44,0.76
				c0,1.41-0.05,2.78-0.05,4.05c0,1.05,0.05,2.09,0.05,3.18c0,0.36-0.16,0.52-0.44,0.52c-1.24,0,0.12-3.54-3.24-3.54h-5.94
				c-0.84,0-0.72,0.69-0.72,1.29v7.4c0,2.37-0.32,3.34,3.05,3.34c9.25,0,10.61-4.14,11.13-4.14c0.28,0,0.32,0.4,0.32,0.48
				c0,1.45-1.04,2.86-2,3.91c-1.29,1.46-2.17,1.38-3.92,1.38c-3.05,0-6.09-0.25-9.14-0.17c-1.6,0.04-3.28,0.17-4.88,0.17
				c-0.36,0-0.6-0.08-0.6-0.41c0.08-0.49,0.48-0.41,1.77-1.06c1.04-0.48,1.13-1.61,1.13-3.5V14.84c0-1.81,0-3.75-2.17-4.07
				c-0.32-0.08-1.2-0.16-1.2-0.62c0-0.32,0.24-0.48,1.4-0.48c7.56,0,9.65,0.17,11.34,0.17c0.8,0,4.48-0.17,5.72-0.17
				c0.32,0,0.4,0.4,0.4,0.88c0,4.47-0.56,4.79-0.8,4.79c-0.97,0-0.32-1.93-0.97-2.86c-1.03-1.37-5.2-1.13-6.8-1.13
				c-3.85,0-3.77-0.16-3.77,2.54V21.36z"/>
		</g>
		<g>
			<g>
				<path d="M32.66,61.64C6.27,49.44,9.43,22.18,9.45,9.44l46.69,0.05C56.13,22.23,59.06,49.49,32.66,61.64z M9.44,7.34L7.43,9.46
					c-0.02,1.52-0.06,3.44-0.07,4.38C7.17,28.81,8.18,52.09,32.54,63.36c12.89-5.97,22.64-16.23,25.2-32.14
					c1.49-9.21,0.6-17.97,0.61-23.85L9.44,7.34z"/>
			</g>
			<g>
				<path d="M22.68,40.8c-1.87,2-3.72,3.98-4.34,4.64c-0.14,0.15-0.16,0.31-0.07,0.41c0.13,0.14,0.3,0.32,0.37,0.33
					c0.12,0.03,0.2,0.08,0.4-0.14c0.08-0.09,2.14-2.08,4.57-4.42c0,0-0.24-0.12-0.46-0.31C22.93,41.12,22.68,40.8,22.68,40.8z"/>
				<g>
					<path d="M23.93,40.27c0.48,0.46,1.25,0.91,1.25,0.91l-0.43,0.41c-0.16,0.18-0.76-0.1-1.35-0.62c-0.58-0.52-0.92-1.09-0.76-1.26
						l0.48-0.43C23.13,39.28,23.46,39.81,23.93,40.27z"/>
				</g>
				<g>
					<g>
						<g>
							<path d="M45.26,45.42c0.38-0.39,0.4-0.74,0.4-0.74l0.42,0.21c0.12,0.13,0.02,0.62-0.37,1.01c-0.39,0.38-0.92,0.51-1.05,0.38
								l-0.22-0.45C44.44,45.81,44.86,45.82,45.26,45.42z"/>
						</g>
					</g>
					<g>
						<g>
							<path d="M44.62,44.73c0.25-0.23,0.34-0.53,0.34-0.53l0.27,0.19c0.09,0.1,0.01,0.41-0.28,0.68c-0.29,0.28-0.68,0.38-0.77,0.28
								l-0.16-0.3C44.03,45.05,44.37,44.96,44.62,44.73z"/>
						</g>
					</g>
				</g>
			</g>
			<g>
				<path d="M45.92,23.42l-0.5,0.44c-0.68,0.26-2.22-0.92-3.44-1.98c-0.81-0.71-2.44-2.51-1.98-3.23l0.2-0.21
					c-0.15-0.09-0.27-0.16-0.37-0.21c-0.14-0.07-0.32-0.12-0.52-0.1c-0.19,0.02-0.35,0.1-0.36,0.26c-0.04,0.33,0.15,0.75,0.41,1.26
					c0.26,0.51,1.27,1.98,3.31,3.61c0.93,0.74,2,1.2,2.77,1.48c0.14,0.05,0.62,0.15,0.83-0.06c0.21-0.21-0.02-0.59-0.19-0.95
					C46.06,23.63,46,23.53,45.92,23.42z"/>
			</g>
			<path d="M44.94,18.71"/>
			<path d="M43.94,18.26"/>
			<path d="M24.75,15.81c0,0.15,0,0.32,0,0.5c0,0.49,0.45,4.59,2.82,7.55c2.04,2.55,8.21,9.9,9.19,11.07
				c0.92,1.09,6.97,8.17,7.73,9.06c0.03,0.04,0.07,0.08,0.08,0.1c0,0.01-0.08,0.19-0.26,0.34c-0.19,0.15-0.4,0.17-0.4,0.17
				c-0.02-0.02-0.16-0.16-0.18-0.19c-0.22-0.26-10.67-10.71-11.69-11.69c-1.02-0.98-6.4-6.19-8.62-7.62
				c-1.92-1.23-2.79-1.92-4.91-2.09c0,0-1.5-0.05-1.6-0.13c-0.02-0.01,0.01-0.08,0.04-0.09c0.93-0.38,2.96-1.56,4.56-3.09
				c2.25-2.13,2.96-3.63,3.08-3.86C24.62,15.77,24.75,15.76,24.75,15.81z M26.22,24.66c-2.17-2.16-3-2.66-3.98-3.08
				c-0.51-0.22-1.01-0.38-1.16-0.33c-0.43,0.16-1.07,0.44-1.46,0.79c-0.29,0.26-0.26,0.38-0.1,0.46c0.16,0.08,1.26,0.32,2.26,0.86
				c1.76,0.94,5.06,3.24,12.27,10.68c3.66,3.78,9.42,9.64,9.42,9.64l0.15-0.12c0,0-8.38-9.4-14.92-16.35
				C27.77,26.23,26.95,25.39,26.22,24.66z"/>
			<path d="M45.75,23.33"/>
			<path d="M19.77,20.2c-0.96,0.8-2.15,1.54-3.2,1.96c-0.66,0.27-1.6-0.03-0.93-1.31c0.2-0.39,0.5-0.87,0.9-1.4
				c1.26-1.67,3.51-3.73,5.69-4.91c0.66-0.36,1.27-0.59,1.55-0.57c0.54,0.03,0.57,0.49,0.47,0.92
				C24.03,15.83,22.45,17.95,19.77,20.2z M20.44,18.97c0.24-0.21,1.11-1.09,1.84-1.96c0.77-0.91,1.18-1.72,1.18-1.72
				s0.12-0.25,0.1-0.43c-0.02-0.14-0.16-0.19-0.21-0.24c-0.08-0.07-1.97,0.78-2.8,1.55c-0.1,0.09-0.28,0.48-0.36,0.75
				c-0.07,0.24,0.55,0.9,0.14,1.91C20.27,18.99,20.4,19.01,20.44,18.97z"/>
			<path d="M24.73,16.08"/>
			<g>
				<path d="M31.87,33.3c-0.44,0.41-7.23,6.93-7.23,6.93c0.1,0.1,0.39,0.31,0.39,0.31s6.23-5.99,6.7-6.42
					c0.13-0.12,0.4-0.37,0.5-0.46L31.87,33.3z"/>
				<path d="M44.67,25.27c0.1-0.01,0.2-0.02,0.29-0.02c0.1-0.01,0.23-0.03,0.26-0.05c0.06-0.04,0.09-0.11-0.02-0.11
					c-0.32-0.01-0.9-0.17-1.55-0.48c-0.4,0.11-1.06,0.29-1.83,0.63c-0.98,0.44-3.12,1.72-7.51,5.75l0.34,0.4
					c1.52-1.37,3.56-3.17,4.66-3.89c1.96-1.28,3.38-1.85,4.33-2.08C43.92,25.35,44.35,25.3,44.67,25.27z"/>
			</g>
			<g>
				<path d="M40.39,22.08c-1.21-1.25-1.59-2.16-1.78-2.82c-0.01-0.02-0.02-0.05-0.02-0.06c-0.01-0.01-0.06-0.02-0.07,0.03
					c-0.01,0.03-0.02,0.06-0.02,0.08c-0.11,1.3,0.01,1.84-0.53,3.16c-0.46,1.11-1.26,2.51-2.37,3.8c-0.64,0.75-1.72,1.97-2.72,3.11
					l0.7,0.83c0.07-0.08,0.29-0.31,0.54-0.59c3.35-3.58,6.26-5.8,7.31-6.57C41.06,22.74,40.71,22.4,40.39,22.08z"/>
				<path d="M30.47,32.02c-1.41,1.6-2.83,3.17-3.25,3.63c-0.35,0.39-3.44,3.71-3.44,3.71s0.07,0.13,0.17,0.24
					c0.09,0.11,0.26,0.25,0.26,0.25s6.48-6.65,6.97-7.16L30.47,32.02z"/>
			</g>
			<path d="M41.58,17.68c0-0.05,0.01-0.09,0.01-0.14c-0.34-0.09-0.6-0.08-0.73,0.07c-0.42,0.46,0.52,2.02,2.1,3.49
				c1.59,1.47,3.22,2.29,3.64,1.83c0.17-0.18,0.12-0.55-0.11-1.01C44.18,22.18,41.58,19.16,41.58,17.68z"/>
			<path d="M48.72,18.27c-0.22,0.26-0.61,0.86-0.83,1.06c0.25-0.22,0.39-0.75,0.12-2.15c-0.19-0.98-0.31-1.31-0.44-1.63
				c-0.07-0.18-0.18-0.14-0.31,0c-0.12,0.14-0.42,0.65-0.43,0.68c-0.03,0.12,0,0.01-0.46-1.41c-0.29-0.9-0.41-1.53-0.4-1.85
				c0.01-0.17,0.02-0.34,0.02-0.47c0.01-0.11-0.06-0.11-0.34,0.02c-0.15,0.06-1.37,0.91-1.87,2.18c-0.29,0.74-0.31,1.34-0.36,0.97
				c-0.09-0.72-0.07-0.71-0.15-0.69c-0.4,0.13-1.81,0.77-1.81,2.67c0,1.62,3.04,5.04,5.51,4.27c0,0,1.87-0.36,1.91-2.05
				C48.92,18.19,48.72,18.27,48.72,18.27z M48.11,20.37c-0.1,0.17-0.44,0.61-0.97,0.84c-0.59,0.26-1.37,0.3-1.77,0.17
				c-1.82-0.56-2.92-2.42-2.92-2.42c-1.43-2.32,0.49-3.31,0.65-3.35c0,0-0.2,0.76-0.08,1.28c0.11,0.46,0.39,0.82,0.47,1.08
				c0.18,0.51-0.07,0.87-0.18,1.03c-0.07,0.09,0.1,0.04,0.14,0.01c0.03-0.02,0.05-0.05,0.11-0.09c0.26-0.2,0.51-0.5,0.43-0.83
				c-0.17-0.72-0.68-1.17-0.07-2.65c0.37-0.9,1.24-1.79,1.32-1.84c0.14-0.09,0.22-0.21,0.23-0.11c0,0.1,0.16,0.76,0.24,1.2
				c0.08,0.43,0.58,1.31,0.47,2.53c-0.11,1.22-2.1,2.55-2.37,2.63c-0.09,0.03-0.23,0.11-0.27,0.14c-0.07,0.07,0.03,0.08,0.08,0.09
				c0.1,0.02,0.95-0.18,1.63-0.66c0.57-0.4,1.11-0.99,1.3-1.35c0.35-0.65,0.52-1.56,0.55-1.65c0.06-0.14,0.12-0.13,0.13-0.06
				c0.02,0.07,0.16,0.61,0.21,0.88c0.03,0.15,0.12,0.57,0.12,1.04c0.01,0.91-0.26,1.34-0.8,1.75c-0.31,0.24-0.64,0.32-1.01,0.36
				l-0.13,0.02c-0.05,0.01-0.1,0.02,0.01,0.08c0.03,0.02,0.08,0.03,0.13,0.05c0.3,0.14,0.94,0.12,1.35-0.13
				c0.19-0.12,0.44-0.3,0.78-0.63c0.13-0.12,0.3-0.35,0.32-0.27C48.25,19.62,48.28,20.03,48.11,20.37z"/>
		</g>
	</g>
</g>
<g>
	<path d="M269.75,81.45c0-1.25,0.15-2.33,0.46-3.24c0.31-0.91,0.72-1.65,1.23-2.23c0.51-0.58,1.11-1.01,1.78-1.29
		c0.67-0.28,1.37-0.42,2.09-0.42c0.72,0,1.42,0.14,2.09,0.42c0.67,0.28,1.27,0.71,1.78,1.29c0.51,0.58,0.92,1.32,1.23,2.23
		c0.31,0.91,0.46,1.99,0.46,3.24s-0.15,2.33-0.46,3.24c-0.31,0.91-0.72,1.65-1.23,2.23c-0.51,0.58-1.11,1.01-1.78,1.29
		c-0.67,0.28-1.37,0.42-2.09,0.42c-0.72,0-1.42-0.14-2.09-0.42c-0.67-0.28-1.27-0.71-1.78-1.29c-0.51-0.58-0.92-1.32-1.23-2.23
		C269.91,83.78,269.75,82.7,269.75,81.45z M272.39,81.45c0,0.96,0.08,1.77,0.23,2.44c0.15,0.67,0.36,1.2,0.62,1.61
		c0.26,0.41,0.57,0.7,0.93,0.89c0.36,0.19,0.74,0.28,1.14,0.28c0.4,0,0.78-0.09,1.14-0.28c0.36-0.19,0.67-0.48,0.93-0.89
		c0.26-0.41,0.47-0.94,0.62-1.61c0.15-0.67,0.23-1.48,0.23-2.44s-0.08-1.77-0.23-2.44c-0.15-0.67-0.36-1.2-0.62-1.61
		c-0.26-0.41-0.57-0.7-0.93-0.89c-0.36-0.19-0.74-0.28-1.14-0.28c-0.4,0-0.78,0.09-1.14,0.28c-0.36,0.19-0.67,0.48-0.93,0.89
		s-0.47,0.94-0.62,1.61C272.47,79.68,272.39,80.49,272.39,81.45z"/>
	<path d="M284.01,79.95h-1.72v-1.82h1.72v-2.1c0-0.37,0.05-0.73,0.14-1.07c0.09-0.34,0.26-0.64,0.49-0.9s0.54-0.47,0.92-0.63
		s0.85-0.24,1.41-0.24c0.33,0,0.65,0.03,0.96,0.08c0.31,0.05,0.58,0.11,0.82,0.16l-0.1,1.8c-0.15-0.04-0.3-0.08-0.46-0.11
		c-0.16-0.03-0.33-0.05-0.52-0.05c-0.36,0-0.65,0.12-0.86,0.35c-0.21,0.23-0.32,0.54-0.32,0.93v1.78h1.88v1.82h-1.88v8.48h-2.48
		V79.95z"/>
	<path d="M309.66,88.17c-0.29,0.11-0.65,0.2-1.06,0.29c-0.41,0.09-0.87,0.13-1.38,0.13c-0.85,0-1.58-0.14-2.19-0.42
		c-0.61-0.28-1.11-0.66-1.5-1.14s-0.68-1.04-0.87-1.68c-0.19-0.64-0.28-1.33-0.28-2.06s0.1-1.42,0.29-2.07s0.49-1.21,0.9-1.69
		c0.41-0.48,0.92-0.86,1.55-1.14c0.63-0.28,1.37-0.42,2.24-0.42c0.39,0,0.79,0.05,1.2,0.14c0.41,0.09,0.73,0.19,0.96,0.28
		l-0.14,1.96c-0.23-0.11-0.49-0.22-0.78-0.33c-0.29-0.11-0.61-0.17-0.96-0.17c-0.95,0-1.63,0.3-2.06,0.9s-0.64,1.45-0.64,2.56
		c0,0.48,0.06,0.93,0.17,1.34c0.11,0.41,0.29,0.77,0.52,1.08s0.53,0.55,0.88,0.72c0.35,0.17,0.77,0.26,1.25,0.26
		c0.31,0,0.63-0.06,0.98-0.17c0.35-0.11,0.61-0.22,0.78-0.33L309.66,88.17z"/>
	<path d="M318.61,87.93c-0.27,0.11-0.66,0.24-1.18,0.41c-0.52,0.17-1.15,0.25-1.9,0.25c-0.83,0-1.54-0.14-2.14-0.42
		c-0.6-0.28-1.09-0.65-1.48-1.12s-0.67-1.01-0.86-1.64c-0.19-0.63-0.28-1.29-0.28-1.98c0-0.77,0.1-1.49,0.29-2.15
		c0.19-0.66,0.47-1.24,0.84-1.73c0.37-0.49,0.81-0.88,1.34-1.16c0.53-0.28,1.12-0.42,1.77-0.42c0.56,0,1.09,0.09,1.58,0.27
		c0.49,0.18,0.93,0.48,1.31,0.91s0.68,0.99,0.9,1.69c0.22,0.7,0.33,1.58,0.33,2.63v0.48h-5.96c0,0.88,0.2,1.57,0.59,2.07
		c0.39,0.5,1.07,0.75,2.03,0.75c0.76,0,1.34-0.09,1.75-0.27c0.41-0.18,0.72-0.36,0.95-0.53L318.61,87.93z M316.73,82.39
		c0-1.83-0.57-2.74-1.72-2.74c-0.32,0-0.6,0.08-0.83,0.24c-0.23,0.16-0.43,0.37-0.58,0.62c-0.15,0.25-0.26,0.55-0.33,0.88
		c-0.07,0.33-0.1,0.67-0.1,1H316.73z"/>
	<path d="M324.66,83.27c0-1.05,0.14-1.92,0.41-2.6s0.63-1.22,1.07-1.62c0.44-0.4,0.93-0.68,1.47-0.84c0.54-0.16,1.07-0.24,1.59-0.24
		c0.52,0,1.05,0.08,1.59,0.24c0.54,0.16,1.03,0.44,1.46,0.84c0.43,0.4,0.79,0.94,1.06,1.62s0.41,1.55,0.41,2.6
		c0,1.08-0.14,1.96-0.41,2.65c-0.27,0.69-0.63,1.23-1.06,1.63c-0.43,0.4-0.92,0.67-1.46,0.82c-0.54,0.15-1.07,0.22-1.59,0.22
		c-0.52,0-1.05-0.07-1.59-0.22s-1.03-0.42-1.47-0.82c-0.44-0.4-0.8-0.94-1.07-1.63C324.79,85.23,324.66,84.35,324.66,83.27z
		 M327.22,83.27c0,0.43,0.03,0.85,0.08,1.28c0.05,0.43,0.16,0.81,0.31,1.15s0.36,0.61,0.61,0.82c0.25,0.21,0.58,0.31,0.98,0.31
		c0.4,0,0.73-0.1,0.98-0.31c0.25-0.21,0.45-0.48,0.6-0.82s0.25-0.72,0.3-1.15c0.05-0.43,0.08-0.85,0.08-1.28
		c0-0.43-0.03-0.85-0.08-1.28c-0.05-0.43-0.15-0.81-0.3-1.14c-0.15-0.33-0.35-0.6-0.6-0.81c-0.25-0.21-0.58-0.31-0.98-0.31
		c-0.4,0-0.73,0.1-0.98,0.31c-0.25,0.21-0.46,0.48-0.61,0.81c-0.15,0.33-0.26,0.71-0.31,1.14
		C327.25,82.42,327.22,82.84,327.22,83.27z"/>
	<path d="M336.27,79.95h-1.72v-1.82h1.72v-2.1c0-0.37,0.05-0.73,0.14-1.07c0.09-0.34,0.26-0.64,0.49-0.9s0.54-0.47,0.92-0.63
		s0.85-0.24,1.41-0.24c0.33,0,0.65,0.03,0.96,0.08c0.31,0.05,0.58,0.11,0.82,0.16l-0.1,1.8c-0.15-0.04-0.3-0.08-0.46-0.11
		c-0.16-0.03-0.33-0.05-0.52-0.05c-0.36,0-0.65,0.12-0.86,0.35c-0.21,0.23-0.32,0.54-0.32,0.93v1.78h1.88v1.82h-1.88v8.48h-2.48
		V79.95z"/>
	<path d="M347.39,74.47h2.56v13.96h-2.56V74.47z"/>
	<path d="M352.42,79.83c0-0.32-0.01-0.63-0.02-0.92c-0.01-0.29-0.03-0.55-0.06-0.78h2.32c0.01,0.27,0.03,0.53,0.05,0.79
		c0.02,0.26,0.03,0.52,0.03,0.79h0.04c0.09-0.16,0.21-0.34,0.35-0.54c0.14-0.2,0.32-0.39,0.53-0.57c0.21-0.18,0.47-0.33,0.77-0.45
		c0.3-0.12,0.66-0.18,1.09-0.18c0.59,0,1.07,0.1,1.46,0.3c0.39,0.2,0.7,0.48,0.93,0.83c0.23,0.35,0.4,0.76,0.5,1.22
		c0.1,0.46,0.15,0.95,0.15,1.47v6.64h-2.48v-6.18c0-0.8-0.11-1.37-0.33-1.72s-0.58-0.52-1.09-0.52c-0.32,0-0.59,0.06-0.82,0.19
		c-0.23,0.13-0.41,0.3-0.55,0.52c-0.14,0.22-0.24,0.48-0.3,0.77c-0.06,0.29-0.09,0.61-0.09,0.94v6h-2.48V79.83z"/>
	<path d="M363.68,79.95h-1.72v-1.82h1.72v-2.1c0-0.37,0.05-0.73,0.14-1.07c0.09-0.34,0.26-0.64,0.49-0.9s0.54-0.47,0.92-0.63
		s0.85-0.24,1.41-0.24c0.33,0,0.65,0.03,0.96,0.08c0.31,0.05,0.58,0.11,0.82,0.16l-0.1,1.8c-0.15-0.04-0.3-0.08-0.46-0.11
		c-0.16-0.03-0.33-0.05-0.52-0.05c-0.36,0-0.65,0.12-0.86,0.35c-0.21,0.23-0.32,0.54-0.32,0.93v1.78h1.88v1.82h-1.88v8.48h-2.48
		V79.95z"/>
	<path d="M369.14,83.27c0-1.05,0.14-1.92,0.41-2.6s0.63-1.22,1.07-1.62c0.44-0.4,0.93-0.68,1.47-0.84c0.54-0.16,1.07-0.24,1.59-0.24
		c0.52,0,1.05,0.08,1.59,0.24c0.54,0.16,1.03,0.44,1.46,0.84c0.43,0.4,0.79,0.94,1.06,1.62c0.27,0.68,0.41,1.55,0.41,2.6
		c0,1.08-0.14,1.96-0.41,2.65c-0.27,0.69-0.63,1.23-1.06,1.63c-0.43,0.4-0.92,0.67-1.46,0.82s-1.07,0.22-1.59,0.22
		c-0.52,0-1.05-0.07-1.59-0.22s-1.03-0.42-1.47-0.82c-0.44-0.4-0.8-0.94-1.07-1.63C369.28,85.23,369.14,84.35,369.14,83.27z
		 M371.7,83.27c0,0.43,0.03,0.85,0.08,1.28c0.05,0.43,0.16,0.81,0.31,1.15s0.36,0.61,0.61,0.82c0.25,0.21,0.58,0.31,0.98,0.31
		c0.4,0,0.73-0.1,0.98-0.31c0.25-0.21,0.45-0.48,0.6-0.82s0.25-0.72,0.3-1.15c0.05-0.43,0.08-0.85,0.08-1.28
		c0-0.43-0.03-0.85-0.08-1.28c-0.05-0.43-0.15-0.81-0.3-1.14c-0.15-0.33-0.35-0.6-0.6-0.81c-0.25-0.21-0.58-0.31-0.98-0.31
		c-0.4,0-0.73,0.1-0.98,0.31c-0.25,0.21-0.46,0.48-0.61,0.81c-0.15,0.33-0.26,0.71-0.31,1.14C371.73,82.42,371.7,82.84,371.7,83.27z
		"/>
	<path d="M379.86,79.83c0-0.32-0.01-0.63-0.02-0.92c-0.01-0.29-0.03-0.55-0.06-0.78h2.24c0.01,0.31,0.03,0.62,0.05,0.94
		c0.02,0.32,0.03,0.63,0.03,0.94h0.04c0.08-0.2,0.19-0.42,0.32-0.66c0.13-0.24,0.31-0.46,0.52-0.66c0.21-0.2,0.47-0.37,0.76-0.51
		c0.29-0.14,0.63-0.21,1.02-0.21c0.08,0,0.15,0.01,0.22,0.02c0.07,0.01,0.13,0.03,0.2,0.04v2.32c-0.24-0.07-0.47-0.1-0.7-0.1
		c-0.25,0-0.51,0.04-0.76,0.13c-0.25,0.09-0.48,0.23-0.69,0.42c-0.21,0.19-0.37,0.45-0.5,0.78c-0.13,0.33-0.19,0.73-0.19,1.21v5.64
		h-2.48V79.83z"/>
	<path d="M386.91,79.81c0-0.37-0.01-0.7-0.02-0.98c-0.01-0.28-0.03-0.51-0.06-0.7h2.48c0.01,0.27,0.03,0.54,0.05,0.81
		c0.02,0.27,0.03,0.54,0.03,0.81h0.04c0.09-0.2,0.22-0.41,0.37-0.62c0.15-0.21,0.33-0.4,0.54-0.57c0.21-0.17,0.45-0.31,0.73-0.42
		c0.28-0.11,0.6-0.17,0.96-0.17c0.44,0,0.81,0.06,1.1,0.18c0.29,0.12,0.54,0.26,0.74,0.43c0.2,0.17,0.36,0.35,0.47,0.54
		c0.11,0.19,0.21,0.36,0.29,0.49c0.12-0.17,0.26-0.36,0.42-0.55s0.35-0.37,0.57-0.53c0.22-0.16,0.47-0.29,0.76-0.4
		c0.29-0.11,0.62-0.16,1.01-0.16c0.56,0,1.03,0.1,1.41,0.29s0.68,0.47,0.91,0.82c0.23,0.35,0.39,0.78,0.49,1.29
		c0.1,0.51,0.15,1.07,0.15,1.7v6.36h-2.48v-6.5c0-0.64-0.1-1.12-0.31-1.44s-0.54-0.48-1.01-0.48c-0.28,0-0.52,0.06-0.73,0.18
		c-0.21,0.12-0.38,0.28-0.52,0.48c-0.14,0.2-0.25,0.43-0.32,0.7s-0.11,0.54-0.11,0.82v6.24h-2.48v-6.5c0-0.64-0.1-1.12-0.31-1.44
		c-0.21-0.32-0.54-0.48-1.01-0.48c-0.28,0-0.52,0.06-0.73,0.18c-0.21,0.12-0.38,0.28-0.52,0.48c-0.14,0.2-0.25,0.43-0.32,0.7
		c-0.07,0.27-0.11,0.54-0.11,0.82v6.24h-2.48V79.81z"/>
	<path d="M403.04,78.73c0.35-0.16,0.78-0.33,1.3-0.5c0.52-0.17,1.17-0.26,1.96-0.26c0.8,0,1.46,0.09,1.97,0.28
		c0.51,0.19,0.91,0.46,1.2,0.82c0.29,0.36,0.49,0.8,0.6,1.31c0.11,0.51,0.17,1.09,0.17,1.73v4.5c0,0.37,0.02,0.72,0.05,1.04
		s0.06,0.58,0.09,0.78h-2.24c-0.07-0.2-0.11-0.42-0.12-0.66C408,87.53,408,87.28,408,87.03h-0.04c-0.31,0.43-0.68,0.79-1.12,1.1
		c-0.44,0.31-1.03,0.46-1.76,0.46c-0.4,0-0.79-0.07-1.16-0.2c-0.37-0.13-0.7-0.33-0.98-0.59c-0.28-0.26-0.51-0.58-0.68-0.95
		c-0.17-0.37-0.26-0.8-0.26-1.28c0-0.69,0.14-1.27,0.41-1.72c0.27-0.45,0.65-0.81,1.13-1.08c0.48-0.27,1.05-0.45,1.71-0.55
		c0.66-0.1,1.38-0.15,2.17-0.15h0.5v-0.38c0-0.25-0.03-0.5-0.1-0.74c-0.07-0.24-0.18-0.45-0.33-0.63c-0.15-0.18-0.35-0.32-0.59-0.43
		c-0.24-0.11-0.54-0.16-0.9-0.16c-0.31,0-0.6,0.03-0.89,0.1c-0.29,0.07-0.55,0.15-0.8,0.25c-0.25,0.1-0.47,0.21-0.66,0.33
		c-0.19,0.12-0.35,0.23-0.47,0.32L403.04,78.73z M407.91,83.39h-0.22c-1.07,0-1.9,0.14-2.49,0.41c-0.59,0.27-0.89,0.78-0.89,1.53
		c0,0.47,0.14,0.85,0.43,1.14c0.29,0.29,0.67,0.44,1.15,0.44c0.75,0,1.27-0.26,1.57-0.78c0.3-0.52,0.45-1.24,0.45-2.16V83.39z"/>
	<path d="M413.18,76.01l2.48-0.76v2.88h2.06v1.82h-2.06v5.34c0,0.56,0.1,0.94,0.29,1.13s0.47,0.29,0.83,0.29
		c0.23,0,0.42-0.02,0.57-0.07s0.28-0.1,0.37-0.15v1.76c-0.19,0.09-0.42,0.17-0.69,0.24s-0.6,0.1-0.97,0.1
		c-0.92,0-1.63-0.23-2.13-0.69c-0.5-0.46-0.75-1.23-0.75-2.31v-5.64h-1.64v-1.82h1.64V76.01z"/>
	<path d="M419.62,73.75h2.56v2.44h-2.56V73.75z M419.66,78.13h2.48v10.3h-2.48V78.13z"/>
	<path d="M423.99,83.27c0-1.05,0.14-1.92,0.41-2.6s0.63-1.22,1.07-1.62c0.44-0.4,0.93-0.68,1.47-0.84c0.54-0.16,1.07-0.24,1.59-0.24
		c0.52,0,1.05,0.08,1.59,0.24c0.54,0.16,1.03,0.44,1.46,0.84c0.43,0.4,0.79,0.94,1.06,1.62c0.27,0.68,0.41,1.55,0.41,2.6
		c0,1.08-0.14,1.96-0.41,2.65c-0.27,0.69-0.63,1.23-1.06,1.63c-0.43,0.4-0.92,0.67-1.46,0.82s-1.07,0.22-1.59,0.22
		c-0.52,0-1.05-0.07-1.59-0.22s-1.03-0.42-1.47-0.82c-0.44-0.4-0.8-0.94-1.07-1.63C424.13,85.23,423.99,84.35,423.99,83.27z
		 M426.55,83.27c0,0.43,0.03,0.85,0.08,1.28c0.05,0.43,0.16,0.81,0.31,1.15s0.36,0.61,0.61,0.82c0.25,0.21,0.58,0.31,0.98,0.31
		c0.4,0,0.73-0.1,0.98-0.31c0.25-0.21,0.45-0.48,0.6-0.82s0.25-0.72,0.3-1.15c0.05-0.43,0.08-0.85,0.08-1.28
		c0-0.43-0.03-0.85-0.08-1.28c-0.05-0.43-0.15-0.81-0.3-1.14c-0.15-0.33-0.35-0.6-0.6-0.81c-0.25-0.21-0.58-0.31-0.98-0.31
		c-0.4,0-0.73,0.1-0.98,0.31c-0.25,0.21-0.46,0.48-0.61,0.81c-0.15,0.33-0.26,0.71-0.31,1.14
		C426.58,82.42,426.55,82.84,426.55,83.27z"/>
	<path d="M434.82,79.83c0-0.32-0.01-0.63-0.02-0.92c-0.01-0.29-0.03-0.55-0.06-0.78h2.32c0.01,0.27,0.03,0.53,0.05,0.79
		c0.02,0.26,0.03,0.52,0.03,0.79h0.04c0.09-0.16,0.21-0.34,0.35-0.54c0.14-0.2,0.32-0.39,0.53-0.57c0.21-0.18,0.47-0.33,0.77-0.45
		c0.3-0.12,0.66-0.18,1.09-0.18c0.59,0,1.07,0.1,1.46,0.3c0.39,0.2,0.7,0.48,0.93,0.83c0.23,0.35,0.4,0.76,0.5,1.22
		c0.1,0.46,0.15,0.95,0.15,1.47v6.64h-2.48v-6.18c0-0.8-0.11-1.37-0.33-1.72s-0.58-0.52-1.09-0.52c-0.32,0-0.59,0.06-0.82,0.19
		c-0.23,0.13-0.41,0.3-0.55,0.52c-0.14,0.22-0.24,0.48-0.3,0.77c-0.06,0.29-0.09,0.61-0.09,0.94v6h-2.48V79.83z"/>
	<path d="M451.84,76.51h-3.12v-2.04h8.78v2.04h-3.1v11.92h-2.56V76.51z"/>
	<path d="M465.14,87.93c-0.27,0.11-0.66,0.24-1.18,0.41c-0.52,0.17-1.15,0.25-1.9,0.25c-0.83,0-1.54-0.14-2.14-0.42
		c-0.6-0.28-1.09-0.65-1.48-1.12c-0.39-0.47-0.67-1.01-0.86-1.64s-0.28-1.29-0.28-1.98c0-0.77,0.1-1.49,0.29-2.15
		c0.19-0.66,0.47-1.24,0.84-1.73c0.37-0.49,0.81-0.88,1.34-1.16c0.53-0.28,1.12-0.42,1.77-0.42c0.56,0,1.09,0.09,1.58,0.27
		s0.93,0.48,1.31,0.91s0.68,0.99,0.9,1.69c0.22,0.7,0.33,1.58,0.33,2.63v0.48h-5.96c0,0.88,0.2,1.57,0.59,2.07
		c0.39,0.5,1.07,0.75,2.03,0.75c0.76,0,1.34-0.09,1.75-0.27c0.41-0.18,0.72-0.36,0.95-0.53L465.14,87.93z M463.26,82.39
		c0-1.83-0.57-2.74-1.72-2.74c-0.32,0-0.6,0.08-0.83,0.24s-0.43,0.37-0.58,0.62c-0.15,0.25-0.26,0.55-0.33,0.88
		c-0.07,0.33-0.1,0.67-0.1,1H463.26z"/>
	<path d="M474.55,88.17c-0.29,0.11-0.65,0.2-1.06,0.29s-0.87,0.13-1.38,0.13c-0.85,0-1.58-0.14-2.19-0.42
		c-0.61-0.28-1.11-0.66-1.5-1.14c-0.39-0.48-0.68-1.04-0.87-1.68c-0.19-0.64-0.28-1.33-0.28-2.06s0.1-1.42,0.29-2.07
		s0.49-1.21,0.9-1.69c0.41-0.48,0.92-0.86,1.55-1.14c0.63-0.28,1.37-0.42,2.24-0.42c0.39,0,0.79,0.05,1.2,0.14
		c0.41,0.09,0.73,0.19,0.96,0.28l-0.14,1.96c-0.23-0.11-0.49-0.22-0.78-0.33c-0.29-0.11-0.61-0.17-0.96-0.17
		c-0.95,0-1.63,0.3-2.06,0.9s-0.64,1.45-0.64,2.56c0,0.48,0.06,0.93,0.17,1.34c0.11,0.41,0.29,0.77,0.52,1.08s0.53,0.55,0.88,0.72
		s0.77,0.26,1.25,0.26c0.31,0,0.63-0.06,0.98-0.17c0.35-0.11,0.61-0.22,0.78-0.33L474.55,88.17z"/>
	<path d="M476.87,73.43h2.48v6.02h0.06c0.11-0.16,0.23-0.33,0.37-0.5c0.14-0.17,0.31-0.33,0.5-0.48c0.19-0.15,0.43-0.27,0.7-0.36
		c0.27-0.09,0.6-0.14,0.99-0.14c0.59,0,1.07,0.1,1.46,0.3c0.39,0.2,0.7,0.48,0.93,0.83c0.23,0.35,0.4,0.76,0.5,1.22
		c0.1,0.46,0.15,0.95,0.15,1.47v6.64h-2.48v-6.18c0-0.8-0.11-1.37-0.33-1.72s-0.58-0.52-1.09-0.52c-0.32,0-0.59,0.06-0.82,0.19
		c-0.23,0.13-0.41,0.3-0.55,0.52c-0.14,0.22-0.24,0.48-0.3,0.77c-0.06,0.29-0.09,0.61-0.09,0.94v6h-2.48V73.43z"/>
	<path d="M487.37,79.83c0-0.32-0.01-0.63-0.02-0.92c-0.01-0.29-0.03-0.55-0.06-0.78h2.32c0.01,0.27,0.03,0.53,0.05,0.79
		c0.02,0.26,0.03,0.52,0.03,0.79h0.04c0.09-0.16,0.21-0.34,0.35-0.54c0.14-0.2,0.32-0.39,0.53-0.57c0.21-0.18,0.47-0.33,0.77-0.45
		c0.3-0.12,0.66-0.18,1.09-0.18c0.59,0,1.07,0.1,1.46,0.3c0.39,0.2,0.7,0.48,0.93,0.83c0.23,0.35,0.4,0.76,0.5,1.22
		c0.1,0.46,0.15,0.95,0.15,1.47v6.64h-2.48v-6.18c0-0.8-0.11-1.37-0.33-1.72s-0.58-0.52-1.09-0.52c-0.32,0-0.59,0.06-0.82,0.19
		c-0.23,0.13-0.41,0.3-0.55,0.52c-0.14,0.22-0.24,0.48-0.3,0.77c-0.06,0.29-0.09,0.61-0.09,0.94v6h-2.48V79.83z"/>
	<path d="M497.29,83.27c0-1.05,0.14-1.92,0.41-2.6s0.63-1.22,1.07-1.62c0.44-0.4,0.93-0.68,1.47-0.84c0.54-0.16,1.07-0.24,1.59-0.24
		c0.52,0,1.05,0.08,1.59,0.24c0.54,0.16,1.03,0.44,1.46,0.84c0.43,0.4,0.79,0.94,1.06,1.62c0.27,0.68,0.41,1.55,0.41,2.6
		c0,1.08-0.14,1.96-0.41,2.65c-0.27,0.69-0.63,1.23-1.06,1.63c-0.43,0.4-0.92,0.67-1.46,0.82s-1.07,0.22-1.59,0.22
		c-0.52,0-1.05-0.07-1.59-0.22s-1.03-0.42-1.47-0.82c-0.44-0.4-0.8-0.94-1.07-1.63C497.43,85.23,497.29,84.35,497.29,83.27z
		 M499.86,83.27c0,0.43,0.03,0.85,0.08,1.28c0.05,0.43,0.16,0.81,0.31,1.15s0.36,0.61,0.61,0.82c0.25,0.21,0.58,0.31,0.98,0.31
		c0.4,0,0.73-0.1,0.98-0.31c0.25-0.21,0.45-0.48,0.6-0.82s0.25-0.72,0.3-1.15c0.05-0.43,0.08-0.85,0.08-1.28
		c0-0.43-0.03-0.85-0.08-1.28c-0.05-0.43-0.15-0.81-0.3-1.14c-0.15-0.33-0.35-0.6-0.6-0.81c-0.25-0.21-0.58-0.31-0.98-0.31
		c-0.4,0-0.73,0.1-0.98,0.31c-0.25,0.21-0.46,0.48-0.61,0.81c-0.15,0.33-0.26,0.71-0.31,1.14
		C499.88,82.42,499.86,82.84,499.86,83.27z"/>
	<path d="M508.36,73.43h2.48v15h-2.48V73.43z"/>
	<path d="M512.75,83.27c0-1.05,0.14-1.92,0.41-2.6s0.63-1.22,1.07-1.62c0.44-0.4,0.93-0.68,1.47-0.84c0.54-0.16,1.07-0.24,1.59-0.24
		c0.52,0,1.05,0.08,1.59,0.24c0.54,0.16,1.03,0.44,1.46,0.84c0.43,0.4,0.79,0.94,1.06,1.62c0.27,0.68,0.41,1.55,0.41,2.6
		c0,1.08-0.14,1.96-0.41,2.65c-0.27,0.69-0.63,1.23-1.06,1.63c-0.43,0.4-0.92,0.67-1.46,0.82s-1.07,0.22-1.59,0.22
		c-0.52,0-1.05-0.07-1.59-0.22s-1.03-0.42-1.47-0.82c-0.44-0.4-0.8-0.94-1.07-1.63C512.89,85.23,512.75,84.35,512.75,83.27z
		 M515.31,83.27c0,0.43,0.03,0.85,0.08,1.28c0.05,0.43,0.16,0.81,0.31,1.15s0.36,0.61,0.61,0.82c0.25,0.21,0.58,0.31,0.98,0.31
		c0.4,0,0.73-0.1,0.98-0.31c0.25-0.21,0.45-0.48,0.6-0.82s0.25-0.72,0.3-1.15c0.05-0.43,0.08-0.85,0.08-1.28
		c0-0.43-0.03-0.85-0.08-1.28c-0.05-0.43-0.15-0.81-0.3-1.14c-0.15-0.33-0.35-0.6-0.6-0.81c-0.25-0.21-0.58-0.31-0.98-0.31
		c-0.4,0-0.73,0.1-0.98,0.31c-0.25,0.21-0.46,0.48-0.61,0.81c-0.15,0.33-0.26,0.71-0.31,1.14
		C515.34,82.42,515.31,82.84,515.31,83.27z"/>
	<path d="M524.02,90.03c0.29,0.16,0.71,0.35,1.25,0.56s1.14,0.32,1.79,0.32c0.59,0,1.06-0.09,1.41-0.28
		c0.35-0.19,0.63-0.43,0.82-0.73c0.19-0.3,0.32-0.65,0.39-1.04c0.07-0.39,0.1-0.79,0.1-1.19v-0.98h-0.04
		c-0.11,0.2-0.23,0.4-0.37,0.61c-0.14,0.21-0.32,0.39-0.53,0.56s-0.47,0.3-0.77,0.41c-0.3,0.11-0.65,0.16-1.05,0.16
		c-0.36,0-0.75-0.07-1.17-0.21c-0.42-0.14-0.81-0.4-1.17-0.78c-0.36-0.38-0.66-0.9-0.9-1.57s-0.36-1.52-0.36-2.56
		c0-0.71,0.07-1.38,0.2-2.03c0.13-0.65,0.35-1.21,0.65-1.7c0.3-0.49,0.68-0.88,1.15-1.17s1.04-0.44,1.72-0.44
		c0.37,0,0.7,0.05,0.98,0.15s0.53,0.23,0.74,0.39c0.21,0.16,0.4,0.35,0.56,0.56s0.31,0.43,0.44,0.66h0.08c0-0.27,0.01-0.53,0.03-0.8
		c0.02-0.27,0.04-0.53,0.05-0.8h2.24c-0.03,0.27-0.05,0.54-0.06,0.81c-0.01,0.27-0.02,0.54-0.02,0.81v7.6c0,0.8-0.07,1.54-0.21,2.22
		c-0.14,0.68-0.39,1.26-0.75,1.75c-0.36,0.49-0.85,0.87-1.46,1.14s-1.39,0.41-2.34,0.41c-0.83,0-1.55-0.08-2.16-0.24
		c-0.61-0.16-1.07-0.29-1.38-0.4L524.02,90.03z M525.98,83.17c0,0.6,0.04,1.12,0.13,1.55c0.09,0.43,0.21,0.79,0.36,1.07
		s0.33,0.49,0.52,0.62s0.4,0.2,0.61,0.2c0.79,0,1.35-0.28,1.68-0.85c0.33-0.57,0.5-1.44,0.5-2.61c0-1.08-0.18-1.9-0.55-2.47
		c-0.37-0.57-0.85-0.84-1.45-0.83c-0.65,0.01-1.12,0.31-1.39,0.88S525.98,82.12,525.98,83.17z"/>
	<path d="M538.38,85.91h0.04l1.98-7.78h2.4l-3.18,10.4l-0.58,1.86c-0.11,0.36-0.24,0.69-0.41,0.99c-0.17,0.3-0.37,0.56-0.6,0.78
		s-0.51,0.39-0.83,0.52c-0.32,0.13-0.69,0.19-1.1,0.19c-0.33,0-0.63-0.03-0.9-0.08s-0.49-0.11-0.68-0.18l0.14-1.9
		c0.15,0.05,0.29,0.1,0.44,0.14c0.15,0.04,0.31,0.06,0.5,0.06c0.37,0.01,0.66-0.1,0.85-0.34s0.37-0.63,0.53-1.16l0.18-0.88
		l-3.42-10.4h2.56L538.38,85.91z"/>
	<path d="M291.38,79.95h-1.72v-1.82h1.72v-2.1c0-0.37,0.05-0.73,0.14-1.07c0.09-0.34,0.26-0.64,0.49-0.9s0.54-0.47,0.92-0.63
		c0.38-0.16,0.85-0.24,1.41-0.24c0.33,0,0.65,0.03,0.96,0.08c0.31,0.05,0.58,0.11,0.82,0.16l-0.1,1.8c-0.15-0.04-0.3-0.08-0.46-0.11
		c-0.16-0.03-0.33-0.05-0.52-0.05c-0.36,0-0.65,0.12-0.86,0.35c-0.21,0.23-0.32,0.54-0.32,0.93v1.78h1.88v1.82h-1.88v8.48h-2.48
		V79.95z"/>
	<path d="M297.89,73.75h2.56v2.44h-2.56V73.75z M297.93,78.13h2.48v10.3h-2.48V78.13z"/>
</g>
</svg>
