<?xml version="1.0" encoding="utf-8"?>
<!-- Generator: Adobe Illustrator 23.0.4, SVG Export Plug-In . SVG Version: 6.00 Build 0)  -->
<svg version="1.1" id="Layer_1" xmlns="http://www.w3.org/2000/svg" xmlns:xlink="http://www.w3.org/1999/xlink" x="0px" y="0px"
	 viewBox="0 0 449 94.1" style="enable-background:new 0 0 449 94.1;" xml:space="preserve">
<style type="text/css">
	.st0{fill:#777777;}
</style>
<g>
	<g>
		<polygon class="st0" points="241.5,94.1 241.5,0.1 242.5,0.1 242.5,94.1 		"/>
	</g>
</g>
<g>
	<g>
		<g>
			<g>
				<g>
					<path class="st0" d="M25.4,54.4C-1.1,42.2,2.1,14.9,2.1,2.1h46.8C48.9,14.9,51.8,42.2,25.4,54.4z M2.1,0l-2,2.1
						C0.1,3.6,0,5.6,0,6.5c-0.2,15,0.8,38.3,25.2,49.6c12.9-6,22.7-16.3,25.3-32.2c1.5-9.2,0.6-18,0.6-23.9L2.1,0z"/>
				</g>
				<g>
					<path class="st0" d="M15.4,33.5c-1.9,2-3.7,4-4.3,4.7c-0.1,0.2-0.2,0.3-0.1,0.4c0.1,0.1,0.3,0.3,0.4,0.3c0.1,0,0.2,0.1,0.4-0.1
						c0.1-0.1,2.1-2.1,4.6-4.4c0,0-0.2-0.1-0.5-0.3C15.6,33.9,15.4,33.5,15.4,33.5z"/>
					<g>
						<path class="st0" d="M16.6,33c0.5,0.5,1.3,0.9,1.3,0.9l-0.4,0.4c-0.2,0.2-0.8-0.1-1.3-0.6c-0.6-0.5-0.9-1.1-0.8-1.3l0.5-0.4
							C15.8,32,16.1,32.5,16.6,33z"/>
					</g>
					<g>
						<g>
							<g>
								<path class="st0" d="M38,38.2c0.4-0.4,0.4-0.7,0.4-0.7l0.4,0.2c0.1,0.1,0,0.6-0.4,1s-0.9,0.5-1.1,0.4l-0.2-0.5
									C37.2,38.6,37.6,38.6,38,38.2z"/>
							</g>
						</g>
						<g>
							<g>
								<path class="st0" d="M37.4,37.5c0.2-0.2,0.3-0.5,0.3-0.5l0.3,0.2c0.1,0.1,0,0.4-0.3,0.7s-0.7,0.4-0.8,0.3l-0.2-0.3
									C36.8,37.8,37.1,37.7,37.4,37.5z"/>
							</g>
						</g>
					</g>
				</g>
				<g>
					<path class="st0" d="M38.7,16.1l-0.5,0.4c-0.7,0.3-2.2-0.9-3.4-2c-0.8-0.7-2.4-2.5-2-3.2l0.2-0.2c-0.1-0.1-0.3-0.2-0.4-0.2
						c-0.1-0.1-0.3-0.1-0.5-0.1s-0.4,0.1-0.4,0.3c0,0.3,0.2,0.8,0.4,1.3c0.3,0.5,1.3,2,3.3,3.6c0.9,0.7,2,1.2,2.8,1.5
						c0.1,0.1,0.6,0.2,0.8-0.1c0.2-0.2,0-0.6-0.2-1C38.8,16.3,38.7,16.2,38.7,16.1z"/>
				</g>
				<path class="st0" d="M37.7,11.4"/>
				<path class="st0" d="M36.7,10.9"/>
				<path class="st0" d="M17.4,8.5c0,0.2,0,0.3,0,0.5c0,0.5,0.5,4.6,2.8,7.6c2,2.6,8.2,9.9,9.2,11.1c0.9,1.1,7,8.2,7.7,9.1l0.1,0.1
					c0,0-0.1,0.2-0.3,0.3c-0.2,0.2-0.4,0.2-0.4,0.2l-0.2-0.2c-0.2-0.3-10.7-10.7-11.7-11.7s-6.4-6.2-8.6-7.6
					c-1.9-1.2-2.8-1.9-4.9-2.1c0,0-1.5-0.1-1.6-0.1v-0.1c0.9-0.4,3-1.6,4.6-3.1c2.3-2.1,3-3.6,3.1-3.9C17.3,8.4,17.4,8.4,17.4,8.5z
					 M18.9,17.3c-2.2-2.2-3-2.7-4-3.1c-0.5-0.2-1-0.4-1.2-0.3c-0.4,0.2-1.1,0.4-1.5,0.8c-0.2,0.3-0.2,0.4,0,0.5
					c0.2,0.1,1.3,0.3,2.3,0.9c1.8,0.9,5.1,3.2,12.3,10.7c3.7,3.8,9.4,9.7,9.4,9.7l0.1-0.1c0,0-8.4-9.4-14.9-16.4
					C20.5,18.9,19.6,18.1,18.9,17.3z"/>
				<path class="st0" d="M38.5,16"/>
				<path class="st0" d="M12.5,12.9c-1,0.8-2.2,1.5-3.2,2c-0.7,0.3-1.6,0-0.9-1.3c0.2-0.4,0.5-0.9,0.9-1.4c1.3-1.7,3.5-3.7,5.7-4.9
					c0.7-0.4,1.3-0.6,1.6-0.6c0.5,0,0.6,0.5,0.5,0.9C16.7,8.5,15.1,10.6,12.5,12.9z M13.1,11.7c0.2-0.2,1.1-1.1,1.8-2
					C15.7,8.8,16.2,8,16.2,8s0.1-0.3,0.1-0.4s-0.2-0.2-0.2-0.2c-0.1-0.1-2,0.8-2.8,1.6c-0.1,0.1-0.3,0.5-0.4,0.8
					C12.8,10,13.5,10.7,13.1,11.7C13,11.7,13.1,11.7,13.1,11.7z"/>
				<path class="st0" d="M17.4,8.7"/>
				<g>
					<path class="st0" d="M24.6,26c-0.4,0.4-7.2,6.9-7.2,6.9c0.1,0.1,0.4,0.3,0.4,0.3s6.2-6,6.7-6.4c0.1-0.1,0.4-0.4,0.5-0.5
						L24.6,26z"/>
					<path class="st0" d="M37.4,18c0.1,0,0.2,0,0.3,0s0.2,0,0.3-0.1c0.1,0,0.1-0.1,0-0.1c-0.3,0-0.9-0.2-1.6-0.5
						c-0.4,0.1-1.1,0.3-1.8,0.6c-1,0.4-3.1,1.7-7.5,5.8l0.3,0.4c1.5-1.4,3.6-3.2,4.7-3.9c2-1.3,3.4-1.9,4.3-2.1
						C36.7,18,37.1,18,37.4,18z"/>
				</g>
				<g>
					<path class="st0" d="M33.1,14.8c-1.2-1.3-1.6-2.2-1.8-2.8c0,0,0,0,0-0.1h-0.1V12c-0.1,1.3,0,1.8-0.5,3.2
						c-0.5,1.1-1.3,2.5-2.4,3.8c-0.6,0.7-1.7,2-2.7,3.1l0.7,0.8c0.1-0.1,0.3-0.3,0.5-0.6c3.4-3.6,6.3-5.8,7.3-6.6
						C33.8,15.4,33.4,15.1,33.1,14.8z"/>
					<path class="st0" d="M23.2,24.7c-1.4,1.6-2.8,3.2-3.3,3.6c-0.3,0.4-3.4,3.7-3.4,3.7s0.1,0.1,0.2,0.2c0.1,0.1,0.3,0.3,0.3,0.3
						s6.5-6.7,7-7.2L23.2,24.7z"/>
				</g>
				<path class="st0" d="M34.3,10.4v-0.1c-0.3-0.1-0.6-0.1-0.7,0.1c-0.4,0.5,0.5,2,2.1,3.5s3.2,2.3,3.6,1.8c0.2-0.2,0.1-0.5-0.1-1
					C36.9,14.9,34.3,11.8,34.3,10.4z"/>
				<path class="st0" d="M41.5,11c-0.2,0.3-0.6,0.9-0.8,1.1c0.2-0.2,0.4-0.8,0.1-2.2c-0.2-1-0.3-1.3-0.4-1.6c-0.1-0.2-0.2-0.1-0.3,0
					S39.7,8.9,39.7,9c0,0.1,0,0-0.5-1.4c-0.3-0.9-0.4-1.5-0.4-1.9c0-0.2,0-0.3,0-0.5c0-0.1-0.1-0.1-0.3,0s-1.4,0.9-1.9,2.2
					c-0.3,0.7-0.3,1.3-0.4,1c-0.1-0.7-0.1-0.7-0.1-0.7c-0.4,0.1-1.8,0.8-1.8,2.7c0,1.6,3,5.1,5.5,4.3c0,0,1.9-0.4,1.9-2
					C41.7,10.9,41.5,11,41.5,11z M40.8,13c-0.1,0.2-0.4,0.6-1,0.8c-0.6,0.3-1.4,0.3-1.8,0.2c-1.8-0.6-2.9-2.4-2.9-2.4
					c-1.4-2.3,0.5-3.3,0.6-3.4c0,0-0.2,0.8-0.1,1.3c0.1,0.5,0.4,0.8,0.5,1.1c0.2,0.5-0.1,0.9-0.2,1c-0.1,0.1,0.1,0,0.1,0
					s0,0,0.1-0.1c0.3-0.2,0.5-0.5,0.4-0.8C36.3,10,35.8,9.5,36.4,8C37,7.2,37.9,6.3,38,6.3c0.1-0.1,0.2-0.2,0.2-0.1s0.2,0.8,0.2,1.2
					c0.1,0.4,0.6,1.3,0.5,2.5s-2.1,2.6-2.4,2.6c-0.1,0-0.2,0.1-0.3,0.1c-0.1,0.1,0,0.1,0.1,0.1s1-0.2,1.6-0.7c0.6-0.4,1.1-1,1.3-1.4
					c0.3-0.7,0.5-1.6,0.6-1.7C39.9,9,40,9,40,9c0,0.1,0.2,0.6,0.2,0.9c0,0.2,0.1,0.6,0.1,1c0,0.9-0.3,1.3-0.8,1.8
					c-0.3,0.2-0.6,0.3-1,0.4h-0.1c-0.1,0-0.1,0,0,0.1c0,0,0.1,0,0.1,0.1c0.3,0.1,0.9,0.1,1.4-0.1c0.2-0.1,0.4-0.3,0.8-0.6
					c0.1-0.1,0.3-0.4,0.3-0.3C41,12.3,41,12.7,40.8,13z"/>
			</g>
			<g>
				<g>
					<path class="st0" d="M151.3,2.8c8.1,0,13.2,7.3,13.2,14.9c0,7.7-4.8,12.5-10.9,12.5c-8.2,0-13.2-7.4-13.2-15.1
						C140.3,8.6,144.3,2.8,151.3,2.8z M151.8,31.4c9.2,0,15.6-6,15.6-15.3c0-8.6-6.5-14.7-14.9-14.7c-8.5,0-15.2,6.3-15.2,14.9
						C137.3,25,142.8,31.4,151.8,31.4z"/>
					<path class="st0" d="M175.8,4.9c0-1.6,0.8-1.5,2.3-1.5c4,0,7.7,1.6,7.7,6.6s-3.9,5.7-5.6,5.7c-1.9,0-4.4,0.2-4.4-0.6V4.9z
						 M183.7,16c2.8-1.1,5.1-3.8,5.1-7c0-7.8-8.9-7-9.6-7c-2.1,0-4.4,0.2-6.7,0.2c-2.1,0-1.9-0.2-2.6-0.2c-0.5,0-0.8,0.2-0.8,0.5
						c0,1.4,3.5-0.3,3.5,3.6v20.5c0,3.1-2.9,2.5-2.9,3.5c0,0.2,0.2,0.4,0.4,0.4c1.5,0,3-0.2,4.6-0.2c3.3,0,4.3,0.2,4.6,0.2
						s0.7,0.1,0.7-0.3c0-1.4-4.2-0.1-4.2-3.6v-8.5c0-0.4-0.2-1.1,1-1.1c4.5,0,3.9-0.1,5.4,2.1l4.5,7.1c1.5,2.3,3.1,4.4,6,4.4
						c0.4,0,3.5,0,3.5-0.5c0-1-2.9,0.5-5.8-3.9L183.7,16z"/>
					<path class="st0" d="M195.5,4.6c-1-1.7-3-1.2-3-1.9c0-0.3,0.2-0.6,0.5-0.6c1.1,0,1.8,0.2,4.6,0.2c1.3,0,2.4-0.2,2.8-0.2
						c0.3,0,0.8,0,0.8,0.4c0,0.7-1.9,0.7-1.9,1.9c0,0.6,0.5,1.3,0.7,1.6l4.8,7.8c0.3,0.5,0.6,0.7,0.8,0.7s0.4-0.3,0.8-0.8l4.1-6.7
						c0.3-0.4,0.8-1.1,0.8-2.2c0-2-3-1.1-3-2.1c0-0.5,0.4-0.6,0.8-0.6c1,0,2,0.2,2.9,0.2c1.2,0,2.3-0.2,3.5-0.2
						c0.2,0,0.4,0.3,0.4,0.5c0,0.4-0.7,0.6-1,0.8c-1.1,0.6-1.6,1.8-2.2,2.8l-5.6,8.8c-0.6,1-1,1.2-1,1.8v9.9c0,3.5,3.3,2.4,3.3,3.6
						c0,0.4-0.4,0.4-0.9,0.4c-0.6,0-2.9-0.2-4.4-0.2c-1.8,0-3.2,0.2-3.6,0.2c-0.4,0-0.6,0-0.6-0.5c0-1.1,3.1-0.1,3.1-2.9v-9.7
						c0-0.8-0.6-1.6-0.9-2L195.5,4.6z"/>
					<path class="st0" d="M132.7,26.9c0.2,3.4,3.2,1.9,3.2,3.3c0,0.4-0.5,0.4-1,0.4c-0.8,0-2.2-0.2-3.8-0.2c-1.2,0-2.5,0.2-3.5,0.2
						c-0.4,0-0.4-0.2-0.4-0.4c0-1.2,2.5-0.3,2.5-3.3l-1.1-15.6c0-1-0.2-1.6-0.4-1.6c-0.3,0-0.7,0.4-1.1,1.2l-8.3,17
						c-0.2,0.4-0.8,2-1.3,2c-0.4,0-0.7-0.9-0.8-1.2l-8.6-17.9c-0.1-0.3-0.3-0.4-0.5-0.4c-0.1,0-0.2,0.2-0.3,0.6l-1.2,14.1
						c-0.2,5.3,3.6,3.6,3.6,5c0,0.4-0.4,0.4-1,0.4c-0.5,0-2.3-0.2-3.5-0.2c-2.1,0-2.8,0.2-3.5,0.2c-0.3,0-0.4-0.2-0.4-0.5
						c0-1.4,2.6,0.3,2.9-3.9c0.5-6.6,1-10.8,1-15.1c0-9.5-3.1-7.2-3.1-8.6c0-0.4,0.3-0.4,0.7-0.4c0.7,0,1.4,0.2,2.2,0.2
						c0.7,0,1.4-0.2,2.1-0.2c0.6,0,0.6,0.7,0.8,1.1l9.6,20.4c0.4,0.8,0.6,1.2,0.9,1.2c0.2,0,0.6-0.8,1.2-2.2l9.6-19.2
						c0.2-0.4,0.6-1.4,1-1.4s1.7,0.2,1.9,0.2c0.9,0,1.3-0.2,1.9-0.2c0.2,0,0.4,0.2,0.4,0.5c0,1.3-3.2-0.4-3.1,4.3L132.7,26.9z"/>
					<path class="st0" d="M83.9,13.8c0,1.4-0.1,1.4,1.5,1.4h4.3c4.2,0,3.1-3.2,4-3.2c0.3,0,0.4,0.4,0.4,0.8c0,1.4-0.1,2.8-0.1,4
						c0,1,0.1,2.1,0.1,3.2c0,0.4-0.2,0.5-0.4,0.5c-1.2,0,0.1-3.5-3.2-3.5h-5.9c-0.8,0-0.7,0.7-0.7,1.3v7.4c0,2.4-0.3,3.3,3,3.3
						c9.3,0,10.6-4.2,11.1-4.2c0.3,0,0.3,0.4,0.3,0.5c0,1.4-1,2.9-2,3.9c-1.3,1.5-2.2,1.4-3.9,1.4c-3.1,0-6.1-0.2-9.1-0.2
						c-1.6,0-3.3,0.2-4.9,0.2c-0.4,0-0.6-0.1-0.6-0.4c0.1-0.5,0.5-0.4,1.8-1.1c1-0.5,1.1-1.6,1.1-3.5V7.3c0-1.8,0-3.7-2.2-4.1
						c-0.3-0.1-1.2-0.2-1.2-0.6c0-0.3,0.2-0.5,1.4-0.5c7.6,0,9.7,0.2,11.3,0.2c0.8,0,4.5-0.2,5.7-0.2c0.3,0,0.4,0.4,0.4,0.9
						c0,4.5-0.6,4.8-0.8,4.8c-1,0-0.3-1.9-1-2.9c-1-1.4-5.2-1.1-6.8-1.1c-3.8,0-3.8-0.2-3.8,2.5v7.5H83.9z"/>
				</g>
			</g>
		</g>
	</g>
	<g>
		<path class="st0" d="M83,51.5c0,1.2-0.2,1.8,1.2,1.8c4.6,0,4.4-2.4,5.1-2.4c0.1,0,0.2,0.1,0.2,0.4c0,1.5-1.1,3-2.6,3
			c-2.8,0-3.9-0.1-4.8-0.1c-0.6,0-1.4,0.1-2.4,0.1c-0.2,0-0.4-0.1-0.4-0.2c0-0.9,1.4,0.1,1.4-2.1v-8.8c0-1.6-2.1-1.1-2.1-1.7
			c0-0.2,0.2-0.3,0.6-0.3c0.7,0,1.8,0.1,2.5,0.1c1.6,0,1.8-0.1,2.1-0.1c0.4,0,0.5,0,0.5,0.2c0,0.7-1.3,0-1.3,1.4L83,51.5L83,51.5z"
			/>
		<path class="st0" d="M95.5,51.9c0,2.3,2.1,1.4,2.1,2c0,0.2-0.2,0.3-0.6,0.3c-0.7,0-1.4-0.1-2.8-0.1c-0.8,0-1.6,0.1-2.1,0.1
			c-0.2,0-0.2-0.1-0.2-0.2c0-0.7,1.3-0.2,1.3-1.9v-9c0-1.7-2.1-1.2-2.1-1.8c0-0.3,0.5-0.3,0.6-0.3c0.7,0,1.5,0.1,2.1,0.1
			c0.7,0,1.3-0.1,2.4-0.1c0.6,0,0.7,0,0.7,0.3c0,0.6-1.4,0-1.4,1.7V51.9z"/>
		<path class="st0" d="M102.2,43.8c0-2.6-2-1.5-2-2.5c0-0.3,0.2-0.3,0.3-0.3c0.1,0,0.3,0.1,1.1,0.1c1.6,0,3.2-0.1,4.7-0.1
			c4.6,0,4.6,2.8,4.6,3.2c0,1.2-0.7,2.2-2,2.6l0,0c2.3,0.6,3,1.6,3,3.3c0,2.5-1.7,4.1-4.8,4.1c-2.8,0-3.7-0.1-4.7-0.1
			c-0.4,0-0.9,0.1-1.3,0.1s-0.6,0-0.6-0.3c0-0.6,1.6-0.1,1.6-1.9v-8.2H102.2z M104.5,45.8c0,0.9,0.2,1,1.3,1.1h1.1
			c1.4,0,2-0.7,2-2.1c0-1.7-1.4-2.9-3-2.9c-1.3,0-1.3,0.7-1.3,1.8L104.5,45.8L104.5,45.8z M104.5,51.2c0,1.8,0.5,2.3,2.3,2.3
			s2.8-1.2,2.8-3c0-1.1-0.5-2.8-3.9-2.8c-1.1,0-1.1,0.5-1.1,1.4v2.1H104.5z"/>
		<path class="st0" d="M116.2,43.4c0-2.1-2-1.4-2-2.1c0-0.2,0.2-0.3,0.4-0.3c0.9,0,1,0.1,2.2,0.1c1.3,0,2.5-0.1,3.8-0.1
			c4.1,0,4.5,2.6,4.5,3.5c0,1.2-0.5,1.9-1.1,2.3c-0.5,0.4-1.1,0.6-1.1,0.8c0,0.1,1.5,2.8,2.8,5.2c0.2,0.3,0.5,0.3,0.7,0.3
			s0.4-0.1,0.6-0.1s0.3,0.1,0.3,0.3c0,0.6-1.2,1-2,1c-1.5,0-2.1-1.2-2.7-2.3l-1.6-3c-0.4-0.8-0.6-1-1.6-1s-0.9,0.1-0.9,0.8V52
			c0,2,1.8,1.2,1.8,1.9c0,0.2-0.1,0.3-0.6,0.3c-0.3,0-0.8-0.1-1.6-0.1c-1,0-1.9,0.1-2.9,0.1c-0.2,0-0.6,0.1-0.6-0.3
			c0-0.6,1.5,0,1.5-2.3L116.2,43.4L116.2,43.4z M118.5,46.7c0,0.5,0.7,0.5,1.3,0.5c2.8,0,3-1,3-2.1c0-1.8-1-3.2-2.9-3.2
			c-0.7,0-1.3,0-1.3,1.1L118.5,46.7L118.5,46.7z"/>
		<path class="st0" d="M132.6,49.7c-0.3,0-0.7,0.1-1.1,1.3c-0.1,0.4-0.4,1-0.4,1.5c0,1.3,2,1,2,1.6c0,0.4-0.6,0.3-1,0.3
			c-0.6,0-1.2-0.1-1.8-0.1s-1.1,0.1-1.6,0.1c-0.3,0-0.6,0-0.6-0.2c0-0.4,1-0.3,1.4-1.4l5.1-11.3c0.1-0.3,0.2-0.7,0.5-0.7
			c0.2,0,0.2,0,0.4,0.6l5,11.4c0.6,1.3,1.6,0.6,1.6,1.2c0,0.3-0.2,0.3-0.7,0.3c-0.7,0-1.2-0.1-2.4-0.1c-0.8,0-1.5,0.1-2.1,0.1
			c-0.3,0-0.6,0-0.6-0.2c0-0.5,1.3-0.3,1.3-1.5c0-0.4-0.1-0.7-0.3-1.3c-0.6-1.5-0.7-1.6-1.2-1.6C136.1,49.7,132.6,49.7,132.6,49.7z
			 M135.7,48.7c0.3,0,0.6,0,0.6-0.2c0-0.3-0.1-0.5-0.2-0.7l-1.5-3.4c-0.1-0.1-0.1-0.1-0.2-0.1c0,0-0.1,0-0.2,0.2l-1.4,3.3
			c-0.1,0.2-0.2,0.4-0.2,0.7c0,0.2,0.3,0.2,0.6,0.2H135.7z"/>
		<path class="st0" d="M145.4,43.4c0-2.1-2-1.4-2-2.1c0-0.2,0.2-0.3,0.4-0.3c0.9,0,1,0.1,2.2,0.1c1.3,0,2.5-0.1,3.8-0.1
			c4.1,0,4.5,2.6,4.5,3.5c0,1.2-0.5,1.9-1.1,2.3c-0.5,0.4-1.1,0.6-1.1,0.8c0,0.1,1.6,2.8,2.9,5.2c0.2,0.3,0.5,0.3,0.7,0.3
			s0.4-0.1,0.6-0.1c0.2,0,0.3,0.1,0.3,0.3c0,0.6-1.2,1-2,1c-1.5,0-2.1-1.2-2.7-2.3l-1.6-3c-0.4-0.8-0.8-1-1.7-1
			c-1,0-0.9,0.1-0.9,0.8V52c0,2,1.8,1.2,1.8,1.9c0,0.2-0.1,0.3-0.6,0.3c-0.3,0-0.8-0.1-1.6-0.1c-1,0-1.9,0.1-2.9,0.1
			c-0.2,0-0.6,0.1-0.6-0.3c0-0.6,1.5,0,1.5-2.3v-8.2H145.4z M147.7,46.7c0,0.5,0.7,0.5,1.3,0.5c2.8,0,3-1,3-2.1c0-1.8-1-3.2-2.9-3.2
			c-0.7,0-1.3,0-1.3,1.1v3.7H147.7z"/>
		<path class="st0" d="M162.6,51.9c0,2.3,2.1,1.4,2.1,2c0,0.2-0.2,0.3-0.6,0.3c-0.7,0-1.4-0.1-2.8-0.1c-0.8,0-1.6,0.1-2.1,0.1
			c-0.2,0-0.2-0.1-0.2-0.2c0-0.7,1.3-0.2,1.3-1.9v-9c0-1.7-2.1-1.2-2.1-1.8c0-0.3,0.5-0.3,0.6-0.3c0.7,0,1.5,0.1,2.1,0.1
			c0.7,0,1.3-0.1,2.4-0.1c0.6,0,0.7,0,0.7,0.3c0,0.6-1.4,0-1.4,1.7V51.9z"/>
		<path class="st0" d="M171.6,45.8c0,0.8,0,0.9,0.8,0.9h1.2c1.6,0,1.7-1.7,2-1.7c0.1,0,0.3,0,0.4,0.5l0.1,3.3c0,0.2,0.1,0.9-0.3,0.9
			c-0.6,0-0.1-2-2-2h-1.4c-0.9,0-0.8,0.2-0.8,1.3v2.4c0,1.2-0.1,1.8,1.3,1.8c4.6,0,4.4-2.4,5.1-2.4c0.1,0,0.2,0.1,0.2,0.4
			c0,1.5-1.1,3-2.6,3c-2.8,0-4-0.1-4.9-0.1c-0.6,0-1.4,0.1-2.4,0.1c-0.2,0-0.4-0.1-0.4-0.2c0-0.9,1.4,0.1,1.4-2.1v-8.7
			c0-1.7-2.1-1.1-2.1-1.8c0-0.2,0.2-0.3,0.4-0.3c0.8,0,2.1,0.1,5,0.1c1.3,0,2.6-0.1,4.3-0.1c0.2,0,0.4,0.2,0.4,0.4l0.1,1.8
			c0,0.2,0.1,0.9-0.3,0.9c-0.9,0,0.6-2.2-3-2.2c-2.3,0-2.3,0-2.3,1.3v2.5H171.6z"/>
		<path class="st0" d="M181.3,50.4c-0.1-0.3-0.2-0.8,0.2-0.8c0.3,0,0.3,0.2,0.4,0.4c0.6,1.8,1.8,3.5,3.8,3.5c1.5,0,2.6-0.9,2.6-2.4
			c0-1.6-1.2-1.8-4.2-3.2c-1.6-0.7-2.7-1.4-2.7-3.4c0-2.1,1.5-3.7,3.7-3.7c1.5,0,2.3,0.7,2.9,0.7c0.2,0,0.7-0.3,1-0.3
			s0.2,0.3,0.3,0.7l0.2,2.5c0,0.4,0,0.6-0.4,0.6s-0.7-3.5-3.9-3.5c-1.2,0-2.1,0.7-2.1,2s1,1.5,3.5,2.6c2,0.9,3.2,1.7,3.2,4.1
			c0,2.4-1.7,4.1-4.2,4.1c-1.1,0-2.1-0.4-3.2-0.7c-0.5-0.1-0.4-0.3-0.5-0.7L181.3,50.4z"/>
		<path class="st0" d="M200.8,45.6c0-0.4-0.4-0.7-0.4-1.8c0-1.8,1.4-2.9,3.1-2.9c1.2,0,2.4,0.7,2.7,0.7s0.3-0.3,0.6-0.3
			c0.2,0,0.2,0.1,0.2,0.4c0,1,0.2,1.9,0.3,2.9c0,0.2-0.1,0.3-0.3,0.3s-0.3-0.1-0.4-0.4c-0.4-1.5-1.5-2.8-3.1-2.8
			c-0.9,0-1.3,0.5-1.3,1.4c0,2.7,6.2,7.9,6.7,7.9c0.1,0,0.7-0.8,0.7-1.9c0-2.3-2.1-1.4-2.1-2.1c0-0.1,0.1-0.3,0.4-0.3
			c0.3,0,0.7,0.1,1.9,0.1c0.9,0,1.2-0.1,1.5-0.1c0.2,0,0.3,0.1,0.3,0.2c0,0.4-0.6,0.1-0.7,0.8c-0.4,2.7-1.2,3.5-1.2,3.7
			c0,0.7,2,1.7,2.5,1.7c0.7,0,0.7-0.1,1-0.1c0.1,0,0.3,0,0.3,0.2c0,0.3-1,1.3-2.3,1.3c-1.1,0-2.4-0.9-3-1.5c-1.1,1-3.1,1.5-4.6,1.5
			c-4.2,0-5.6-2.9-5.6-4.5C197.9,46.6,200.8,45.8,200.8,45.6z M207.4,52.6c0-0.4-4.3-3-5.9-5.8c-0.2-0.3-0.4-0.6-0.5-0.6
			c-0.4,0-1.4,0.6-1.4,1.9c0,2.1,2.6,5.1,5.5,5.1C205.8,53.3,207.4,52.9,207.4,52.6z"/>
	</g>
	<g>
		<path class="st0" d="M82.7,73.1c0,2.1,1.9,1.3,1.9,1.8c0,0.2-0.2,0.3-0.5,0.3c-0.6,0-1.2-0.1-2.5-0.1c-0.7,0-1.4,0.1-1.9,0.1
			c-0.2,0-0.2-0.1-0.2-0.2c0-0.6,1.2-0.2,1.2-1.7v-8.1c0-1.5-1.9-1.1-1.9-1.6c0-0.3,0.4-0.2,0.6-0.2c0.7,0,1.3,0.1,1.9,0.1
			s1.2-0.1,2.2-0.1c0.5,0,0.6,0,0.6,0.2c0,0.6-1.3,0-1.3,1.6L82.7,73.1L82.7,73.1z"/>
		<path class="st0" d="M88.2,66.5c0-3.2-1.9-2.1-1.9-2.9c0-0.2,0.1-0.3,0.3-0.3c0.3,0,0.6,0.1,0.9,0.1c0.4,0,0.9-0.1,1.8-0.1
			c0.5,0,0.3,0.1,0.6,0.4l6.7,7.4c0.2,0.2,0.4,0.4,0.5,0.4s0.1-0.2,0.1-0.6v-5.6c0-1.5-2-1.2-2-1.8c0-0.1,0-0.3,0.3-0.3
			s0.8,0.1,1.9,0.1s1.6-0.1,1.8-0.1c0.3,0,0.3,0.2,0.3,0.2c0,0.5-1.4,0.1-1.4,1.9v9.4c0,0.4,0,0.5-0.2,0.5s-0.3-0.1-0.4-0.2
			l-8.1-8.7c-0.1-0.1-0.2-0.2-0.3-0.2c-0.1,0-0.1,0.1-0.1,0.3v5.7c0,3.2,2.1,2.1,2.1,2.9c0,0.2-0.4,0.2-0.6,0.2
			c-0.8,0-1.4-0.1-2-0.1c-0.5,0-1,0.1-1.4,0.1c-0.2,0-0.5,0.1-0.5-0.2c0-0.7,1.6-0.4,1.6-2.1C88.2,72.9,88.2,66.5,88.2,66.5z"/>
		<path class="st0" d="M105.3,67.6c0,0.7,0,0.8,0.7,0.8h1.1c1.4,0,1.5-1.5,1.8-1.5c0.1,0,0.3,0,0.3,0.4l0.1,3c0,0.2,0.1,0.8-0.3,0.8
			c-0.5,0-0.1-1.8-1.8-1.8H106c-0.8,0-0.7,0.2-0.7,1.2V73c0,1.9,1.9,1.4,1.9,1.9c0,0.3-0.4,0.3-0.8,0.3c-0.6,0-1.3-0.1-2-0.1
			c-0.5,0-1.2,0.1-2.1,0.1c-0.2,0-0.3-0.1-0.3-0.2c0-0.8,1.3,0.1,1.3-1.9v-7.9c0-1.5-1.9-1-1.9-1.6c0-0.2,0.1-0.3,0.4-0.3
			c0.7,0,1.9,0.1,4.5,0.1c1.2,0,2.3-0.1,3.8-0.1c0.2,0,0.3,0.2,0.3,0.3l0.1,1.7c0,0.2,0.1,0.8-0.3,0.8c-0.8,0,0.5-2-2.7-2
			c-2,0-2.1,0-2.1,1.2v2.3H105.3z"/>
		<path class="st0" d="M118.4,63.2c3.3,0,5.8,2.1,5.8,5.7c0,2.3-1,6.5-6.4,6.5c-3.4,0-5.6-2.3-5.6-5.7
			C112.2,66,114.4,63.2,118.4,63.2z M118.3,74.6c2.9,0,3.8-2.3,3.8-5.1c0-3.7-2-5.7-4.2-5.6c-2.8,0.1-3.7,2.4-3.7,4.8
			C114.2,71.1,115.3,74.6,118.3,74.6z"/>
		<path class="st0" d="M127.6,65.4c0-1.9-1.8-1.3-1.8-1.9c0-0.2,0.2-0.3,0.4-0.3c0.8,0,0.9,0.1,2,0.1c1.1,0,2.3-0.1,3.4-0.1
			c3.7,0,4,2.4,4,3.1c0,1.1-0.5,1.7-1,2.1s-1,0.5-1,0.7c0,0.1,1.4,2.5,2.6,4.6c0.2,0.3,0.5,0.3,0.6,0.3c0.2,0,0.3-0.1,0.5-0.1
			s0.3,0.1,0.3,0.2c0,0.5-1.1,0.9-1.8,0.9c-1.3,0-1.9-1.1-2.4-2l-1.4-2.7c-0.4-0.7-0.7-0.9-1.5-0.9c-0.9,0-0.8,0.1-0.8,0.7V73
			c0,1.8,1.7,1.1,1.7,1.7c0,0.2-0.1,0.3-0.5,0.3c-0.3,0-0.7-0.1-1.4-0.1c-0.9,0-1.7,0.1-2.6,0.1c-0.2,0-0.5,0.1-0.5-0.3
			c0-0.5,1.4,0,1.4-2.1v-7.2H127.6z M129.6,68.4c0,0.4,0.6,0.4,1.1,0.4c2.5,0,2.6-0.9,2.6-1.9c0-1.6-0.9-2.9-2.6-2.9
			c-0.6,0-1.1,0-1.1,1V68.4z"/>
		<path class="st0" d="M141.4,72.3c-0.1,2.9,1.7,1.9,1.7,2.6c0,0.1,0.1,0.3-0.4,0.3c-0.6,0-1-0.1-1.7-0.1c-0.8,0-1.4,0.1-1.7,0.1
			S139,75.1,139,75c0-0.6,1.4-0.2,1.4-1.9l0.2-6.7c0.1-2.8-1.7-2-1.7-2.7c0-0.1,0.1-0.2,0.2-0.2c0.2,0,0.5,0.1,1,0.1
			c0.4,0,1-0.1,1.6-0.1c0.2,0,0.4,0,0.6,0.5l3.7,8.1c0.1,0.2,0.1,0.3,0.2,0.3c0.1,0,0.3-0.3,0.3-0.4l3.9-8.1c0-0.1,0.1-0.3,0.4-0.3
			c0.4,0,0.7,0.1,1,0.1s0.6-0.1,1.1-0.1s0.5,0.1,0.5,0.2c0,0.6-1.6,0-1.6,1.9l0.3,7.4c0.1,2.2,1.6,1.5,1.6,2.1
			c0,0.3-0.2,0.3-0.8,0.3c-0.5,0-1-0.1-1.4-0.1c-1.1,0-1.5,0.1-1.9,0.1s-0.8,0.1-0.8-0.3c0-0.6,1.3,0,1.2-1.9l-0.2-5.1
			c0-0.5,0-0.8-0.1-0.8s-0.3,0.3-0.5,0.9l-3.2,6.6c-0.1,0.2-0.2,0.5-0.4,0.5c-0.3,0-0.3-0.3-0.4-0.5l-3.3-7.2c0-0.1-0.1-0.3-0.2-0.3
			c-0.1,0-0.1,0.3-0.1,0.4L141.4,72.3z"/>
		<path class="st0" d="M159,71.1c-0.3,0-0.6,0.1-1,1.2c-0.1,0.3-0.3,0.9-0.3,1.3c0,1.2,1.8,0.9,1.8,1.4c0,0.4-0.5,0.2-0.9,0.2
			c-0.5,0-1-0.1-1.6-0.1c-0.5,0-1,0.1-1.5,0.1c-0.2,0-0.5,0-0.5-0.2c0-0.4,0.9-0.3,1.3-1.2l4.5-10.2c0.1-0.3,0.2-0.6,0.4-0.6
			s0.2,0,0.4,0.5l4.5,10.3c0.5,1.2,1.4,0.5,1.4,1.1c0,0.3-0.2,0.3-0.6,0.3c-0.6,0-1.1-0.1-2.2-0.1c-0.7,0-1.4,0.1-1.8,0.1
			c-0.3,0-0.5,0-0.5-0.2c0-0.5,1.2-0.3,1.2-1.3c0-0.4-0.1-0.7-0.3-1.1c-0.6-1.3-0.6-1.5-1.1-1.5C162.2,71.1,159,71.1,159,71.1z
			 M161.8,70.2c0.3,0,0.5,0,0.5-0.2s-0.1-0.4-0.2-0.6l-1.4-3c-0.1-0.1,0-0.1-0.1-0.1c0,0-0.1,0-0.2,0.2l-1.3,3
			c-0.1,0.2-0.2,0.4-0.2,0.6s0.2,0.2,0.5,0.2L161.8,70.2L161.8,70.2z"/>
		<path class="st0" d="M172,65.2c0-0.8-0.2-0.9-0.9-0.9h-1.3c-1.9,0-1.4,2.2-2.1,2.2c-0.4,0-0.3-0.4-0.2-0.6l0.3-2.2
			c0-0.2,0-0.4,0.3-0.4c1.6,0,2.6,0.1,5,0.1c2.5,0,3.1-0.1,4.7-0.1c0.2,0,0.2,0.2,0.3,0.4l0.2,1.5c0,0.2,0.2,0.9-0.2,0.9
			c-0.7,0-0.1-1.9-2.1-1.8h-1.2c-0.7,0-0.6,0.1-0.6,0.9v7.6c0,2.1,2.1,1.6,2.1,2s-0.3,0.4-0.8,0.4c-0.7,0-1.2-0.1-2.3-0.1
			s-1.7,0.1-2.3,0.1c-0.3,0-0.6,0-0.6-0.4c0-0.7,1.9,0.2,1.9-1.8v-7.8H172z"/>
		<path class="st0" d="M183.8,73.1c0,2.1,1.9,1.3,1.9,1.8c0,0.2-0.1,0.3-0.5,0.3c-0.6,0-1.2-0.1-2.6-0.1c-0.7,0-1.4,0.1-1.9,0.1
			c-0.2,0-0.2-0.1-0.2-0.2c0-0.6,1.2-0.2,1.2-1.7v-8.1c0-1.5-1.9-1.1-1.9-1.6c0-0.3,0.4-0.2,0.6-0.2c0.7,0,1.3,0.1,1.9,0.1
			c0.6,0,1.2-0.1,2.2-0.1c0.5,0,0.6,0,0.6,0.2c0,0.6-1.3,0-1.3,1.6V73.1z"/>
		<path class="st0" d="M193.3,63.2c3.3,0,5.8,2.1,5.8,5.7c0,2.3-1,6.5-6.4,6.5c-3.4,0-5.6-2.3-5.6-5.7C187,66,189.3,63.2,193.3,63.2
			z M193.2,74.6c2.9,0,3.8-2.3,3.8-5.1c0-3.7-2-5.7-4.2-5.6c-2.8,0.1-3.7,2.4-3.7,4.8C189.1,71.1,190.2,74.6,193.2,74.6z"/>
		<path class="st0" d="M202.2,66.5c0-3.2-1.9-2.1-1.9-2.9c0-0.2,0.1-0.3,0.3-0.3c0.3,0,0.6,0.1,0.9,0.1c0.4,0,0.9-0.1,1.8-0.1
			c0.5,0,0.3,0.1,0.6,0.4l6.7,7.4c0.2,0.2,0.4,0.4,0.5,0.4s0.1-0.2,0.1-0.6v-5.6c0-1.5-2-1.2-2-1.8c0-0.1,0.1-0.3,0.3-0.3
			c0.3,0,0.8,0.1,1.9,0.1c1.1,0,1.6-0.1,1.8-0.1c0.3,0,0.3,0.2,0.3,0.2c0,0.5-1.4,0.1-1.4,1.9v9.4c0,0.4,0,0.5-0.2,0.5
			s-0.3-0.1-0.4-0.2l-8.1-8.7c-0.1-0.1-0.2-0.2-0.3-0.2s-0.1,0.1-0.1,0.3v5.7c0,3.2,2.1,2.1,2.1,2.9c0,0.2-0.4,0.2-0.6,0.2
			c-0.8,0-1.4-0.1-2-0.1c-0.5,0-1,0.1-1.4,0.1c-0.2,0-0.5,0.1-0.5-0.2c0-0.7,1.6-0.4,1.6-2.1L202.2,66.5L202.2,66.5z"/>
	</g>
	<g>
		<path class="st0" d="M81.1,85.7c0-0.6-0.1-0.7-0.7-0.7h-0.7c-1.5,0-1.1,1.7-1.7,1.7c-0.3,0-0.2-0.3-0.2-0.5l0.2-1.7
			c0-0.1,0-0.3,0.2-0.3c1.2,0,1.7,0.1,3.6,0.1s2.8-0.1,4-0.1c0.2,0,0.2,0.2,0.2,0.3l0.1,1.2c0,0.2,0.2,0.7-0.2,0.7
			c-0.5,0-0.1-1.5-1.6-1.4h-1.1c-0.5,0-0.7,0.1-0.7,0.7v5.9c0,1.6,1.7,1.2,1.7,1.6c0,0.3-0.3,0.3-0.6,0.3c-0.5,0-1-0.1-1.8-0.1
			c-0.9,0-1.3,0.1-1.8,0.1c-0.2,0-0.5,0-0.5-0.3c0-0.5,1.5,0.1,1.5-1.4L81.1,85.7L81.1,85.7z"/>
		<path class="st0" d="M94.3,87.6c0,0.6,0,0.7,0.6,0.7h0.8c1.1,0,1.2-1.2,1.4-1.2c0.1,0,0.2,0,0.2,0.3l0.1,2.3
			c0,0.2,0.1,0.6-0.2,0.6c-0.4,0-0.1-1.4-1.4-1.4h-1c-0.6,0-0.5,0.2-0.5,0.9v1.7c0,0.8-0.1,1.3,0.9,1.3c3.2,0,3.1-1.7,3.6-1.7
			c0.1,0,0.1,0,0.1,0.3c0,1-0.8,2.1-1.8,2.1c-2,0-2.8-0.1-3.4-0.1c-0.4,0-1,0.1-1.7,0.1c-0.2,0-0.2-0.1-0.2-0.1c0-0.6,1,0.1,1-1.5
			v-6.1c0-1.2-1.5-0.8-1.5-1.3c0-0.1,0.1-0.2,0.3-0.2c0.5,0,1.5,0.1,3.5,0.1c0.9,0,1.8-0.1,3-0.1c0.2,0,0.3,0.1,0.3,0.2l0.1,1.3
			c0,0.2,0.1,0.6-0.2,0.6c-0.6,0,0.4-1.5-2.1-1.5c-1.6,0-1.6,0-1.6,0.9v1.8H94.3z"/>
		<path class="st0" d="M112.5,87c0,0.1,0.1,0.4-0.2,0.4c-0.2,0-0.3-0.3-0.4-0.4c-0.7-1.3-1.8-2.4-3.3-2.4c-1.9,0-3,1.8-3,3.6
			c0,1.8,1,4.4,3.6,4.4c2,0,2.9-1.7,3.3-1.7c0.1,0,0.2,0.1,0.2,0.1c0,0.5-1.4,2.5-4.2,2.5c-3.8,0-4.4-3.4-4.4-4.4
			c0-2.2,1.3-5.1,4.7-5.1c1.6,0,2.6,0.8,3,0.8c0.2,0,0.3-0.4,0.4-0.4s0.2,0,0.2,0.1L112.5,87z"/>
		<path class="st0" d="M127.2,91.6c0,1.7,1.4,1.2,1.4,1.7c0,0.2-0.1,0.2-0.3,0.2c-0.4,0-1.2-0.1-1.7-0.1s-1,0.1-1.7,0.1
			c-0.2,0-0.3-0.1-0.3-0.1c0-0.5,1-0.1,1-1.4v-2.4c0-0.6,0-0.7-0.5-0.7h-3.5c-0.6,0-0.6,0.1-0.6,0.7v2.1c0,1.6,1.6,1.2,1.6,1.6
			c0,0.1,0,0.2-0.4,0.2c-0.5,0-1-0.1-1.9-0.1c-0.5,0-1.1,0.1-1.8,0.1c-0.2,0-0.3,0-0.3-0.2c0-0.5,1.1-0.1,1.1-1.7v-5.8
			c0-1.4-1.5-0.8-1.5-1.3c0-0.2,0.4-0.2,0.6-0.2c0.4,0,0.8,0.1,1.5,0.1c0.8,0,1.3-0.1,1.7-0.1c0.2,0,0.3,0.1,0.3,0.2
			c0,0.4-1,0-1,1.2v2.1c0,0.4,0.1,0.5,0.3,0.5h3.9c0.4,0,0.5-0.3,0.5-0.6v-1.8c0-1.4-1.4-1-1.4-1.3c0-0.2,0.1-0.2,0.3-0.2
			c0.5,0,0.9,0.1,1.7,0.1c0.7,0,1.2-0.1,1.7-0.1c0.2,0,0.3,0,0.3,0.2c0,0.5-0.9-0.1-0.9,1.2L127.2,91.6L127.2,91.6z"/>
		<path class="st0" d="M135.3,86.7c0-2.5-1.5-1.7-1.5-2.3c0-0.1,0.1-0.2,0.2-0.2c0.2,0,0.5,0.1,0.7,0.1c0.3,0,0.7-0.1,1.4-0.1
			c0.4,0,0.3,0.1,0.5,0.3l5.3,5.8c0.2,0.2,0.3,0.3,0.4,0.3c0.1,0,0.1-0.2,0.1-0.5v-4.4c0-1.2-1.6-1-1.6-1.4c0-0.1,0-0.2,0.2-0.2
			s0.6,0.1,1.5,0.1c0.8,0,1.3-0.1,1.4-0.1c0.2,0,0.2,0.1,0.2,0.2c0,0.4-1.1,0.1-1.1,1.5v7.3c0,0.3,0,0.4-0.2,0.4s-0.2-0.1-0.3-0.2
			l-6.3-6.8c-0.1-0.1-0.2-0.2-0.2-0.2c-0.1,0-0.1,0.1-0.1,0.2V91c0,2.5,1.7,1.6,1.7,2.2c0,0.2-0.3,0.2-0.5,0.2
			c-0.6,0-1.1-0.1-1.5-0.1s-0.8,0.1-1.1,0.1c-0.1,0-0.4,0.1-0.4-0.2c0-0.5,1.3-0.3,1.3-1.6L135.3,86.7L135.3,86.7z"/>
		<path class="st0" d="M154.2,84.1c2.6,0,4.5,1.7,4.5,4.4c0,1.8-0.8,5-5,5c-2.6,0-4.4-1.8-4.4-4.4C149.4,86.3,151.1,84.1,154.2,84.1
			z M154.1,93c2.3,0,3-1.8,3-4c0-2.9-1.6-4.4-3.3-4.4c-2.2,0-2.9,1.8-2.9,3.7C151,90.3,151.8,93,154.1,93z"/>
		<path class="st0" d="M166.8,91.5c0,0.8-0.1,1.3,0.9,1.3c3.2,0,3.1-1.7,3.6-1.7c0.1,0,0.1,0,0.1,0.3c0,1-0.8,2.1-1.8,2.1
			c-2,0-2.8-0.1-3.4-0.1c-0.4,0-1,0.1-1.7,0.1c-0.2,0-0.2-0.1-0.2-0.1c0-0.6,1,0.1,1-1.5v-6.2c0-1.1-1.5-0.8-1.5-1.2
			c0-0.1,0.1-0.2,0.4-0.2c0.5,0,1.3,0.1,1.8,0.1c1.1,0,1.3-0.1,1.5-0.1c0.3,0,0.3,0,0.3,0.2c0,0.5-0.9,0-0.9,1v6H166.8z"/>
		<path class="st0" d="M181.2,84.1c2.6,0,4.5,1.7,4.5,4.4c0,1.8-0.8,5-5,5c-2.6,0-4.4-1.8-4.4-4.4C176.4,86.3,178.1,84.1,181.2,84.1
			z M181.1,93c2.3,0,3-1.8,3-4c0-2.9-1.6-4.4-3.3-4.4c-2.2,0-2.9,1.8-2.9,3.7C178,90.3,178.8,93,181.1,93z"/>
		<path class="st0" d="M199.7,87.3c0,0.2-0.1,0.2-0.3,0.2c-0.3,0-0.3-2.9-3.7-2.9c-1.2,0-2.9,0.8-2.9,4.1c0,1.8,0.9,4.2,3,4.2
			c2.4,0,2.4-1.1,2.4-1.9c0-2-1.6-1.2-1.6-1.7c0-0.4,0.4-0.3,0.6-0.3c0.6,0,1.2,0.1,1.8,0.1c0.5,0,0.9-0.1,1.4-0.1
			c0.1,0,0.1,0.1,0.1,0.2c0,0.6-0.9-0.1-0.9,1.5c0,0.5,0,0.9,0,1.1s0,0.3-0.1,0.3c-1.2,0.7-2.7,1.3-4.1,1.3c-3.8,0-4.4-3.4-4.4-4.4
			c0-2.2,1.3-5.1,4.7-5.1c1.8,0,2.9,0.9,3.3,0.9c0.3,0,0.3-0.4,0.5-0.4s0.2,0.3,0.2,0.5V87.3z"/>
		<path class="st0" d="M206.7,85.4c-0.5-0.9-1.3-0.6-1.3-1c0-0.2,0.2-0.2,0.5-0.2c0.2,0,0.6,0.1,1.2,0.1c0.6,0,1.1,0,1.9-0.1
			c0.2,0,0.2,0.1,0.2,0.2c0,0.3-0.7,0.2-0.7,0.6c0,0.1,0,0.3,0.2,0.6l1.2,2.4c0.2,0.4,0.3,0.6,0.4,0.6c0.1,0,0.2-0.1,0.3-0.4
			l1.2-2.2c0.2-0.4,0.2-0.6,0.2-0.7c0-0.9-1.3-0.6-1.3-1c0-0.1,0.1-0.2,0.2-0.2c0.2,0,0.4,0.1,1.1,0.1c1,0,1.1-0.1,1.5-0.1
			c0.2,0,0.2,0.1,0.2,0.1c0,0.4-0.6,0.1-1.4,1.5l-1.7,3.2c-0.1,0.3-0.2,0.4-0.2,0.8v2c0,1.7,1.6,0.7,1.6,1.4c0,0.1-0.2,0.2-0.4,0.2
			c-0.1,0-0.3-0.1-2-0.1c-1.2,0-1.6,0.1-1.9,0.1c-0.2,0-0.4,0-0.4-0.1c0-0.6,1.4,0.1,1.4-1.5V90c0-0.4-0.1-0.5-0.2-0.8L206.7,85.4z"
			/>
	</g>
</g>
<g>
	<path class="st0" d="M263.1,1.7h9.2v2.6h-6v4.6h5.7v2.5h-5.7v5.2h6.2v2.5h-9.4L263.1,1.7L263.1,1.7z"/>
	<path class="st0" d="M274.7,8.4c0-0.5,0-0.9,0-1.2c0-0.4,0-0.6-0.1-0.9h3.1c0,0.3,0,0.7,0.1,1c0,0.3,0,0.7,0,1l0,0
		c0.1-0.2,0.3-0.5,0.5-0.8s0.4-0.5,0.7-0.7c0.3-0.2,0.6-0.4,0.9-0.5s0.8-0.2,1.2-0.2c0.6,0,1,0.1,1.4,0.2c0.4,0.2,0.7,0.3,0.9,0.5
		c0.2,0.2,0.4,0.4,0.6,0.7c0.1,0.2,0.3,0.4,0.4,0.6c0.2-0.2,0.3-0.4,0.5-0.7c0.2-0.2,0.4-0.5,0.7-0.7c0.3-0.2,0.6-0.4,0.9-0.5
		c0.4-0.1,0.8-0.2,1.3-0.2c0.7,0,1.3,0.1,1.8,0.4c0.5,0.2,0.9,0.6,1.1,1c0.3,0.4,0.5,1,0.6,1.6s0.2,1.3,0.2,2.1v8h-3.1V11
		c0-0.8-0.1-1.4-0.4-1.8c-0.3-0.4-0.7-0.6-1.3-0.6c-0.3,0-0.7,0.1-0.9,0.2c-0.3,0.2-0.5,0.3-0.7,0.6s-0.3,0.5-0.4,0.9
		c-0.1,0.3-0.1,0.7-0.1,1v7.8h-3.1V11c0-0.8-0.1-1.4-0.4-1.8c-0.3-0.4-0.7-0.6-1.3-0.6c-0.4,0-0.7,0.1-0.9,0.2
		c-0.3,0.2-0.5,0.3-0.6,0.6c-0.2,0.2-0.3,0.5-0.4,0.9c-0.1,0.3-0.1,0.7-0.1,1v7.8h-3.1L274.7,8.4L274.7,8.4z"/>
	<path class="st0" d="M293.4,12.7c0-1.3,0.2-2.4,0.5-3.2c0.3-0.8,0.8-1.5,1.3-2s1.2-0.8,1.8-1c0.7-0.2,1.3-0.3,2-0.3s1.3,0.1,2,0.3
		c0.7,0.2,1.3,0.5,1.8,1s1,1.2,1.3,2s0.5,1.9,0.5,3.2s-0.2,2.5-0.5,3.3c-0.3,0.9-0.8,1.5-1.3,2s-1.1,0.8-1.8,1
		c-0.7,0.2-1.3,0.3-2,0.3c-0.6,0-1.3-0.1-2-0.3c-0.7-0.2-1.3-0.5-1.8-1c-0.6-0.5-1-1.2-1.3-2C293.6,15.1,293.4,14,293.4,12.7z
		 M296.6,12.7c0,0.5,0,1.1,0.1,1.6s0.2,1,0.4,1.4c0.2,0.4,0.4,0.8,0.8,1c0.3,0.3,0.7,0.4,1.2,0.4s0.9-0.1,1.2-0.4
		c0.3-0.3,0.6-0.6,0.8-1c0.2-0.4,0.3-0.9,0.4-1.4s0.1-1.1,0.1-1.6s0-1.1-0.1-1.6s-0.2-1-0.4-1.4c-0.2-0.4-0.4-0.8-0.8-1
		c-0.3-0.3-0.7-0.4-1.2-0.4s-0.9,0.1-1.2,0.4c-0.3,0.3-0.6,0.6-0.8,1c-0.2,0.4-0.3,0.9-0.4,1.4S296.6,12.2,296.6,12.7z"/>
	<path class="st0" d="M306.9,8.4c0-0.4,0-0.8,0-1.1c0-0.4,0-0.7-0.1-1h2.8c0,0.4,0,0.8,0.1,1.2c0,0.4,0,0.8,0,1.2l0,0
		c0.1-0.2,0.2-0.5,0.4-0.8c0.2-0.3,0.4-0.6,0.7-0.8c0.3-0.2,0.6-0.5,0.9-0.6c0.4-0.2,0.8-0.3,1.3-0.3c0.1,0,0.2,0,0.3,0
		c0.1,0,0.2,0,0.2,0V9c-0.3-0.1-0.6-0.1-0.9-0.1s-0.6,0.1-1,0.2c-0.3,0.1-0.6,0.3-0.9,0.5s-0.5,0.6-0.6,1c-0.2,0.4-0.2,0.9-0.2,1.5
		v7h-3.1V8.4H306.9z"/>
	<path class="st0" d="M320.2,16L320.2,16l2.5-9.7h3l-4,13l-0.7,2.3c-0.1,0.4-0.3,0.9-0.5,1.2c-0.2,0.4-0.5,0.7-0.8,1s-0.6,0.5-1,0.6
		c-0.4,0.2-0.9,0.2-1.4,0.2c-0.4,0-0.8,0-1.1-0.1c-0.3-0.1-0.6-0.1-0.9-0.2l0.2-2.4c0.2,0.1,0.4,0.1,0.5,0.2
		c0.2,0.1,0.4,0.1,0.6,0.1c0.5,0,0.8-0.1,1.1-0.4c0.2-0.3,0.5-0.8,0.7-1.4l0.2-1.1l-4.3-13h3.2L320.2,16z"/>
	<path class="st0" d="M344.4,18.8c-0.3,0.2-0.8,0.3-1.5,0.5c-0.7,0.1-1.4,0.2-2.2,0.2c-1.3,0-2.5-0.2-3.5-0.7s-1.8-1.1-2.5-1.9
		s-1.2-1.7-1.5-2.8s-0.5-2.3-0.5-3.6s0.2-2.4,0.5-3.5s0.8-2.1,1.5-2.9s1.5-1.4,2.5-1.9s2.1-0.7,3.4-0.7c0.9,0,1.7,0.1,2.4,0.3
		s1.2,0.3,1.5,0.5L344.2,5c-0.3-0.2-0.8-0.4-1.3-0.6s-1.2-0.3-2-0.3c-0.7,0-1.3,0.1-1.9,0.3c-0.6,0.2-1.1,0.6-1.6,1.1
		s-0.8,1.2-1.1,2s-0.4,1.8-0.4,2.9s0.1,2.1,0.4,2.9c0.3,0.8,0.6,1.5,1.1,2c0.4,0.5,1,0.9,1.6,1.1s1.2,0.4,1.9,0.4
		c0.8,0,1.4-0.1,2-0.2c0.5-0.2,1-0.4,1.3-0.7L344.4,18.8z"/>
	<path class="st0" d="M355.8,18.5c-0.3,0.1-0.8,0.3-1.5,0.5s-1.4,0.3-2.4,0.3s-1.9-0.2-2.7-0.5s-1.4-0.8-1.9-1.4s-0.8-1.3-1.1-2
		c-0.2-0.8-0.4-1.6-0.4-2.5c0-1,0.1-1.9,0.4-2.7c0.2-0.8,0.6-1.5,1.1-2.2c0.5-0.6,1-1.1,1.7-1.4s1.4-0.5,2.2-0.5
		c0.7,0,1.4,0.1,2,0.3c0.6,0.2,1.2,0.6,1.6,1.1c0.5,0.5,0.8,1.2,1.1,2.1c0.3,0.9,0.4,2,0.4,3.3v0.6H349c0,1.1,0.2,2,0.7,2.6
		c0.5,0.6,1.3,0.9,2.5,0.9c1,0,1.7-0.1,2.2-0.3c0.5-0.2,0.9-0.4,1.2-0.7L355.8,18.5z M353.4,11.6c0-2.3-0.7-3.4-2.2-3.4
		c-0.4,0-0.7,0.1-1,0.3s-0.5,0.5-0.7,0.8s-0.3,0.7-0.4,1.1c-0.1,0.4-0.1,0.8-0.1,1.2C349,11.6,353.4,11.6,353.4,11.6z"/>
	<path class="st0" d="M358.4,8.4c0-0.4,0-0.8,0-1.1c0-0.4,0-0.7-0.1-1h2.9c0,0.3,0,0.7,0.1,1c0,0.3,0,0.7,0,1l0,0
		c0.1-0.2,0.3-0.4,0.4-0.7c0.2-0.2,0.4-0.5,0.7-0.7c0.3-0.2,0.6-0.4,1-0.6c0.4-0.1,0.8-0.2,1.4-0.2c0.7,0,1.3,0.1,1.8,0.4
		s0.9,0.6,1.2,1c0.3,0.4,0.5,1,0.6,1.5c0.1,0.6,0.2,1.2,0.2,1.8v8.3h-3.1v-7.7c0-1-0.1-1.7-0.4-2.1s-0.7-0.6-1.4-0.6
		c-0.4,0-0.7,0.1-1,0.2c-0.3,0.2-0.5,0.4-0.7,0.7s-0.3,0.6-0.4,1s-0.1,0.8-0.1,1.2v7.5h-3.1V8.4z"/>
	<path class="st0" d="M372.1,3.6l3.1-1v3.6h2.6v2.3h-2.6v6.7c0,0.7,0.1,1.2,0.4,1.4c0.2,0.2,0.6,0.4,1,0.4c0.3,0,0.5,0,0.7-0.1
		s0.3-0.1,0.5-0.2v2.2c-0.2,0.1-0.5,0.2-0.9,0.3c-0.3,0.1-0.7,0.1-1.2,0.1c-1.2,0-2-0.3-2.7-0.9c-0.6-0.6-0.9-1.5-0.9-2.9v-7h-2V6.3
		h2V3.6z"/>
	<path class="st0" d="M388.8,18.5c-0.3,0.1-0.8,0.3-1.5,0.5s-1.4,0.3-2.4,0.3s-1.9-0.2-2.7-0.5s-1.4-0.8-1.9-1.4s-0.8-1.3-1.1-2
		c-0.2-0.8-0.4-1.6-0.4-2.5c0-1,0.1-1.9,0.4-2.7c0.2-0.8,0.6-1.5,1.1-2.2c0.5-0.6,1-1.1,1.7-1.4s1.4-0.5,2.2-0.5
		c0.7,0,1.4,0.1,2,0.3c0.6,0.2,1.2,0.6,1.6,1.1c0.5,0.5,0.8,1.2,1.1,2.1c0.3,0.9,0.4,2,0.4,3.3v0.6H382c0,1.1,0.2,2,0.7,2.6
		c0.5,0.6,1.3,0.9,2.5,0.9c1,0,1.7-0.1,2.2-0.3c0.5-0.2,0.9-0.4,1.2-0.7L388.8,18.5z M386.4,11.6c0-2.3-0.7-3.4-2.2-3.4
		c-0.4,0-0.7,0.1-1,0.3s-0.5,0.5-0.7,0.8s-0.3,0.7-0.4,1.1c-0.1,0.4-0.1,0.8-0.1,1.2C382,11.6,386.4,11.6,386.4,11.6z"/>
	<path class="st0" d="M391.5,8.4c0-0.4,0-0.8,0-1.1c0-0.4,0-0.7-0.1-1h2.8c0,0.4,0,0.8,0.1,1.2c0,0.4,0,0.8,0,1.2l0,0
		c0.1-0.2,0.2-0.5,0.4-0.8c0.2-0.3,0.4-0.6,0.7-0.8c0.3-0.2,0.6-0.5,0.9-0.6c0.4-0.2,0.8-0.3,1.3-0.3c0.1,0,0.2,0,0.3,0
		c0.1,0,0.2,0,0.2,0V9c-0.3-0.1-0.6-0.1-0.9-0.1s-0.6,0.1-1,0.2c-0.3,0.1-0.6,0.3-0.9,0.5s-0.5,0.6-0.6,1c-0.2,0.4-0.2,0.9-0.2,1.5
		v7h-3.1V8.4H391.5z"/>
	<path class="st0" d="M406.9,8.5h-2.2V6.3h2.2V3.6c0-0.5,0.1-0.9,0.2-1.3s0.3-0.8,0.6-1.1c0.3-0.3,0.7-0.6,1.2-0.8s1.1-0.3,1.8-0.3
		c0.4,0,0.8,0,1.2,0.1s0.7,0.1,1,0.2l-0.1,2.2c-0.2,0-0.4-0.1-0.6-0.1s-0.4-0.1-0.7-0.1c-0.4,0-0.8,0.1-1.1,0.4
		C410.1,3.2,410,3.6,410,4v2.2h2.3v2.3H410v10.6h-3.1V8.5z"/>
	<path class="st0" d="M413.4,12.7c0-1.3,0.2-2.4,0.5-3.2c0.3-0.8,0.8-1.5,1.3-2s1.2-0.8,1.8-1c0.7-0.2,1.3-0.3,2-0.3s1.3,0.1,2,0.3
		c0.7,0.2,1.3,0.5,1.8,1s1,1.2,1.3,2s0.5,1.9,0.5,3.2s-0.2,2.5-0.5,3.3c-0.3,0.9-0.8,1.5-1.3,2s-1.1,0.8-1.8,1
		c-0.7,0.2-1.3,0.3-2,0.3c-0.6,0-1.3-0.1-2-0.3c-0.7-0.2-1.3-0.5-1.8-1c-0.6-0.5-1-1.2-1.3-2C413.6,15.1,413.4,14,413.4,12.7z
		 M416.6,12.7c0,0.5,0,1.1,0.1,1.6s0.2,1,0.4,1.4c0.2,0.4,0.4,0.8,0.8,1c0.3,0.3,0.7,0.4,1.2,0.4s0.9-0.1,1.2-0.4
		c0.3-0.3,0.6-0.6,0.8-1c0.2-0.4,0.3-0.9,0.4-1.4s0.1-1.1,0.1-1.6s0-1.1-0.1-1.6s-0.2-1-0.4-1.4c-0.2-0.4-0.4-0.8-0.8-1
		c-0.3-0.3-0.7-0.4-1.2-0.4s-0.9,0.1-1.2,0.4c-0.3,0.3-0.6,0.6-0.8,1c-0.2,0.4-0.3,0.9-0.4,1.4S416.6,12.2,416.6,12.7z"/>
	<path class="st0" d="M426.9,8.4c0-0.4,0-0.8,0-1.1c0-0.4,0-0.7-0.1-1h2.8c0,0.4,0,0.8,0.1,1.2c0,0.4,0,0.8,0,1.2l0,0
		c0.1-0.2,0.2-0.5,0.4-0.8c0.2-0.3,0.4-0.6,0.7-0.8c0.3-0.2,0.6-0.5,0.9-0.6c0.4-0.2,0.8-0.3,1.3-0.3c0.1,0,0.2,0,0.3,0
		c0.1,0,0.2,0,0.2,0V9c-0.3-0.1-0.6-0.1-0.9-0.1s-0.6,0.1-1,0.2c-0.3,0.1-0.6,0.3-0.9,0.5s-0.5,0.6-0.6,1c-0.2,0.4-0.2,0.9-0.2,1.5
		v7h-3.1V8.4H426.9z"/>
	<path class="st0" d="M263,28.2h4.5c2.8,0,4.8,0.7,6.2,2.2c1.4,1.5,2.1,3.6,2.1,6.5c0,1.5-0.2,2.7-0.6,3.8s-1,2-1.7,2.7
		s-1.6,1.3-2.6,1.6c-1,0.4-2.1,0.5-3.3,0.5H263V28.2z M266.2,43.2h1.1c0.9,0,1.7-0.1,2.3-0.4c0.7-0.3,1.2-0.7,1.6-1.3s0.7-1.2,1-2
		c0.2-0.8,0.3-1.6,0.3-2.6c0-0.9-0.1-1.8-0.3-2.6c-0.2-0.8-0.5-1.4-1-2c-0.4-0.6-1-1-1.6-1.3s-1.4-0.4-2.3-0.4h-1.1V43.2z"/>
	<path class="st0" d="M278,27.3h3.2v3.1H278V27.3z M278.1,32.8h3.1v12.9h-3.1V32.8z"/>
	<path class="st0" d="M284.3,47.6c0.4,0.2,0.9,0.4,1.6,0.7s1.4,0.4,2.2,0.4c0.7,0,1.3-0.1,1.8-0.4s0.8-0.5,1-0.9s0.4-0.8,0.5-1.3
		s0.1-1,0.1-1.5v-1.2l0,0c-0.1,0.2-0.3,0.5-0.5,0.8s-0.4,0.5-0.7,0.7c-0.3,0.2-0.6,0.4-1,0.5s-0.8,0.2-1.3,0.2s-0.9-0.1-1.5-0.3
		c-0.5-0.2-1-0.5-1.5-1s-0.8-1.1-1.1-2c-0.3-0.8-0.5-1.9-0.5-3.2c0-0.9,0.1-1.7,0.2-2.5c0.2-0.8,0.4-1.5,0.8-2.1s0.9-1.1,1.4-1.5
		c0.6-0.4,1.3-0.6,2.2-0.6c0.5,0,0.9,0.1,1.2,0.2c0.4,0.1,0.7,0.3,0.9,0.5c0.3,0.2,0.5,0.4,0.7,0.7s0.4,0.5,0.5,0.8h0.1
		c0-0.3,0-0.7,0-1s0-0.7,0.1-1h2.8c0,0.3-0.1,0.7-0.1,1s0,0.7,0,1v9.5c0,1-0.1,1.9-0.3,2.8c-0.2,0.8-0.5,1.6-0.9,2.2
		c-0.5,0.6-1.1,1.1-1.8,1.4c-0.8,0.3-1.7,0.5-2.9,0.5c-1,0-1.9-0.1-2.7-0.3s-1.3-0.4-1.7-0.5L284.3,47.6z M286.7,39.1
		c0,0.8,0.1,1.4,0.2,1.9s0.3,1,0.5,1.3s0.4,0.6,0.7,0.8c0.2,0.2,0.5,0.2,0.8,0.2c1,0,1.7-0.4,2.1-1.1c0.4-0.7,0.6-1.8,0.6-3.3
		c0-1.3-0.2-2.4-0.7-3.1c-0.5-0.7-1.1-1.1-1.8-1c-0.8,0-1.4,0.4-1.7,1.1C286.9,36.7,286.7,37.8,286.7,39.1z"/>
	<path class="st0" d="M297.1,27.3h3.2v3.1h-3.2V27.3z M297.2,32.8h3.1v12.9h-3.1V32.8z"/>
	<path class="st0" d="M304.1,30.1l3.1-1v3.6h2.6V35h-2.6v6.7c0,0.7,0.1,1.2,0.4,1.4c0.2,0.2,0.6,0.4,1,0.4c0.3,0,0.5,0,0.7-0.1
		s0.3-0.1,0.5-0.2v2.2c-0.2,0.1-0.5,0.2-0.9,0.3c-0.3,0.1-0.7,0.1-1.2,0.1c-1.2,0-2-0.3-2.7-0.9c-0.6-0.6-0.9-1.5-0.9-2.9v-7h-2
		v-2.3h2V30.1z"/>
	<path class="st0" d="M312.1,33.5c0.4-0.2,1-0.4,1.6-0.6c0.6-0.2,1.5-0.3,2.4-0.3c1,0,1.8,0.1,2.5,0.3c0.6,0.2,1.1,0.6,1.5,1
		c0.4,0.5,0.6,1,0.8,1.6s0.2,1.4,0.2,2.2v5.6c0,0.5,0,0.9,0.1,1.3c0,0.4,0.1,0.7,0.1,1h-2.8c-0.1-0.2-0.1-0.5-0.2-0.8
		c0-0.3,0-0.6,0-0.9l0,0c-0.4,0.5-0.8,1-1.4,1.4s-1.3,0.6-2.2,0.6c-0.5,0-1-0.1-1.5-0.2c-0.5-0.2-0.9-0.4-1.2-0.7
		c-0.4-0.3-0.6-0.7-0.9-1.2c-0.2-0.5-0.3-1-0.3-1.6c0-0.9,0.2-1.6,0.5-2.2c0.3-0.6,0.8-1,1.4-1.3s1.3-0.6,2.1-0.7
		c0.8-0.1,1.7-0.2,2.7-0.2h0.6v-0.5c0-0.3,0-0.6-0.1-0.9c-0.1-0.3-0.2-0.6-0.4-0.8c-0.2-0.2-0.4-0.4-0.7-0.5
		c-0.3-0.1-0.7-0.2-1.1-0.2s-0.8,0-1.1,0.1c-0.4,0.1-0.7,0.2-1,0.3s-0.6,0.3-0.8,0.4c-0.2,0.1-0.4,0.3-0.6,0.4L312.1,33.5z
		 M318.2,39.3H318c-1.3,0-2.4,0.2-3.1,0.5s-1.1,1-1.1,1.9c0,0.6,0.2,1.1,0.5,1.4c0.4,0.4,0.8,0.6,1.4,0.6c0.9,0,1.6-0.3,2-1
		s0.6-1.5,0.6-2.7L318.2,39.3L318.2,39.3z"/>
	<path class="st0" d="M323.7,26.9h3.1v18.8h-3.1V26.9z"/>
	<path class="st0" d="M335.8,42.3c0.3,0.2,0.8,0.4,1.5,0.7c0.6,0.3,1.4,0.4,2.2,0.4c0.3,0,0.7-0.1,1-0.2c0.3-0.1,0.6-0.3,0.8-0.5
		c0.2-0.2,0.4-0.5,0.6-0.8c0.1-0.3,0.2-0.7,0.2-1.1c0-0.3,0-0.6-0.1-0.8s-0.2-0.5-0.4-0.7c-0.2-0.2-0.4-0.4-0.7-0.6
		c-0.3-0.2-0.6-0.4-1-0.6l-1.6-0.9c-0.9-0.5-1.6-1.1-2.1-1.8s-0.8-1.6-0.8-2.8c0-0.8,0.2-1.5,0.5-2.1s0.7-1.1,1.2-1.5
		s1.1-0.7,1.8-0.9c0.7-0.2,1.4-0.3,2.1-0.3c0.9,0,1.7,0.1,2.3,0.3c0.6,0.2,1.1,0.3,1.3,0.4l-0.2,2.7c-0.4-0.2-0.8-0.3-1.4-0.5
		c-0.5-0.2-1.2-0.3-1.9-0.3c-0.8,0-1.4,0.2-1.8,0.6s-0.6,0.9-0.6,1.5c0,0.3,0,0.6,0.1,0.9c0.1,0.2,0.2,0.4,0.4,0.6
		c0.2,0.2,0.4,0.3,0.6,0.5c0.2,0.1,0.5,0.3,0.7,0.4l1.9,1c0.5,0.3,1,0.6,1.3,0.9c0.4,0.3,0.7,0.6,0.9,1c0.2,0.4,0.4,0.8,0.6,1.2
		s0.2,1,0.2,1.6c0,0.9-0.2,1.7-0.5,2.3c-0.3,0.7-0.7,1.2-1.2,1.6c-0.5,0.4-1.1,0.8-1.9,1s-1.5,0.3-2.3,0.3c-1.8,0-3.1-0.3-4-0.8
		L335.8,42.3z"/>
	<path class="st0" d="M356.4,45.3c-0.4,0.1-0.8,0.3-1.3,0.4c-0.5,0.1-1.1,0.2-1.7,0.2c-1.1,0-2-0.2-2.7-0.5
		c-0.8-0.3-1.4-0.8-1.9-1.4s-0.9-1.3-1.1-2.1s-0.4-1.7-0.4-2.6s0.1-1.8,0.4-2.6c0.2-0.8,0.6-1.5,1.1-2.1s1.2-1.1,1.9-1.4
		c0.8-0.3,1.7-0.5,2.8-0.5c0.5,0,1,0.1,1.5,0.2c0.5,0.1,0.9,0.2,1.2,0.3l-0.2,2.4c-0.3-0.1-0.6-0.3-1-0.4c-0.4-0.1-0.8-0.2-1.2-0.2
		c-1.2,0-2,0.4-2.6,1.1s-0.8,1.8-0.8,3.2c0,0.6,0.1,1.2,0.2,1.7s0.4,1,0.6,1.4c0.3,0.4,0.7,0.7,1.1,0.9s1,0.3,1.6,0.3
		c0.4,0,0.8-0.1,1.2-0.2c0.4-0.1,0.8-0.3,1-0.4L356.4,45.3z"/>
	<path class="st0" d="M358.3,26.9h3.1v7.5h0.1c0.1-0.2,0.3-0.4,0.5-0.6c0.2-0.2,0.4-0.4,0.6-0.6c0.2-0.2,0.5-0.3,0.9-0.4
		c0.3-0.1,0.8-0.2,1.2-0.2c0.7,0,1.3,0.1,1.8,0.4c0.5,0.2,0.9,0.6,1.2,1c0.3,0.4,0.5,1,0.6,1.5c0.1,0.6,0.2,1.2,0.2,1.8v8.3h-3.1
		v-7.7c0-1-0.1-1.7-0.4-2.1c-0.3-0.4-0.7-0.6-1.4-0.6c-0.4,0-0.7,0.1-1,0.2c-0.3,0.2-0.5,0.4-0.7,0.7s-0.3,0.6-0.4,1
		s-0.1,0.8-0.1,1.2v7.5h-3.1L358.3,26.9L358.3,26.9z"/>
	<path class="st0" d="M370.4,39.2c0-1.3,0.2-2.4,0.5-3.2s0.8-1.5,1.3-2s1.2-0.8,1.8-1c0.7-0.2,1.3-0.3,2-0.3s1.3,0.1,2,0.3
		s1.3,0.5,1.8,1s1,1.2,1.3,2s0.5,1.9,0.5,3.2s-0.2,2.5-0.5,3.3c-0.3,0.9-0.8,1.5-1.3,2s-1.1,0.8-1.8,1c-0.7,0.2-1.3,0.3-2,0.3
		c-0.6,0-1.3-0.1-2-0.3s-1.3-0.5-1.8-1c-0.6-0.5-1-1.2-1.3-2S370.4,40.5,370.4,39.2z M373.6,39.2c0,0.5,0,1.1,0.1,1.6s0.2,1,0.4,1.4
		c0.2,0.4,0.4,0.8,0.8,1c0.3,0.3,0.7,0.4,1.2,0.4s0.9-0.1,1.2-0.4c0.3-0.3,0.6-0.6,0.8-1c0.2-0.4,0.3-0.9,0.4-1.4s0.1-1.1,0.1-1.6
		s0-1.1-0.1-1.6s-0.2-1-0.4-1.4c-0.2-0.4-0.4-0.8-0.8-1c-0.3-0.3-0.7-0.4-1.2-0.4s-0.9,0.1-1.2,0.4s-0.6,0.6-0.8,1
		c-0.2,0.4-0.3,0.9-0.4,1.4C373.6,38.1,373.6,38.7,373.6,39.2z"/>
	<path class="st0" d="M383.7,26.9h3.1v18.8h-3.1V26.9z"/>
	<path class="st0" d="M390.1,33.5c0.4-0.2,1-0.4,1.6-0.6c0.6-0.2,1.5-0.3,2.4-0.3c1,0,1.8,0.1,2.5,0.3c0.6,0.2,1.1,0.6,1.5,1
		c0.4,0.5,0.6,1,0.8,1.6s0.2,1.4,0.2,2.2v5.6c0,0.5,0,0.9,0.1,1.3c0,0.4,0.1,0.7,0.1,1h-2.8c-0.1-0.2-0.1-0.5-0.2-0.8
		c0-0.3,0-0.6,0-0.9l0,0c-0.4,0.5-0.8,1-1.4,1.4s-1.3,0.6-2.2,0.6c-0.5,0-1-0.1-1.5-0.2s-0.9-0.4-1.2-0.7c-0.4-0.3-0.6-0.7-0.9-1.2
		c-0.2-0.5-0.3-1-0.3-1.6c0-0.9,0.2-1.6,0.5-2.2c0.3-0.6,0.8-1,1.4-1.3s1.3-0.6,2.1-0.7c0.8-0.1,1.7-0.2,2.7-0.2h0.6v-0.5
		c0-0.3,0-0.6-0.1-0.9c-0.1-0.3-0.2-0.6-0.4-0.8c-0.2-0.2-0.4-0.4-0.7-0.5c-0.3-0.1-0.7-0.2-1.1-0.2s-0.8,0-1.1,0.1s-0.7,0.2-1,0.3
		s-0.6,0.3-0.8,0.4c-0.2,0.1-0.4,0.3-0.6,0.4L390.1,33.5z M396.2,39.3h-0.3c-1.3,0-2.4,0.2-3.1,0.5s-1.1,1-1.1,1.9
		c0,0.6,0.2,1.1,0.5,1.4c0.4,0.4,0.8,0.6,1.4,0.6c0.9,0,1.6-0.3,2-1s0.6-1.5,0.6-2.7V39.3z"/>
	<path class="st0" d="M401.6,34.9c0-0.4,0-0.8,0-1.1c0-0.4,0-0.7-0.1-1h2.8c0,0.4,0,0.8,0.1,1.2c0,0.4,0,0.8,0,1.2l0,0
		c0.1-0.2,0.2-0.5,0.4-0.8c0.2-0.3,0.4-0.6,0.7-0.8c0.3-0.2,0.6-0.5,0.9-0.6c0.4-0.2,0.8-0.3,1.3-0.3c0.1,0,0.2,0,0.3,0
		c0.1,0,0.2,0,0.2,0v2.9c-0.3-0.1-0.6-0.1-0.9-0.1s-0.6,0.1-1,0.2c-0.3,0.1-0.6,0.3-0.9,0.5s-0.5,0.6-0.6,1
		c-0.2,0.4-0.2,0.9-0.2,1.5v7h-3.1V34.9H401.6z"/>
	<path class="st0" d="M409.6,42.6c0.1,0,0.3,0.1,0.5,0.2c0.2,0.1,0.5,0.2,0.8,0.3s0.6,0.2,0.9,0.2c0.3,0.1,0.7,0.1,1.1,0.1
		c0.6,0,1-0.1,1.4-0.3s0.6-0.5,0.6-1c0-0.2-0.1-0.5-0.3-0.8s-0.5-0.5-1.1-0.9l-1.3-0.8c-0.3-0.2-0.7-0.4-1-0.6
		c-0.3-0.2-0.6-0.4-0.9-0.7s-0.5-0.6-0.6-1c-0.2-0.4-0.2-0.8-0.2-1.3s0.1-0.9,0.3-1.3c0.2-0.4,0.5-0.8,0.9-1.2
		c0.4-0.3,0.9-0.6,1.4-0.8s1.2-0.3,1.8-0.3c0.8,0,1.5,0.1,2.1,0.2c0.6,0.2,1,0.2,1.1,0.3l-0.2,2.4c-0.4-0.2-0.8-0.3-1.2-0.4
		s-0.9-0.2-1.5-0.2s-1.1,0.1-1.4,0.3s-0.4,0.5-0.4,0.9s0.1,0.6,0.4,0.9c0.3,0.2,0.6,0.5,1.1,0.8l1.5,1c0.4,0.2,0.8,0.5,1,0.7
		s0.5,0.5,0.8,0.7s0.4,0.5,0.5,0.8s0.2,0.6,0.2,1c0,0.6-0.1,1.1-0.4,1.6c-0.2,0.5-0.6,0.9-1,1.2s-0.9,0.6-1.5,0.8s-1.2,0.3-1.9,0.3
		c-0.8,0-1.5-0.1-2.1-0.2c-0.6-0.1-1.1-0.3-1.4-0.4L409.6,42.6z"/>
	<path class="st0" d="M419.7,26.9h3.1v7.5h0.1c0.1-0.2,0.3-0.4,0.5-0.6c0.2-0.2,0.4-0.4,0.6-0.6c0.2-0.2,0.5-0.3,0.9-0.4
		c0.3-0.1,0.8-0.2,1.2-0.2c0.7,0,1.3,0.1,1.8,0.4s0.9,0.6,1.2,1c0.3,0.4,0.5,1,0.6,1.5c0.1,0.6,0.2,1.2,0.2,1.8v8.3h-3.1v-7.7
		c0-1-0.1-1.7-0.4-2.1c-0.3-0.4-0.7-0.6-1.4-0.6c-0.4,0-0.7,0.1-1,0.2c-0.3,0.2-0.5,0.4-0.7,0.7s-0.3,0.6-0.4,1s-0.1,0.8-0.1,1.2
		v7.5h-3.1L419.7,26.9L419.7,26.9z"/>
	<path class="st0" d="M432.2,27.3h3.2v3.1h-3.2V27.3z M432.2,32.8h3.1v12.9h-3.1V32.8z"/>
	<path class="st0" d="M438.1,35c0-0.5,0-0.9,0-1.3c0-0.4,0-0.7-0.1-0.9h2.9c0,0.2,0.1,0.5,0.1,0.8c0,0.4,0,0.8,0,1.2h0.1
		c0.1-0.3,0.3-0.5,0.5-0.8s0.4-0.5,0.7-0.7c0.3-0.2,0.6-0.4,1-0.5s0.8-0.2,1.3-0.2c0.8,0,1.5,0.2,2.1,0.5c0.6,0.4,1,0.8,1.4,1.4
		c0.4,0.6,0.6,1.3,0.8,2.1c0.2,0.8,0.3,1.6,0.3,2.5c0,2.1-0.4,3.8-1.2,4.9c-0.8,1.2-1.9,1.7-3.3,1.7c-0.5,0-0.9-0.1-1.2-0.2
		c-0.4-0.1-0.7-0.3-1-0.5s-0.5-0.4-0.7-0.7s-0.3-0.5-0.5-0.7l0,0V51h-3.1L438.1,35L438.1,35z M441.2,39.2c0,0.6,0,1.2,0.1,1.7
		s0.2,1,0.4,1.4c0.2,0.4,0.4,0.7,0.7,0.9c0.3,0.2,0.7,0.3,1.1,0.3c0.9,0,1.5-0.4,1.8-1.2s0.5-1.8,0.5-3.1c0-1.5-0.2-2.6-0.5-3.4
		c-0.3-0.7-0.9-1.1-1.8-1.1c-0.5,0-0.8,0.1-1.2,0.3c-0.3,0.2-0.6,0.6-0.8,1c-0.2,0.4-0.3,0.9-0.4,1.4
		C441.2,38.1,441.2,38.6,441.2,39.2z"/>
</g>
</svg>
