<svg width="234" height="234" viewBox="0 0 234 234" fill="none" xmlns="http://www.w3.org/2000/svg">
<rect width="234" height="234" fill="#F1FAEE"/>
<path d="M213 100C213 136.727 183.727 156.5 147 156.5C110.273 156.5 74 177.727 74 141C74 104.273 102.273 48.5 139 48.5C175.727 48.5 213 63.2731 213 100Z" fill="#FFFBE3"/>
<path d="M134.871 70.6215C132.865 69.3367 131.395 67.2584 131.745 65.0914C131.815 64.6575 132.075 64.2777 132.455 64.0565C132.835 63.835 133.294 63.7954 133.706 63.9484C139.047 65.9315 145.004 64.7013 150.28 59.6937C150.643 59.3483 151.158 59.2126 151.645 59.3333C152.132 59.4543 152.523 59.8153 152.683 60.2906C153.363 62.314 152.754 65.0441 151.272 67.2869C149.739 69.6081 147.138 71.6388 143.477 72.179C139.957 72.6986 136.968 71.9645 134.871 70.6215ZM187.59 70.6215C189.597 69.3367 191.067 67.2584 190.717 65.0914C190.647 64.6575 190.387 64.2777 190.007 64.0565C189.627 63.835 189.168 63.7954 188.756 63.9484C183.415 65.9315 177.458 64.7013 172.182 59.6937C171.819 59.3483 171.304 59.2126 170.817 59.3333C170.33 59.4543 169.939 59.8153 169.779 60.2906C169.098 62.314 169.708 65.0441 171.19 67.2869C172.723 69.6081 175.324 71.6388 178.984 72.179C182.505 72.6986 185.494 71.9645 187.59 70.6215Z" fill="#457B9D"/>
<path fill-rule="evenodd" clip-rule="evenodd" d="M142.475 93.9389C141.929 94.7752 141.494 95.8483 141.209 96.8929C140.921 97.9436 140.717 99.2129 140.811 100.458C140.901 101.635 141.315 103.368 142.864 104.503C144.48 105.686 146.424 105.569 148.068 105.052L148.091 105.045L148.115 105.037C155.273 102.656 158.685 101.707 161.961 101.726C165.248 101.744 168.582 102.734 175.615 105.031C177.102 105.553 178.943 105.665 180.479 104.46C181.86 103.378 182.248 101.78 182.359 100.735C182.48 99.5998 182.354 98.4286 182.137 97.434C181.922 96.4476 181.571 95.4156 181.089 94.5764C180.836 94.1349 180.42 93.587 180.272 93.3923C180.246 93.3582 180.228 93.335 180.221 93.3247C176.384 87.9702 169.329 84.625 161.558 84.625C153.504 84.625 146.201 88.2229 142.475 93.9389ZM146.695 100.198C146.698 100.211 146.701 100.216 146.701 100.216C146.701 100.216 146.699 100.206 146.693 100.189L146.695 100.198ZM146.876 98.4424C146.79 98.7564 146.732 99.0531 146.699 99.3172C153.422 97.0865 157.675 95.8266 161.994 95.851C166.171 95.8745 170.242 97.1023 176.478 99.1327C176.457 98.9891 176.43 98.8387 176.396 98.6842C176.269 98.099 176.093 97.6746 175.993 97.4995C175.938 97.4028 175.908 97.3641 175.836 97.2712C175.766 97.1813 175.656 97.0403 175.446 96.7469C172.89 93.1813 167.764 90.5 161.558 90.5C155.111 90.5 149.846 93.3887 147.396 97.1473C147.275 97.3326 147.052 97.7997 146.876 98.4424ZM176.488 100.287C176.482 100.303 176.481 100.313 176.481 100.313C176.481 100.313 176.485 100.303 176.491 100.28L176.488 100.287Z" fill="#457B9D"/>
<path fill-rule="evenodd" clip-rule="evenodd" d="M214.75 72.875C214.75 102.077 191.077 125.75 161.875 125.75C132.673 125.75 109 102.077 109 72.875C109 43.673 132.673 20 161.875 20C191.077 20 214.75 43.673 214.75 72.875ZM208.875 72.875C208.875 98.8325 187.833 119.875 161.875 119.875C135.917 119.875 114.875 98.8325 114.875 72.875C114.875 46.9175 135.917 25.875 161.875 25.875C187.833 25.875 208.875 46.9175 208.875 72.875Z" fill="#457B9D"/>
<path d="M18.312 173.44V170.68H30.312V173.44H25.752V187H22.872V173.44H18.312ZM38.4808 177.16C38.0808 177.16 37.6248 177.256 37.1128 177.448C36.6008 177.64 35.9928 178.016 35.2888 178.576V187H32.5288V169.24H35.2888V176.344C36.0248 175.72 36.7128 175.272 37.3528 175C37.9928 174.728 38.6488 174.592 39.3208 174.592C40.4888 174.592 41.3768 174.968 41.9848 175.72C42.5928 176.456 42.8968 177.496 42.8968 178.84V187H40.1368V179.176C40.1368 177.832 39.5848 177.16 38.4808 177.16ZM49.3764 172.528H46.4724V169.672H49.3764V172.528ZM49.3044 187H46.5444V174.832H49.3044V187ZM56.5149 184.84C57.1069 184.84 57.5949 184.744 57.9789 184.552C58.3629 184.344 58.5549 184.04 58.5549 183.64C58.5549 183.288 58.4269 183.016 58.1709 182.824C57.9309 182.616 57.4909 182.432 56.8509 182.272L55.4829 181.912C54.4269 181.64 53.6429 181.184 53.1309 180.544C52.6349 179.904 52.3869 179.144 52.3869 178.264C52.3869 177.224 52.7469 176.352 53.4669 175.648C54.1869 174.944 55.2989 174.592 56.8029 174.592C57.4109 174.592 58.0509 174.664 58.7229 174.808C59.3949 174.952 60.0989 175.184 60.8349 175.504L60.0429 177.856C59.3709 177.536 58.7629 177.312 58.2189 177.184C57.6749 177.056 57.1949 176.992 56.7789 176.992C55.6429 176.992 55.0749 177.376 55.0749 178.144C55.0749 178.448 55.1709 178.688 55.3629 178.864C55.5709 179.04 55.9469 179.2 56.4909 179.344L57.8589 179.704C59.0269 180.008 59.8749 180.472 60.4029 181.096C60.9469 181.72 61.2189 182.504 61.2189 183.448C61.2189 184.568 60.8349 185.48 60.0669 186.184C59.3149 186.888 58.1229 187.24 56.4909 187.24C55.0989 187.24 53.6349 186.92 52.0989 186.28L52.8429 184C53.5949 184.304 54.2749 184.52 54.8829 184.648C55.4909 184.776 56.0349 184.84 56.5149 184.84ZM71.4249 180.544C71.4249 181.712 71.6809 182.672 72.1929 183.424C72.7049 184.16 73.5449 184.528 74.7129 184.528C75.1929 184.528 75.6889 184.464 76.2009 184.336C76.7289 184.208 77.3769 183.992 78.1449 183.688L79.0329 186.184C78.1689 186.568 77.3689 186.84 76.6329 187C75.9129 187.16 75.2169 187.24 74.5449 187.24C73.2009 187.24 72.0729 186.952 71.1609 186.376C70.2649 185.8 69.5929 185.008 69.1449 184C68.6969 182.992 68.4729 181.84 68.4729 180.544V177.112C68.4729 175.816 68.6969 174.664 69.1449 173.656C69.5929 172.648 70.2649 171.864 71.1609 171.304C72.0729 170.728 73.2009 170.44 74.5449 170.44C75.2009 170.44 75.8809 170.52 76.5849 170.68C77.2889 170.824 78.0569 171.08 78.8889 171.448L78.0009 173.992C77.2649 173.688 76.6489 173.472 76.1529 173.344C75.6569 173.216 75.1769 173.152 74.7129 173.152C73.5449 173.152 72.7049 173.52 72.1929 174.256C71.6809 174.992 71.4249 175.944 71.4249 177.112V180.544ZM91.1685 180.184V181.624C91.1685 183.32 90.7045 184.68 89.7765 185.704C88.8485 186.728 87.5365 187.24 85.8405 187.24C84.1445 187.24 82.8325 186.728 81.9045 185.704C80.9765 184.68 80.5125 183.32 80.5125 181.624V180.184C80.5125 178.488 80.9685 177.136 81.8805 176.128C82.8085 175.104 84.1285 174.592 85.8405 174.592C87.5525 174.592 88.8645 175.104 89.7765 176.128C90.7045 177.136 91.1685 178.488 91.1685 180.184ZM88.3365 180.184C88.3365 179.208 88.1205 178.448 87.6885 177.904C87.2565 177.344 86.6405 177.064 85.8405 177.064C85.0405 177.064 84.4245 177.344 83.9925 177.904C83.5605 178.448 83.3445 179.208 83.3445 180.184V181.624C83.3445 182.6 83.5605 183.368 83.9925 183.928C84.4245 184.488 85.0405 184.768 85.8405 184.768C86.6405 184.768 87.2565 184.488 87.6885 183.928C88.1205 183.368 88.3365 182.6 88.3365 181.624V180.184ZM103.701 174.832L99.3808 187H96.8608L92.5408 174.832H95.3248L97.4128 180.904L98.2048 183.424L98.9728 180.904L100.965 174.832H103.701ZM115.011 186.304C114.179 186.64 113.395 186.88 112.659 187.024C111.923 187.168 111.227 187.24 110.571 187.24C108.763 187.24 107.395 186.728 106.467 185.704C105.539 184.68 105.075 183.32 105.075 181.624V180.184C105.075 179.048 105.283 178.064 105.699 177.232C106.115 176.4 106.707 175.752 107.475 175.288C108.243 174.824 109.147 174.592 110.187 174.592C111.035 174.592 111.827 174.768 112.563 175.12C113.315 175.456 113.923 175.992 114.387 176.728C114.867 177.448 115.107 178.376 115.107 179.512C115.107 179.848 115.083 180.208 115.035 180.592C114.987 180.96 114.907 181.352 114.795 181.768H107.739C107.771 182.76 108.019 183.504 108.483 184C108.947 184.496 109.691 184.744 110.715 184.744C111.259 184.744 111.819 184.68 112.395 184.552C112.987 184.424 113.595 184.232 114.219 183.976L115.011 186.304ZM110.187 176.92C109.451 176.92 108.875 177.16 108.459 177.64C108.059 178.104 107.827 178.776 107.763 179.656H112.371C112.387 179.576 112.395 179.504 112.395 179.44C112.395 179.36 112.395 179.288 112.395 179.224C112.395 178.456 112.179 177.88 111.747 177.496C111.315 177.112 110.795 176.92 110.187 176.92ZM125.151 177.352C124.399 177.352 123.679 177.472 122.991 177.712C122.319 177.936 121.671 178.304 121.047 178.816V187H118.287V174.832H120.903V176.704C121.719 175.936 122.447 175.392 123.087 175.072C123.727 174.752 124.415 174.592 125.151 174.592V177.352ZM135.613 187H132.733V170.68H135.613V187ZM143.163 184.84C143.755 184.84 144.243 184.744 144.627 184.552C145.011 184.344 145.203 184.04 145.203 183.64C145.203 183.288 145.075 183.016 144.819 182.824C144.579 182.616 144.139 182.432 143.499 182.272L142.131 181.912C141.075 181.64 140.291 181.184 139.779 180.544C139.283 179.904 139.035 179.144 139.035 178.264C139.035 177.224 139.395 176.352 140.115 175.648C140.835 174.944 141.947 174.592 143.451 174.592C144.059 174.592 144.699 174.664 145.371 174.808C146.043 174.952 146.747 175.184 147.483 175.504L146.691 177.856C146.019 177.536 145.411 177.312 144.867 177.184C144.323 177.056 143.843 176.992 143.427 176.992C142.291 176.992 141.723 177.376 141.723 178.144C141.723 178.448 141.819 178.688 142.011 178.864C142.219 179.04 142.595 179.2 143.139 179.344L144.507 179.704C145.675 180.008 146.523 180.472 147.051 181.096C147.595 181.72 147.867 182.504 147.867 183.448C147.867 184.568 147.483 185.48 146.715 186.184C145.963 186.888 144.771 187.24 143.139 187.24C141.747 187.24 140.283 186.92 138.747 186.28L139.491 184C140.243 184.304 140.923 184.52 141.531 184.648C142.139 184.776 142.683 184.84 143.163 184.84ZM27.216 215.592C26.8 215.784 26.32 215.936 25.776 216.048C25.232 216.176 24.68 216.24 24.12 216.24C23.192 216.24 22.448 216.048 21.888 215.664C21.328 215.28 20.92 214.744 20.664 214.056C20.424 213.368 20.304 212.584 20.304 211.704V206.232H18.336V203.832H20.304V200.664H23.064V203.832H26.856V206.232H23.064V211.704C23.064 212.44 23.2 212.952 23.472 213.24C23.76 213.512 24.168 213.648 24.696 213.648C24.952 213.648 25.224 213.624 25.512 213.576C25.816 213.512 26.152 213.408 26.52 213.264L27.216 215.592ZM39.3951 209.184V210.624C39.3951 212.32 38.9311 213.68 38.0031 214.704C37.0751 215.728 35.7631 216.24 34.0671 216.24C32.3711 216.24 31.0591 215.728 30.1311 214.704C29.2031 213.68 28.7391 212.32 28.7391 210.624V209.184C28.7391 207.488 29.1951 206.136 30.1071 205.128C31.0351 204.104 32.3551 203.592 34.0671 203.592C35.7791 203.592 37.0911 204.104 38.0031 205.128C38.9311 206.136 39.3951 207.488 39.3951 209.184ZM36.5631 209.184C36.5631 208.208 36.3471 207.448 35.9151 206.904C35.4831 206.344 34.8671 206.064 34.0671 206.064C33.2671 206.064 32.6511 206.344 32.2191 206.904C31.7871 207.448 31.5711 208.208 31.5711 209.184V210.624C31.5711 211.6 31.7871 212.368 32.2191 212.928C32.6511 213.488 33.2671 213.768 34.0671 213.768C34.8671 213.768 35.4831 213.488 35.9151 212.928C36.3471 212.368 36.5631 211.6 36.5631 210.624V209.184ZM47.6544 216V199.68H52.6224C53.8384 199.68 54.7984 199.856 55.5024 200.208C56.2224 200.56 56.7344 201.056 57.0384 201.696C57.3584 202.336 57.5184 203.088 57.5184 203.952V204.624C57.5184 205.888 56.9744 206.856 55.8864 207.528C56.6544 207.832 57.2384 208.272 57.6384 208.848C58.0384 209.424 58.2384 210.112 58.2384 210.912V211.584C58.2384 212.464 58.0784 213.24 57.7584 213.912C57.4384 214.568 56.9104 215.08 56.1744 215.448C55.4384 215.816 54.4544 216 53.2224 216H47.6544ZM52.6224 202.32H50.5344V206.4H52.6224C53.2624 206.4 53.7424 206.256 54.0624 205.968C54.3984 205.664 54.5664 205.256 54.5664 204.744V203.952C54.5664 203.44 54.3984 203.04 54.0624 202.752C53.7424 202.464 53.2624 202.32 52.6224 202.32ZM53.2224 209.04H50.5344V213.36H53.2224C53.8944 213.36 54.4064 213.2 54.7584 212.88C55.1104 212.56 55.2864 212.128 55.2864 211.584V210.792C55.2864 210.248 55.1104 209.824 54.7584 209.52C54.4064 209.2 53.8944 209.04 53.2224 209.04ZM70.5735 215.304C69.7415 215.64 68.9575 215.88 68.2215 216.024C67.4855 216.168 66.7895 216.24 66.1335 216.24C64.3255 216.24 62.9575 215.728 62.0295 214.704C61.1015 213.68 60.6375 212.32 60.6375 210.624V209.184C60.6375 208.048 60.8455 207.064 61.2615 206.232C61.6775 205.4 62.2695 204.752 63.0375 204.288C63.8055 203.824 64.7095 203.592 65.7495 203.592C66.5975 203.592 67.3895 203.768 68.1255 204.12C68.8775 204.456 69.4855 204.992 69.9495 205.728C70.4295 206.448 70.6695 207.376 70.6695 208.512C70.6695 208.848 70.6455 209.208 70.5975 209.592C70.5495 209.96 70.4695 210.352 70.3575 210.768H63.3015C63.3335 211.76 63.5815 212.504 64.0455 213C64.5095 213.496 65.2535 213.744 66.2775 213.744C66.8215 213.744 67.3815 213.68 67.9575 213.552C68.5495 213.424 69.1575 213.232 69.7815 212.976L70.5735 215.304ZM65.7495 205.92C65.0135 205.92 64.4375 206.16 64.0215 206.64C63.6215 207.104 63.3895 207.776 63.3255 208.656H67.9335C67.9495 208.576 67.9575 208.504 67.9575 208.44C67.9575 208.36 67.9575 208.288 67.9575 208.224C67.9575 207.456 67.7415 206.88 67.3095 206.496C66.8775 206.112 66.3575 205.92 65.7495 205.92ZM79.0138 216V199.68H84.5338C86.4858 199.68 87.9738 200.224 88.9978 201.312C90.0218 202.4 90.5338 204 90.5338 206.112V209.544C90.5338 211.672 90.0218 213.28 88.9978 214.368C87.9738 215.456 86.4858 216 84.5338 216H79.0138ZM84.4138 202.44H81.8938V213.24H84.4138C85.5498 213.24 86.3578 212.96 86.8378 212.4C87.3338 211.84 87.5818 210.888 87.5818 209.544V206.112C87.5818 204.784 87.3338 203.84 86.8378 203.28C86.3578 202.72 85.5498 202.44 84.4138 202.44ZM96.8139 201.528H93.9099V198.672H96.8139V201.528ZM96.7419 216H93.9819V203.832H96.7419V216ZM103.952 213.84C104.544 213.84 105.032 213.744 105.416 213.552C105.8 213.344 105.992 213.04 105.992 212.64C105.992 212.288 105.864 212.016 105.608 211.824C105.368 211.616 104.928 211.432 104.288 211.272L102.92 210.912C101.864 210.64 101.08 210.184 100.568 209.544C100.072 208.904 99.8244 208.144 99.8244 207.264C99.8244 206.224 100.184 205.352 100.904 204.648C101.624 203.944 102.736 203.592 104.24 203.592C104.848 203.592 105.488 203.664 106.16 203.808C106.832 203.952 107.536 204.184 108.272 204.504L107.48 206.856C106.808 206.536 106.2 206.312 105.656 206.184C105.112 206.056 104.632 205.992 104.216 205.992C103.08 205.992 102.512 206.376 102.512 207.144C102.512 207.448 102.608 207.688 102.8 207.864C103.008 208.04 103.384 208.2 103.928 208.344L105.296 208.704C106.464 209.008 107.312 209.472 107.84 210.096C108.384 210.72 108.656 211.504 108.656 212.448C108.656 213.568 108.272 214.48 107.504 215.184C106.752 215.888 105.56 216.24 103.928 216.24C102.536 216.24 101.072 215.92 99.5364 215.28L100.28 213C101.032 213.304 101.712 213.52 102.32 213.648C102.928 213.776 103.472 213.84 103.952 213.84ZM113.602 209.208V210.624C113.602 211.648 113.786 212.416 114.154 212.928C114.522 213.44 115.114 213.696 115.93 213.696C116.33 213.696 116.778 213.648 117.274 213.552C117.786 213.44 118.338 213.272 118.93 213.048L119.722 215.376C119.002 215.664 118.322 215.88 117.682 216.024C117.042 216.168 116.41 216.24 115.786 216.24C114.186 216.24 112.962 215.728 112.114 214.704C111.266 213.68 110.842 212.32 110.842 210.624V209.208C110.842 207.496 111.266 206.136 112.114 205.128C112.962 204.104 114.186 203.592 115.786 203.592C116.394 203.592 117.01 203.664 117.634 203.808C118.258 203.952 118.914 204.16 119.602 204.432L118.81 206.808C117.658 206.36 116.698 206.136 115.93 206.136C115.114 206.136 114.522 206.392 114.154 206.904C113.786 207.4 113.602 208.168 113.602 209.208ZM132.208 209.184V210.624C132.208 212.32 131.744 213.68 130.816 214.704C129.888 215.728 128.576 216.24 126.88 216.24C125.184 216.24 123.872 215.728 122.944 214.704C122.016 213.68 121.552 212.32 121.552 210.624V209.184C121.552 207.488 122.008 206.136 122.92 205.128C123.848 204.104 125.168 203.592 126.88 203.592C128.592 203.592 129.904 204.104 130.816 205.128C131.744 206.136 132.208 207.488 132.208 209.184ZM129.376 209.184C129.376 208.208 129.16 207.448 128.728 206.904C128.296 206.344 127.68 206.064 126.88 206.064C126.08 206.064 125.464 206.344 125.032 206.904C124.6 207.448 124.384 208.208 124.384 209.184V210.624C124.384 211.6 124.6 212.368 125.032 212.928C125.464 213.488 126.08 213.768 126.88 213.768C127.68 213.768 128.296 213.488 128.728 212.928C129.16 212.368 129.376 211.6 129.376 210.624V209.184ZM144.74 203.832L140.42 216H137.9L133.58 203.832H136.364L138.452 209.904L139.244 212.424L140.012 209.904L142.004 203.832H144.74ZM156.05 215.304C155.218 215.64 154.434 215.88 153.698 216.024C152.962 216.168 152.266 216.24 151.61 216.24C149.802 216.24 148.434 215.728 147.506 214.704C146.578 213.68 146.114 212.32 146.114 210.624V209.184C146.114 208.048 146.322 207.064 146.738 206.232C147.154 205.4 147.746 204.752 148.514 204.288C149.282 203.824 150.186 203.592 151.226 203.592C152.074 203.592 152.866 203.768 153.602 204.12C154.354 204.456 154.962 204.992 155.426 205.728C155.906 206.448 156.146 207.376 156.146 208.512C156.146 208.848 156.122 209.208 156.074 209.592C156.026 209.96 155.946 210.352 155.834 210.768H148.778C148.81 211.76 149.058 212.504 149.522 213C149.986 213.496 150.73 213.744 151.754 213.744C152.298 213.744 152.858 213.68 153.434 213.552C154.026 213.424 154.634 213.232 155.258 212.976L156.05 215.304ZM151.226 205.92C150.49 205.92 149.914 206.16 149.498 206.64C149.098 207.104 148.866 207.776 148.802 208.656H153.41C153.426 208.576 153.434 208.504 153.434 208.44C153.434 208.36 153.434 208.288 153.434 208.224C153.434 207.456 153.218 206.88 152.786 206.496C152.354 206.112 151.834 205.92 151.226 205.92ZM166.19 206.352C165.438 206.352 164.718 206.472 164.03 206.712C163.358 206.936 162.71 207.304 162.086 207.816V216H159.326V203.832H161.942V205.704C162.758 204.936 163.486 204.392 164.126 204.072C164.766 203.752 165.454 203.592 166.19 203.592V206.352ZM177.847 215.304C177.015 215.64 176.231 215.88 175.495 216.024C174.759 216.168 174.063 216.24 173.407 216.24C171.599 216.24 170.231 215.728 169.303 214.704C168.375 213.68 167.911 212.32 167.911 210.624V209.184C167.911 208.048 168.119 207.064 168.535 206.232C168.951 205.4 169.543 204.752 170.311 204.288C171.079 203.824 171.983 203.592 173.023 203.592C173.871 203.592 174.663 203.768 175.399 204.12C176.151 204.456 176.759 204.992 177.223 205.728C177.703 206.448 177.943 207.376 177.943 208.512C177.943 208.848 177.919 209.208 177.871 209.592C177.823 209.96 177.743 210.352 177.631 210.768H170.575C170.607 211.76 170.855 212.504 171.319 213C171.783 213.496 172.527 213.744 173.551 213.744C174.095 213.744 174.655 213.68 175.231 213.552C175.823 213.424 176.431 213.232 177.055 212.976L177.847 215.304ZM173.023 205.92C172.287 205.92 171.711 206.16 171.295 206.64C170.895 207.104 170.663 207.776 170.599 208.656H175.207C175.223 208.576 175.231 208.504 175.231 208.44C175.231 208.36 175.231 208.288 175.231 208.224C175.231 207.456 175.015 206.88 174.583 206.496C174.151 206.112 173.631 205.92 173.023 205.92ZM188.251 216V214.344C187.515 215.08 186.875 215.584 186.331 215.856C185.803 216.112 185.251 216.24 184.675 216.24C183.363 216.24 182.339 215.744 181.603 214.752C180.883 213.76 180.523 212.368 180.523 210.576V209.28C180.523 207.536 180.963 206.152 181.843 205.128C182.723 204.104 183.995 203.592 185.659 203.592C186.075 203.592 186.483 203.632 186.883 203.712C187.299 203.792 187.707 203.904 188.107 204.048V198.24H190.867V216H188.251ZM183.355 210.576C183.355 211.648 183.531 212.432 183.883 212.928C184.251 213.424 184.763 213.672 185.419 213.672C185.787 213.672 186.179 213.568 186.595 213.36C187.011 213.136 187.515 212.72 188.107 212.112V206.544C187.323 206.224 186.603 206.064 185.947 206.064C185.019 206.064 184.355 206.352 183.955 206.928C183.555 207.504 183.355 208.288 183.355 209.28V210.576Z" fill="#457B9D"/>
</svg>
