<?xml version="1.0" encoding="UTF-8" standalone="no"?>
<svg
   xmlns:dc="http://purl.org/dc/elements/1.1/"
   xmlns:cc="http://creativecommons.org/ns#"
   xmlns:rdf="http://www.w3.org/1999/02/22-rdf-syntax-ns#"
   xmlns:svg="http://www.w3.org/2000/svg"
   xmlns="http://www.w3.org/2000/svg"
   xmlns:xlink="http://www.w3.org/1999/xlink"
   xml:space="preserve"
   style="enable-background:new 0 0 245.8 272.7;"
   viewBox="0 0 245.8 272.7"
   y="0px"
   x="0px"
   id="Layer_1"
   version="1.1"><metadata
     id="metadata25"><rdf:RDF><cc:Work
         rdf:about=""><dc:format>image/svg+xml</dc:format><dc:type
           rdf:resource="http://purl.org/dc/dcmitype/StillImage" /><dc:title></dc:title></cc:Work></rdf:RDF></metadata><defs
     id="defs23" /><style
     id="style2"
     type="text/css">
	.st0{clip-path:url(#SVGID_2_);}
	.st1{fill:#4F5052;}
	.st2{font-family:'Helvetica-Bold';}
	.st3{font-size:74.6748px;}
	.st4{fill:#C9CBCB;}
	.st5{fill:#848688;}
</style><g
     id="g18"><defs
       id="defs5"><rect
         height="272.7"
         width="245.8"
         id="SVGID_1_" /></defs><clipPath
       id="SVGID_2_"><use
         id="use7"
         style="overflow:visible;"
         xlink:href="#SVGID_1_" /></clipPath><g
       clip-path="url(#SVGID_2_)"
       class="st0"
       id="site-logo"><text
         id="text10"
         class="st1 st2 st3"
         transform="matrix(1 0 0 1 -7.019043e-04 254.0278)"><tspan
           id="tspan27"
           style="-inkscape-font-specification:'Helvetica-Bold, Arial, sans-serif Bold';font-family:Helvetica-Bold, Arial, sans-serif;font-weight:bold;font-style:normal;font-stretch:normal;font-variant:normal">readux</tspan></text>
<g
         transform="translate(24.085 0)"
         id="logo"><rect
           height="167.92"
           width="167.92"
           class="st1"
           x="16.36"
           id="bg" /><path
           d="M50.85,0v80l49.62,77.03l49.61-79.02V0H50.85z"
           class="st4"
           id="Path_1" /><path
           d="M102.03,129.9V0h-2.26v129.62c-2.19,0.3-3.82,2.17-3.82,4.38c0.02,2.49,2.03,4.51,4.52,4.52     c2.47,0.03,4.49-1.94,4.52-4.41c0-0.04,0-0.08,0-0.12C104.9,132.16,103.74,130.56,102.03,129.9z"
           class="st1"
           id="Path_2" /><path
           d="M94.82,2.12H53.82v77.16l40.99,64.31L94.82,2.12z"
           class="st5"
           id="Path_3" /></g></g></g></svg>