<?xml version="1.0" encoding="utf-8"?>
<!-- Generator: Adobe Illustrator 23.0.4, SVG Export Plug-In . SVG Version: 6.00 Build 0)  -->
<svg version="1.1" id="Layer_1" xmlns="http://www.w3.org/2000/svg" xmlns:xlink="http://www.w3.org/1999/xlink" x="0px" y="0px"
	 viewBox="0 0 245.8 272.7" style="enable-background:new 0 0 245.8 272.7;" xml:space="preserve">
<style type="text/css">
	.st0{clip-path:url(#SVGID_2_);}
	.st1{fill:#4F5052;}
	.st2{font-family:'Helvetica-Bold';}
	.st3{font-size:74.6748px;}
	.st4{fill:#C9CBCB;}
	.st5{fill:#848688;}
</style>
<g>
	<defs>
		<rect id="SVGID_1_" width="245.8" height="272.7"/>
	</defs>
	<clipPath id="SVGID_2_">
		<use xlink:href="#SVGID_1_"  style="overflow:visible;"/>
	</clipPath>
	<g id="site-logo" class="st0">
		<text transform="matrix(1 0 0 1 -7.019043e-04 254.0278)" class="st1 st2 st3">readux</text>
		<g id="logo" transform="translate(24.085 0)">
			<rect id="bg" x="16.36" class="st1" width="167.92" height="167.92"/>
			<path id="Path_1" class="st4" d="M50.85,0v80l49.62,77.03l49.61-79.02V0H50.85z"/>
			<path id="Path_2" class="st1" d="M102.03,129.9V0h-2.26v129.62c-2.19,0.3-3.82,2.17-3.82,4.38c0.02,2.49,2.03,4.51,4.52,4.52
				c2.47,0.03,4.49-1.94,4.52-4.41c0-0.04,0-0.08,0-0.12C104.9,132.16,103.74,130.56,102.03,129.9z"/>
			<path id="Path_3" class="st5" d="M94.82,2.12H53.82v77.16l40.99,64.31L94.82,2.12z"/>
		</g>
	</g>
</g>
</svg>
